SplineFontDB: 3.0
FontName: DDZDalet-Bold
FullName: DDZ Dalet Bold
FamilyName: DDZDalet
Weight: Bold
Copyright: GPL
Version: 2.0
ItalicAngle: 0
UnderlinePosition: -50
UnderlineWidth: 50
Ascent: 760
Descent: 240
sfntRevision: 0x00020000
LayerCount: 2
Layer: 0 1 "Back"  1
Layer: 1 1 "Fore"  0
XUID: [1021 588 1133928653 13091363]
FSType: 2
OS2Version: 3
OS2_WeightWidthSlopeOnly: 0
OS2_UseTypoMetrics: 1
CreationTime: 1239168599
ModificationTime: 1359994022
PfmFamily: 17
TTFWeight: 400
TTFWidth: 5
LineGap: 47
VLineGap: 0
Panose: 2 0 5 5 5 0 0 2 0 4
OS2TypoAscent: 0
OS2TypoAOffset: 1
OS2TypoDescent: 0
OS2TypoDOffset: 1
OS2TypoLinegap: 47
OS2WinAscent: -40
OS2WinAOffset: 1
OS2WinDescent: 7
OS2WinDOffset: 1
HheadAscent: -180
HheadAOffset: 1
HheadDescent: -7
HheadDOffset: 1
OS2SubXSize: 700
OS2SubYSize: 650
OS2SubXOff: 0
OS2SubYOff: 140
OS2SupXSize: 700
OS2SupYSize: 650
OS2SupXOff: 0
OS2SupYOff: 477
OS2StrikeYSize: 50
OS2StrikeYPos: 250
OS2Vendor: 'shyf'
OS2CodePages: 20000011.00000000
OS2UnicodeRanges: a00002af.4000205b.00000000.00000000
MarkAttachClasses: 1
DEI: 91125
TtTable: prep
PUSHW_1
 0
CALL
SVTCA[y-axis]
PUSHW_3
 1
 3
 2
CALL
SVTCA[x-axis]
PUSHW_3
 4
 4
 2
CALL
SVTCA[x-axis]
PUSHW_8
 4
 27
 22
 17
 12
 10
 0
 8
CALL
PUSHW_8
 5
 110
 90
 70
 50
 30
 0
 8
CALL
PUSHW_8
 6
 44
 32
 25
 19
 10
 0
 8
CALL
PUSHW_8
 7
 38
 32
 25
 19
 10
 0
 8
CALL
SVTCA[y-axis]
PUSHW_8
 1
 37
 32
 25
 19
 10
 0
 8
CALL
PUSHW_8
 2
 61
 50
 39
 28
 15
 0
 8
CALL
PUSHW_8
 3
 48
 39
 31
 19
 15
 0
 8
CALL
SVTCA[y-axis]
PUSHW_3
 8
 4
 7
CALL
PUSHW_1
 0
DUP
RCVT
RDTG
ROUND[Black]
RTG
WCVTP
EndTTInstrs
TtTable: fpgm
PUSHW_1
 0
FDEF
MPPEM
PUSHW_1
 9
LT
IF
PUSHB_2
 1
 1
INSTCTRL
EIF
PUSHW_1
 511
SCANCTRL
PUSHW_1
 68
SCVTCI
PUSHW_2
 9
 3
SDS
SDB
ENDF
PUSHW_1
 1
FDEF
DUP
DUP
RCVT
ROUND[Black]
WCVTP
PUSHB_1
 1
ADD
ENDF
PUSHW_1
 2
FDEF
PUSHW_1
 1
LOOPCALL
POP
ENDF
PUSHW_1
 3
FDEF
DUP
GC[cur]
PUSHB_1
 3
CINDEX
GC[cur]
GT
IF
SWAP
EIF
DUP
ROLL
DUP
ROLL
MD[grid]
ABS
ROLL
DUP
GC[cur]
DUP
ROUND[Grey]
SUB

StartChar: .notdef
Encoding: 65536 -1 0
Width: 632
Flags: W
LayerCount: 2
Fore
SplineSet
36 680 m 1,0,-1
 596 680 l 1,1,-1
 596 20 l 1,2,-1
 36 20 l 1,3,-1
 36 680 l 1,0,-1
576 40 m 1,4,-1
 576 660 l 1,5,-1
 56 660 l 1,6,-1
 56 40 l 1,7,-1
 576 40 l 1,4,-1
EndSplineSet
EndChar

StartChar: dollar
Encoding: 36 36 2
Width: 628
Flags: W
LayerCount: 2
Fore
SplineSet
21 152 m 1,0,-1
 395 152 l 1,1,-1
 395 292 l 1,2,-1
 91 292 l 2,3,4
 64 292 64 292 42.5 312.5 c 128,-1,5
 21 333 21 333 21 362 c 2,6,-1
 21 630 l 2,7,8
 21 658 21 658 42.5 679 c 128,-1,9
 64 700 64 700 91 700 c 2,10,-1
 237 700 l 1,11,-1
 237 817 l 1,12,-1
 389 817 l 1,13,-1
 389 700 l 1,14,-1
 605 700 l 1,15,-1
 605 548 l 1,16,-1
 231 548 l 1,17,-1
 231 408 l 1,18,-1
 535 408 l 2,19,20
 562 408 562 408 583.5 387 c 128,-1,21
 605 366 605 366 605 338 c 2,22,-1
 605 70 l 2,23,24
 605 41 605 41 583.5 20.5 c 128,-1,25
 562 0 562 0 535 0 c 2,26,-1
 389 0 l 1,27,-1
 389 -116 l 1,28,-1
 237 -116 l 1,29,-1
 237 0 l 1,30,-1
 91 0 l 1,31,-1
 21 152 l 1,0,-1
EndSplineSet
EndChar

StartChar: percent
Encoding: 37 37 3
Width: 802
Flags: W
LayerCount: 2
Fore
SplineSet
511 700 m 1,0,-1
 631 700 l 1,1,-1
 291 0 l 1,2,-1
 171 0 l 1,3,-1
 511 700 l 1,0,-1
36 360 m 1,4,5
 26 371 26 371 26 385 c 2,6,-1
 26 665 l 2,7,8
 26 679 26 679 36.5 689.5 c 128,-1,9
 47 700 47 700 61 700 c 2,10,-1
 253 700 l 2,11,12
 267 700 267 700 278 689.5 c 128,-1,13
 289 679 289 679 291 665 c 1,14,-1
 288 385 l 2,15,16
 288 371 288 371 277.5 360.5 c 128,-1,17
 267 350 267 350 253 350 c 2,18,-1
 61 350 l 2,19,20
 47 350 47 350 36 360 c 1,4,5
183 426 m 1,21,-1
 183 624 l 1,22,-1
 131 624 l 1,23,-1
 131 426 l 1,24,-1
 183 426 l 1,21,-1
514 315 m 2,25,26
 514 329 514 329 524.5 339.5 c 128,-1,27
 535 350 535 350 549 350 c 2,28,-1
 741 350 l 2,29,30
 755 350 755 350 765.5 339.5 c 128,-1,31
 776 329 776 329 776 315 c 2,32,-1
 776 35 l 2,33,34
 776 21 776 21 765.5 10.5 c 128,-1,35
 755 0 755 0 741 0 c 2,36,-1
 549 0 l 2,37,38
 535 0 535 0 524.5 10.5 c 128,-1,39
 514 21 514 21 514 35 c 2,40,-1
 514 315 l 2,25,26
671 76 m 1,41,-1
 671 274 l 1,42,-1
 619 274 l 1,43,-1
 619 76 l 1,44,-1
 671 76 l 1,41,-1
EndSplineSet
EndChar

StartChar: ampersand
Encoding: 38 38 4
Width: 568
Flags: W
LayerCount: 2
Fore
SplineSet
27 292 m 2,0,1
 27 315 27 315 46.5 331 c 128,-1,2
 66 347 66 347 94 350 c 1,3,4
 67 350 67 350 47 371.5 c 128,-1,5
 27 393 27 393 27 420 c 2,6,-1
 27 630 l 2,7,8
 27 658 27 658 48 679 c 128,-1,9
 69 700 69 700 97 700 c 2,10,-1
 213 700 l 1,11,-1
 213 817 l 1,12,-1
 365 817 l 1,13,-1
 365 700 l 1,14,-1
 551 700 l 1,15,-1
 551 548 l 1,16,-1
 237 548 l 1,17,-1
 237 408 l 1,18,-1
 435 408 l 1,19,-1
 435 292 l 1,20,-1
 237 292 l 1,21,-1
 237 152 l 1,22,-1
 551 152 l 1,23,-1
 551 0 l 1,24,-1
 365 0 l 1,25,-1
 365 -116 l 1,26,-1
 213 -116 l 1,27,-1
 213 0 l 1,28,-1
 97 0 l 2,29,30
 69 0 69 0 48 21 c 128,-1,31
 27 42 27 42 27 70 c 2,32,-1
 27 292 l 2,0,1
EndSplineSet
EndChar

StartChar: quotesingle
Encoding: 39 39 5
Width: 252
Flags: W
LayerCount: 2
Fore
SplineSet
79 670 m 1,0,-1
 231 670 l 1,1,-1
 173 402 l 1,2,-1
 21 402 l 1,3,-1
 79 670 l 1,0,-1
EndSplineSet
EndChar

StartChar: parenleft
Encoding: 40 40 6
Width: 310
Flags: W
LayerCount: 2
Fore
SplineSet
49 106 m 0,0,1
 21 222 21 222 21 350 c 256,2,3
 21 478 21 478 49.5 594.5 c 128,-1,4
 78 711 78 711 138 817 c 1,5,-1
 289 817 l 1,6,7
 172 607 172 607 172 350 c 0,8,9
 172 94 172 94 289 -116 c 1,10,-1
 138 -116 l 1,11,12
 78 -10 78 -10 49 106 c 0,0,1
EndSplineSet
EndChar

StartChar: parenright
Encoding: 41 41 7
Width: 310
Flags: W
LayerCount: 2
Fore
SplineSet
21 -116 m 1,0,1
 138 94 138 94 138 350 c 0,2,3
 138 604 138 604 21 817 c 1,4,-1
 172 817 l 1,5,6
 232 710 232 710 260.5 594 c 128,-1,7
 289 478 289 478 289 350 c 256,8,9
 289 222 289 222 260.5 106 c 128,-1,10
 232 -10 232 -10 172 -116 c 1,11,-1
 21 -116 l 1,12,-1
 21 -116 l 1,0,1
EndSplineSet
EndChar

StartChar: asterisk
Encoding: 42 42 8
Width: 528
Flags: W
LayerCount: 2
Fore
SplineSet
14 353 m 1,0,-1
 178 440 l 1,1,-1
 14 527 l 1,2,-1
 64 613 l 1,3,-1
 221 514 l 1,4,-1
 214 700 l 1,5,-1
 314 700 l 1,6,-1
 307 514 l 1,7,-1
 464 613 l 1,8,-1
 514 527 l 1,9,-1
 350 440 l 1,10,-1
 514 353 l 1,11,-1
 464 267 l 1,12,-1
 307 365 l 1,13,-1
 314 180 l 1,14,-1
 214 180 l 1,15,-1
 221 365 l 1,16,-1
 64 267 l 1,17,-1
 14 353 l 1,0,-1
EndSplineSet
EndChar

StartChar: plus
Encoding: 43 43 9
Width: 484
Flags: W
LayerCount: 2
Fore
SplineSet
192 300 m 1,0,-1
 7 300 l 1,1,-1
 7 400 l 1,2,-1
 192 400 l 1,3,-1
 192 585 l 1,4,-1
 292 585 l 1,5,-1
 292 400 l 1,6,-1
 477 400 l 1,7,-1
 477 300 l 1,8,-1
 292 300 l 1,9,-1
 292 115 l 1,10,-1
 192 115 l 1,11,-1
 192 300 l 1,0,-1
EndSplineSet
EndChar

StartChar: comma
Encoding: 44 44 10
Width: 252
Flags: W
LayerCount: 2
Fore
SplineSet
79 150 m 1,0,-1
 231 150 l 1,1,-1
 173 -117 l 1,2,-1
 21 -117 l 1,3,-1
 79 150 l 1,0,-1
EndSplineSet
EndChar

StartChar: hyphen
Encoding: 45 45 11
Width: 543
Flags: W
LayerCount: 2
Fore
SplineSet
36 400 m 1,0,-1
 506 400 l 1,1,-1
 506 300 l 1,2,-1
 36 300 l 1,3,-1
 36 400 l 1,0,-1
EndSplineSet
EndChar

StartChar: period
Encoding: 46 46 12
Width: 226
Flags: W
LayerCount: 2
Fore
SplineSet
36 152 m 1,0,-1
 188 152 l 1,1,-1
 188 0 l 1,2,-1
 36 0 l 1,3,-1
 36 152 l 1,0,-1
EndSplineSet
EndChar

StartChar: slash
Encoding: 47 47 13
Width: 528
Flags: W
LayerCount: 2
Fore
SplineSet
347 817 m 1,0,-1
 522 817 l 1,1,-1
 182 -116 l 1,2,-1
 7 -116 l 1,3,-1
 347 817 l 1,0,-1
EndSplineSet
EndChar

StartChar: zero
Encoding: 48 48 14
Width: 848
Flags: W
LayerCount: 2
Fore
SplineSet
132 630 m 2,0,1
 132 658 132 658 153.5 679 c 128,-1,2
 175 700 175 700 202 700 c 2,3,-1
 646 700 l 2,4,5
 673 700 673 700 694.5 679 c 128,-1,6
 716 658 716 658 716 630 c 2,7,-1
 716 70 l 2,8,9
 716 41 716 41 694.5 20.5 c 128,-1,10
 673 0 673 0 646 0 c 2,11,-1
 202 0 l 2,12,13
 175 0 175 0 153.5 20.5 c 128,-1,14
 132 41 132 41 132 70 c 2,15,-1
 132 630 l 2,0,1
506 152 m 1,16,-1
 506 548 l 1,17,-1
 342 548 l 1,18,-1
 342 152 l 1,19,-1
 506 152 l 1,16,-1
EndSplineSet
EndChar

StartChar: one
Encoding: 49 49 15
Width: 567
Flags: W
LayerCount: 2
Fore
SplineSet
224 548 m 1,0,-1
 108 548 l 1,1,-1
 178 700 l 1,2,-1
 434 700 l 1,3,-1
 434 0 l 1,4,-1
 224 0 l 1,5,-1
 224 548 l 1,0,-1
EndSplineSet
EndChar

StartChar: two
Encoding: 50 50 16
Width: 848
Flags: W
LayerCount: 2
Fore
SplineSet
132 338 m 2,0,1
 132 366 132 366 153.5 387 c 128,-1,2
 175 408 175 408 202 408 c 2,3,-1
 506 408 l 1,4,-1
 506 548 l 1,5,-1
 132 548 l 1,6,-1
 132 700 l 1,7,-1
 646 700 l 2,8,9
 673 700 673 700 694.5 679 c 128,-1,10
 716 658 716 658 716 630 c 2,11,-1
 716 362 l 2,12,13
 716 333 716 333 694.5 312.5 c 128,-1,14
 673 292 673 292 646 292 c 2,15,-1
 342 292 l 1,16,-1
 342 152 l 1,17,-1
 716 152 l 1,18,-1
 716 0 l 1,19,-1
 202 0 l 2,20,21
 175 0 175 0 153.5 20.5 c 128,-1,22
 132 41 132 41 132 70 c 2,23,-1
 132 338 l 2,0,1
EndSplineSet
EndChar

StartChar: three
Encoding: 51 51 17
Width: 848
Flags: W
LayerCount: 2
Fore
SplineSet
132 152 m 1,0,-1
 506 152 l 1,1,-1
 506 292 l 1,2,-1
 249 292 l 1,3,-1
 249 408 l 1,4,-1
 506 408 l 1,5,-1
 506 548 l 1,6,-1
 132 548 l 1,7,-1
 132 700 l 1,8,-1
 646 700 l 2,9,10
 673 700 673 700 694.5 679 c 128,-1,11
 716 658 716 658 716 630 c 2,12,-1
 716 420 l 2,13,14
 716 392 716 392 695 371 c 128,-1,15
 674 350 674 350 648 350 c 1,16,17
 672 347 672 347 694 332 c 128,-1,18
 716 317 716 317 716 292 c 2,19,-1
 716 70 l 2,20,21
 716 41 716 41 694.5 20.5 c 128,-1,22
 673 0 673 0 646 0 c 2,23,-1
 132 0 l 1,24,-1
 132 152 l 1,0,-1
EndSplineSet
EndChar

StartChar: four
Encoding: 52 52 18
Width: 813
Flags: W
LayerCount: 2
Fore
SplineSet
116 700 m 1,0,-1
 326 700 l 1,1,-1
 326 292 l 1,2,-1
 490 292 l 1,3,-1
 490 467 l 1,4,-1
 700 467 l 1,5,-1
 700 0 l 1,6,-1
 490 0 l 1,7,-1
 490 175 l 1,8,-1
 116 175 l 1,9,-1
 116 700 l 1,0,-1
EndSplineSet
EndChar

StartChar: five
Encoding: 53 53 19
Width: 846
Flags: W
LayerCount: 2
Fore
SplineSet
200 152 m 1,0,-1
 504 152 l 1,1,-1
 504 292 l 1,2,-1
 130 292 l 1,3,-1
 130 700 l 1,4,-1
 714 700 l 1,5,-1
 714 548 l 1,6,-1
 340 548 l 1,7,-1
 340 408 l 1,8,-1
 644 408 l 2,9,10
 671 408 671 408 692.5 387 c 128,-1,11
 714 366 714 366 714 338 c 2,12,-1
 714 70 l 2,13,14
 714 41 714 41 692.5 20.5 c 128,-1,15
 671 0 671 0 644 0 c 2,16,-1
 130 0 l 1,17,-1
 200 152 l 1,0,-1
EndSplineSet
EndChar

StartChar: six
Encoding: 54 54 20
Width: 846
Flags: W
LayerCount: 2
Fore
SplineSet
132 630 m 2,0,1
 132 658 132 658 153.5 679 c 128,-1,2
 175 700 175 700 202 700 c 2,3,-1
 716 700 l 1,4,-1
 646 548 l 1,5,-1
 342 548 l 1,6,-1
 342 455 l 1,7,-1
 646 455 l 2,8,9
 673 455 673 455 694.5 434 c 128,-1,10
 716 413 716 413 716 385 c 2,11,-1
 716 70 l 2,12,13
 716 41 716 41 694.5 20.5 c 128,-1,14
 673 0 673 0 646 0 c 2,15,-1
 202 0 l 2,16,17
 175 0 175 0 153.5 20.5 c 128,-1,18
 132 41 132 41 132 70 c 2,19,-1
 132 630 l 2,0,1
506 152 m 1,20,-1
 506 338 l 1,21,-1
 342 338 l 1,22,-1
 342 152 l 1,23,-1
 506 152 l 1,20,-1
EndSplineSet
EndChar

StartChar: seven
Encoding: 55 55 21
Width: 812
Flags: W
LayerCount: 2
Fore
SplineSet
440 548 m 1,0,-1
 117 548 l 1,1,-1
 117 700 l 1,2,-1
 701 700 l 1,3,-1
 467 0 l 1,4,-1
 257 0 l 1,5,-1
 440 548 l 1,0,-1
EndSplineSet
EndChar

StartChar: eight
Encoding: 56 56 22
Width: 848
Flags: W
LayerCount: 2
Fore
SplineSet
132 292 m 2,0,1
 132 315 132 315 152.5 331 c 128,-1,2
 173 347 173 347 199 350 c 1,3,4
 186 350 186 350 174 356 c 128,-1,5
 162 362 162 362 152.5 371.5 c 128,-1,6
 143 381 143 381 137.5 393.5 c 128,-1,7
 132 406 132 406 132 420 c 2,8,-1
 132 630 l 2,9,10
 132 658 132 658 153.5 679 c 128,-1,11
 175 700 175 700 202 700 c 2,12,-1
 646 700 l 2,13,14
 673 700 673 700 694.5 679 c 128,-1,15
 716 658 716 658 716 630 c 2,16,-1
 716 420 l 2,17,18
 716 392 716 392 695 371 c 128,-1,19
 674 350 674 350 648 350 c 1,20,21
 672 347 672 347 694 332 c 128,-1,22
 716 317 716 317 716 292 c 2,23,-1
 716 70 l 2,24,25
 716 41 716 41 694.5 20.5 c 128,-1,26
 673 0 673 0 646 0 c 2,27,-1
 202 0 l 2,28,29
 175 0 175 0 153.5 20.5 c 128,-1,30
 132 41 132 41 132 70 c 2,31,-1
 132 292 l 2,0,1
506 408 m 1,32,-1
 506 548 l 1,33,-1
 342 548 l 1,34,-1
 342 408 l 1,35,-1
 506 408 l 1,32,-1
506 152 m 1,36,-1
 506 292 l 1,37,-1
 342 292 l 1,38,-1
 342 152 l 1,39,-1
 506 152 l 1,36,-1
EndSplineSet
EndChar

StartChar: nine
Encoding: 57 57 23
Width: 846
Flags: W
LayerCount: 2
Fore
SplineSet
200 152 m 1,0,-1
 504 152 l 1,1,-1
 504 245 l 1,2,-1
 200 245 l 2,3,4
 173 245 173 245 151.5 265.5 c 128,-1,5
 130 286 130 286 130 315 c 2,6,-1
 130 630 l 2,7,8
 130 658 130 658 151.5 679 c 128,-1,9
 173 700 173 700 200 700 c 2,10,-1
 644 700 l 2,11,12
 671 700 671 700 692.5 679 c 128,-1,13
 714 658 714 658 714 630 c 2,14,-1
 714 70 l 2,15,16
 714 41 714 41 692.5 20.5 c 128,-1,17
 671 0 671 0 644 0 c 2,18,-1
 130 0 l 1,19,-1
 200 152 l 1,0,-1
504 362 m 1,20,-1
 504 548 l 1,21,-1
 340 548 l 1,22,-1
 340 362 l 1,23,-1
 504 362 l 1,20,-1
EndSplineSet
EndChar

StartChar: colon
Encoding: 58 58 24
Width: 202
Flags: W
LayerCount: 2
Fore
SplineSet
36 525 m 1,0,-1
 188 525 l 1,1,-1
 188 374 l 1,2,-1
 36 374 l 1,3,-1
 36 525 l 1,0,-1
36 151 m 1,4,-1
 188 151 l 1,5,-1
 188 0 l 1,6,-1
 36 0 l 1,7,-1
 36 151 l 1,4,-1
EndSplineSet
EndChar

StartChar: semicolon
Encoding: 59 59 25
Width: 255
Flags: W
LayerCount: 2
Fore
SplineSet
77 524 m 1,0,-1
 229 524 l 1,1,-1
 229 372 l 1,2,-1
 77 372 l 1,3,-1
 77 524 l 1,0,-1
77 150 m 1,4,-1
 229 150 l 1,5,-1
 171 -117 l 1,6,-1
 19 -117 l 1,7,-1
 77 150 l 1,4,-1
EndSplineSet
EndChar

StartChar: less
Encoding: 60 60 26
Width: 566
Flags: W
LayerCount: 2
Fore
SplineSet
5 408 m 1,0,-1
 485 642 l 1,1,-1
 535 538 l 1,2,-1
 149 350 l 1,3,-1
 535 162 l 1,4,-1
 485 58 l 1,5,-1
 5 292 l 1,6,-1
 5 408 l 1,0,-1
EndSplineSet
EndChar

StartChar: equal
Encoding: 61 61 27
Width: 524
Flags: W
LayerCount: 2
Fore
SplineSet
36 500 m 1,0,-1
 506 500 l 1,1,-1
 506 400 l 1,2,-1
 36 400 l 1,3,-1
 36 500 l 1,0,-1
36 300 m 1,4,-1
 506 300 l 1,5,-1
 506 200 l 1,6,-1
 36 200 l 1,7,-1
 36 300 l 1,4,-1
EndSplineSet
EndChar

StartChar: greater
Encoding: 62 62 28
Width: 565
Flags: W
LayerCount: 2
Fore
SplineSet
30 162 m 1,0,-1
 416 350 l 1,1,-1
 30 538 l 1,2,-1
 80 642 l 1,3,-1
 560 408 l 1,4,-1
 560 292 l 1,5,-1
 80 58 l 1,6,-1
 30 162 l 1,0,-1
EndSplineSet
EndChar

StartChar: question
Encoding: 63 63 29
Width: 583
Flags: W
LayerCount: 2
Fore
SplineSet
36 338 m 2,0,1
 36 366 36 366 57 387 c 128,-1,2
 78 408 78 408 106 408 c 2,3,-1
 421 408 l 1,4,-1
 421 583 l 1,5,-1
 187 583 l 1,6,-1
 187 525 l 1,7,-1
 36 525 l 1,8,-1
 36 630 l 2,9,10
 36 658 36 658 57 679 c 128,-1,11
 78 700 78 700 106 700 c 2,12,-1
 502 700 l 2,13,14
 530 700 530 700 551 679 c 128,-1,15
 572 658 572 658 572 630 c 2,16,-1
 572 362 l 2,17,18
 572 334 572 334 551 313 c 128,-1,19
 530 292 530 292 502 292 c 2,20,-1
 187 292 l 1,21,-1
 187 210 l 1,22,-1
 36 210 l 1,23,-1
 36 338 l 2,0,1
36 152 m 1,24,-1
 187 152 l 1,25,-1
 187 0 l 1,26,-1
 36 0 l 1,27,-1
 36 152 l 1,24,-1
EndSplineSet
EndChar

StartChar: at
Encoding: 64 64 30
Width: 734
Flags: W
LayerCount: 2
Fore
SplineSet
47 64 m 0,0,1
 36 76 36 76 36 91 c 2,2,-1
 36 608 l 2,3,4
 36 624 36 624 47 635.5 c 128,-1,5
 58 647 58 647 74 647 c 2,6,-1
 659 647 l 2,7,8
 676 647 676 647 687.5 636 c 128,-1,9
 699 625 699 625 699 608 c 2,10,-1
 699 242 l 2,11,12
 699 203 699 203 659 203 c 2,13,-1
 256 203 l 2,14,15
 241 203 241 203 228.5 214.5 c 128,-1,16
 216 226 216 226 216 242 c 2,17,-1
 216 341 l 2,18,19
 216 357 216 357 228.5 368 c 128,-1,20
 241 379 241 379 256 379 c 2,21,-1
 400 379 l 1,22,-1
 400 413 l 1,23,-1
 216 413 l 1,24,-1
 216 498 l 1,25,-1
 479 498 l 2,26,27
 494 498 494 498 506.5 485.5 c 128,-1,28
 519 473 519 473 519 458 c 2,29,-1
 519 288 l 1,30,-1
 580 288 l 1,31,-1
 580 562 l 1,32,-1
 153 562 l 1,33,-1
 153 137 l 1,34,-1
 699 137 l 1,35,-1
 699 53 l 1,36,-1
 74 53 l 2,37,38
 58 53 58 53 47 64 c 0,0,1
400 288 m 1,39,-1
 400 315 l 1,40,-1
 335 315 l 1,41,-1
 335 288 l 1,42,-1
 400 288 l 1,39,-1
EndSplineSet
EndChar

StartChar: A
Encoding: 65 65 31
Width: 849
Flags: W
LayerCount: 2
Fore
SplineSet
307 700 m 1,0,-1
 541 700 l 1,1,-1
 832 0 l 1,2,-1
 366 0 l 1,3,-1
 366 152 l 1,4,-1
 536 152 l 1,5,-1
 424 420 l 1,6,-1
 249 0 l 1,7,-1
 17 0 l 1,8,-1
 307 700 l 1,0,-1
EndSplineSet
EndChar

StartChar: B
Encoding: 66 66 32
Width: 656
Flags: W
LayerCount: 2
Fore
SplineSet
36 700 m 1,0,-1
 550 700 l 2,1,2
 577 700 577 700 598.5 679 c 128,-1,3
 620 658 620 658 620 630 c 2,4,-1
 620 420 l 2,5,6
 620 392 620 392 599 371 c 128,-1,7
 578 350 578 350 552 350 c 1,8,9
 576 347 576 347 598 332 c 128,-1,10
 620 317 620 317 620 292 c 2,11,-1
 620 70 l 2,12,13
 620 41 620 41 598.5 20.5 c 128,-1,14
 577 0 577 0 550 0 c 2,15,-1
 36 0 l 1,16,-1
 36 700 l 1,0,-1
410 408 m 1,17,-1
 410 548 l 1,18,-1
 246 548 l 1,19,-1
 246 408 l 1,20,-1
 410 408 l 1,17,-1
410 152 m 1,21,-1
 410 292 l 1,22,-1
 246 292 l 1,23,-1
 246 152 l 1,24,-1
 410 152 l 1,21,-1
EndSplineSet
EndChar

StartChar: C
Encoding: 67 67 33
Width: 649
Flags: W
LayerCount: 2
Fore
SplineSet
36 630 m 2,0,1
 36 658 36 658 57.5 679 c 128,-1,2
 79 700 79 700 106 700 c 2,3,-1
 620 700 l 1,4,-1
 550 548 l 1,5,-1
 246 548 l 1,6,-1
 246 152 l 1,7,-1
 620 152 l 1,8,-1
 550 0 l 1,9,-1
 106 0 l 2,10,11
 79 0 79 0 57.5 20.5 c 128,-1,12
 36 41 36 41 36 70 c 2,13,-1
 36 630 l 2,0,1
EndSplineSet
EndChar

StartChar: D
Encoding: 68 68 34
Width: 656
Flags: W
LayerCount: 2
Fore
SplineSet
36 700 m 1,0,-1
 550 700 l 2,1,2
 577 700 577 700 598.5 679 c 128,-1,3
 620 658 620 658 620 630 c 2,4,-1
 620 70 l 2,5,6
 620 41 620 41 598.5 20.5 c 128,-1,7
 577 0 577 0 550 0 c 2,8,-1
 36 0 l 1,9,-1
 36 700 l 1,0,-1
410 152 m 1,10,-1
 410 548 l 1,11,-1
 246 548 l 1,12,-1
 246 152 l 1,13,-1
 410 152 l 1,10,-1
EndSplineSet
EndChar

StartChar: E
Encoding: 69 69 35
Width: 649
Flags: W
LayerCount: 2
Fore
SplineSet
36 700 m 1,0,-1
 620 700 l 1,1,-1
 550 548 l 1,2,-1
 246 548 l 1,3,-1
 246 408 l 1,4,-1
 550 408 l 1,5,-1
 550 292 l 1,6,-1
 246 292 l 1,7,-1
 246 152 l 1,8,-1
 620 152 l 1,9,-1
 550 0 l 1,10,-1
 36 0 l 1,11,-1
 36 700 l 1,0,-1
EndSplineSet
EndChar

StartChar: F
Encoding: 70 70 36
Width: 628
Flags: W
LayerCount: 2
Fore
SplineSet
36 700 m 1,0,-1
 620 700 l 1,1,-1
 550 548 l 1,2,-1
 246 548 l 1,3,-1
 246 408 l 1,4,-1
 550 408 l 1,5,-1
 550 292 l 1,6,-1
 246 292 l 1,7,-1
 246 0 l 1,8,-1
 36 0 l 1,9,-1
 36 700 l 1,0,-1
EndSplineSet
EndChar

StartChar: G
Encoding: 71 71 37
Width: 655
Flags: W
LayerCount: 2
Fore
SplineSet
36 630 m 2,0,1
 36 658 36 658 57.5 679 c 128,-1,2
 79 700 79 700 106 700 c 2,3,-1
 620 700 l 1,4,-1
 550 548 l 1,5,-1
 246 548 l 1,6,-1
 246 152 l 1,7,-1
 410 152 l 1,8,-1
 410 292 l 1,9,-1
 328 292 l 1,10,-1
 328 408 l 1,11,-1
 620 408 l 1,12,-1
 620 0 l 1,13,-1
 106 0 l 2,14,15
 79 0 79 0 57.5 20.5 c 128,-1,16
 36 41 36 41 36 70 c 2,17,-1
 36 630 l 2,0,1
EndSplineSet
EndChar

StartChar: H
Encoding: 72 72 38
Width: 656
Flags: W
LayerCount: 2
Fore
SplineSet
36 700 m 1,0,-1
 246 700 l 1,1,-1
 246 408 l 1,2,-1
 410 408 l 1,3,-1
 410 700 l 1,4,-1
 620 700 l 1,5,-1
 620 0 l 1,6,-1
 410 0 l 1,7,-1
 410 292 l 1,8,-1
 246 292 l 1,9,-1
 246 0 l 1,10,-1
 36 0 l 1,11,-1
 36 700 l 1,0,-1
EndSplineSet
EndChar

StartChar: I
Encoding: 73 73 39
Width: 283
Flags: W
LayerCount: 2
Fore
SplineSet
36 700 m 1,0,-1
 246 700 l 1,1,-1
 246 0 l 1,2,-1
 36 0 l 1,3,-1
 36 700 l 1,0,-1
EndSplineSet
EndChar

StartChar: J
Encoding: 74 74 40
Width: 398
Flags: W
LayerCount: 2
Fore
SplineSet
11 152 m 1,0,-1
 151 152 l 1,1,-1
 151 700 l 1,2,-1
 361 700 l 1,3,-1
 361 70 l 2,4,5
 361 42 361 42 340 21 c 128,-1,6
 319 0 319 0 291 0 c 2,7,-1
 81 0 l 1,8,-1
 11 152 l 1,0,-1
EndSplineSet
EndChar

StartChar: K
Encoding: 75 75 41
Width: 650
Flags: W
LayerCount: 2
Fore
SplineSet
36 700 m 1,0,-1
 246 700 l 1,1,-1
 246 460 l 1,2,-1
 375 700 l 1,3,-1
 620 700 l 1,4,-1
 413 350 l 1,5,-1
 620 0 l 1,6,-1
 375 0 l 1,7,-1
 246 240 l 1,8,-1
 246 0 l 1,9,-1
 36 0 l 1,10,-1
 36 700 l 1,0,-1
EndSplineSet
EndChar

StartChar: L
Encoding: 76 76 42
Width: 626
Flags: W
LayerCount: 2
Fore
SplineSet
36 700 m 1,0,-1
 246 700 l 1,1,-1
 246 152 l 1,2,-1
 550 152 l 1,3,-1
 620 0 l 1,4,-1
 36 0 l 1,5,-1
 36 700 l 1,0,-1
EndSplineSet
EndChar

StartChar: M
Encoding: 77 77 43
Width: 1028
Flags: W
LayerCount: 2
Fore
SplineSet
36 700 m 1,0,-1
 922 700 l 2,1,2
 950 700 950 700 971 679 c 128,-1,3
 992 658 992 658 992 630 c 2,4,-1
 992 0 l 1,5,-1
 782 0 l 1,6,-1
 782 548 l 1,7,-1
 619 548 l 1,8,-1
 619 0 l 1,9,-1
 409 0 l 1,10,-1
 409 548 l 1,11,-1
 246 548 l 1,12,-1
 246 0 l 1,13,-1
 36 0 l 1,14,-1
 36 700 l 1,0,-1
EndSplineSet
EndChar

StartChar: N
Encoding: 78 78 44
Width: 656
Flags: W
LayerCount: 2
Fore
SplineSet
36 700 m 1,0,-1
 550 700 l 2,1,2
 577 700 577 700 598.5 679 c 128,-1,3
 620 658 620 658 620 630 c 2,4,-1
 620 0 l 1,5,-1
 410 0 l 1,6,-1
 410 548 l 1,7,-1
 246 548 l 1,8,-1
 246 0 l 1,9,-1
 36 0 l 1,10,-1
 36 700 l 1,0,-1
EndSplineSet
EndChar

StartChar: O
Encoding: 79 79 45
Width: 656
Flags: W
LayerCount: 2
Fore
SplineSet
36 630 m 2,0,1
 36 658 36 658 57.5 679 c 128,-1,2
 79 700 79 700 106 700 c 2,3,-1
 550 700 l 2,4,5
 577 700 577 700 598.5 679 c 128,-1,6
 620 658 620 658 620 630 c 2,7,-1
 620 70 l 2,8,9
 620 41 620 41 598.5 20.5 c 128,-1,10
 577 0 577 0 550 0 c 2,11,-1
 106 0 l 2,12,13
 79 0 79 0 57.5 20.5 c 128,-1,14
 36 41 36 41 36 70 c 2,15,-1
 36 630 l 2,0,1
410 152 m 1,16,-1
 410 548 l 1,17,-1
 246 548 l 1,18,-1
 246 152 l 1,19,-1
 410 152 l 1,16,-1
EndSplineSet
EndChar

StartChar: P
Encoding: 80 80 46
Width: 635
Flags: W
LayerCount: 2
Fore
SplineSet
36 700 m 1,0,-1
 550 700 l 2,1,2
 577 700 577 700 598.5 679 c 128,-1,3
 620 658 620 658 620 630 c 2,4,-1
 620 315 l 2,5,6
 620 286 620 286 598.5 265.5 c 128,-1,7
 577 245 577 245 550 245 c 2,8,-1
 246 245 l 1,9,-1
 246 0 l 1,10,-1
 36 0 l 1,11,-1
 36 700 l 1,0,-1
410 362 m 1,12,-1
 410 548 l 1,13,-1
 246 548 l 1,14,-1
 246 362 l 1,15,-1
 410 362 l 1,12,-1
EndSplineSet
EndChar

StartChar: Q
Encoding: 81 81 47
Width: 717
Flags: W
LayerCount: 2
Fore
SplineSet
36 630 m 2,0,1
 36 658 36 658 57.5 679 c 128,-1,2
 79 700 79 700 106 700 c 2,3,-1
 550 700 l 2,4,5
 577 700 577 700 598.5 679 c 128,-1,6
 620 658 620 658 620 630 c 2,7,-1
 620 152 l 1,8,-1
 690 0 l 1,9,-1
 106 0 l 2,10,11
 79 0 79 0 57.5 20.5 c 128,-1,12
 36 41 36 41 36 70 c 2,13,-1
 36 630 l 2,0,1
410 152 m 1,14,-1
 410 548 l 1,15,-1
 246 548 l 1,16,-1
 246 152 l 1,17,-1
 410 152 l 1,14,-1
EndSplineSet
EndChar

StartChar: R
Encoding: 82 82 48
Width: 673
Flags: W
LayerCount: 2
Fore
SplineSet
36 700 m 1,0,-1
 549 700 l 2,1,2
 577 700 577 700 598 679 c 128,-1,3
 619 658 619 658 619 630 c 2,4,-1
 619 362 l 2,5,6
 619 334 619 334 598 313 c 128,-1,7
 577 292 577 292 549 292 c 2,8,-1
 508 292 l 1,9,-1
 642 0 l 1,10,-1
 456 0 l 1,11,-1
 269 408 l 1,12,-1
 409 408 l 1,13,-1
 409 548 l 1,14,-1
 246 548 l 1,15,-1
 246 0 l 1,16,-1
 36 0 l 1,17,-1
 36 700 l 1,0,-1
EndSplineSet
EndChar

StartChar: S
Encoding: 83 83 49
Width: 653
Flags: W
LayerCount: 2
Fore
SplineSet
33 152 m 1,0,-1
 407 152 l 1,1,-1
 407 292 l 1,2,-1
 103 292 l 2,3,4
 76 292 76 292 54.5 312.5 c 128,-1,5
 33 333 33 333 33 362 c 2,6,-1
 33 630 l 2,7,8
 33 658 33 658 54.5 679 c 128,-1,9
 76 700 76 700 103 700 c 2,10,-1
 617 700 l 1,11,-1
 617 548 l 1,12,-1
 243 548 l 1,13,-1
 243 408 l 1,14,-1
 547 408 l 2,15,16
 574 408 574 408 595.5 387 c 128,-1,17
 617 366 617 366 617 338 c 2,18,-1
 617 70 l 2,19,20
 617 41 617 41 595.5 20.5 c 128,-1,21
 574 0 574 0 547 0 c 2,22,-1
 103 0 l 1,23,-1
 33 152 l 1,0,-1
EndSplineSet
EndChar

StartChar: T
Encoding: 84 84 50
Width: 622
Flags: W
LayerCount: 2
Fore
SplineSet
206 548 m 1,0,-1
 19 548 l 1,1,-1
 19 700 l 1,2,-1
 603 700 l 1,3,-1
 603 548 l 1,4,-1
 416 548 l 1,5,-1
 416 0 l 1,6,-1
 206 0 l 1,7,-1
 206 548 l 1,0,-1
EndSplineSet
EndChar

StartChar: U
Encoding: 85 85 51
Width: 656
Flags: W
LayerCount: 2
Fore
SplineSet
36 700 m 1,0,-1
 246 700 l 1,1,-1
 246 152 l 1,2,-1
 410 152 l 1,3,-1
 410 700 l 1,4,-1
 620 700 l 1,5,-1
 620 0 l 1,6,-1
 106 0 l 2,7,8
 79 0 79 0 57.5 20.5 c 128,-1,9
 36 41 36 41 36 70 c 2,10,-1
 36 700 l 1,0,-1
EndSplineSet
EndChar

StartChar: V
Encoding: 86 86 52
Width: 849
Flags: W
LayerCount: 2
Fore
SplineSet
17 700 m 1,0,-1
 249 700 l 1,1,-1
 424 280 l 1,2,-1
 599 700 l 1,3,-1
 832 700 l 1,4,-1
 541 0 l 1,5,-1
 307 0 l 1,6,-1
 17 700 l 1,0,-1
EndSplineSet
EndChar

StartChar: W
Encoding: 87 87 53
Width: 1028
Flags: W
LayerCount: 2
Fore
SplineSet
36 700 m 1,0,-1
 246 700 l 1,1,-1
 246 152 l 1,2,-1
 409 152 l 1,3,-1
 409 700 l 1,4,-1
 619 700 l 1,5,-1
 619 152 l 1,6,-1
 782 152 l 1,7,-1
 782 700 l 1,8,-1
 992 700 l 1,9,-1
 992 70 l 2,10,11
 992 42 992 42 971 21 c 128,-1,12
 950 0 950 0 922 0 c 2,13,-1
 106 0 l 2,14,15
 78 0 78 0 57 21 c 128,-1,16
 36 42 36 42 36 70 c 2,17,-1
 36 700 l 1,0,-1
EndSplineSet
EndChar

StartChar: X
Encoding: 88 88 54
Width: 760
Flags: W
LayerCount: 2
Fore
SplineSet
252 350 m 1,0,-1
 30 700 l 1,1,-1
 287 700 l 1,2,-1
 380 553 l 1,3,-1
 473 700 l 1,4,-1
 730 700 l 1,5,-1
 508 350 l 1,6,-1
 730 0 l 1,7,-1
 473 0 l 1,8,-1
 380 147 l 1,9,-1
 287 0 l 1,10,-1
 30 0 l 1,11,-1
 252 350 l 1,0,-1
EndSplineSet
EndChar

StartChar: Y
Encoding: 89 89 55
Width: 729
Flags: W
LayerCount: 2
Fore
SplineSet
259 315 m 1,0,-1
 15 700 l 1,1,-1
 271 700 l 1,2,-1
 364 553 l 1,3,-1
 457 700 l 1,4,-1
 714 700 l 1,5,-1
 469 315 l 1,6,-1
 469 0 l 1,7,-1
 259 0 l 1,8,-1
 259 315 l 1,0,-1
EndSplineSet
EndChar

StartChar: Z
Encoding: 90 90 56
Width: 643
Flags: W
LayerCount: 2
Fore
SplineSet
36 152 m 1,0,-1
 351 548 l 1,1,-1
 36 548 l 1,2,-1
 36 700 l 1,3,-1
 620 700 l 1,4,-1
 620 548 l 1,5,-1
 305 152 l 1,6,-1
 620 152 l 1,7,-1
 620 0 l 1,8,-1
 36 0 l 1,9,-1
 36 152 l 1,0,-1
EndSplineSet
EndChar

StartChar: bracketleft
Encoding: 91 91 57
Width: 316
Flags: W
LayerCount: 2
Fore
SplineSet
36 758 m 2,0,1
 36 781 36 781 53.5 799 c 128,-1,2
 71 817 71 817 94 817 c 2,3,-1
 304 817 l 1,4,-1
 304 758 l 1,5,-1
 187 758 l 1,6,-1
 187 -57 l 1,7,-1
 304 -57 l 1,8,-1
 304 -116 l 1,9,-1
 94 -116 l 2,10,11
 71 -116 71 -116 53.5 -98 c 128,-1,12
 36 -80 36 -80 36 -57 c 2,13,-1
 36 758 l 2,0,1
EndSplineSet
EndChar

StartChar: backslash
Encoding: 92 92 58
Width: 528
Flags: W
LayerCount: 2
Fore
SplineSet
6 817 m 1,0,-1
 181 817 l 1,1,-1
 521 -116 l 1,2,-1
 346 -116 l 1,3,-1
 6 817 l 1,0,-1
EndSplineSet
EndChar

StartChar: bracketright
Encoding: 93 93 59
Width: 317
Flags: W
LayerCount: 2
Fore
SplineSet
129 -57 m 1,0,-1
 129 758 l 1,1,-1
 12 758 l 1,2,-1
 12 817 l 1,3,-1
 222 817 l 2,4,5
 245 817 245 817 262.5 799 c 128,-1,6
 280 781 280 781 280 758 c 2,7,-1
 280 -57 l 2,8,9
 280 -80 280 -80 262.5 -98 c 128,-1,10
 245 -116 245 -116 222 -116 c 2,11,-1
 12 -116 l 1,12,-1
 12 -57 l 1,13,-1
 129 -57 l 1,0,-1
EndSplineSet
EndChar

StartChar: asciicircum
Encoding: 94 94 60
Width: 616
Flags: W
LayerCount: 2
Fore
SplineSet
16 220 m 1,0,-1
 250 700 l 1,1,-1
 366 700 l 1,2,-1
 600 220 l 1,3,-1
 496 170 l 1,4,-1
 308 556 l 1,5,-1
 120 170 l 1,6,-1
 16 220 l 1,0,-1
EndSplineSet
EndChar

StartChar: underscore
Encoding: 95 95 61
Width: 420
Flags: W
LayerCount: 2
Fore
SplineSet
430 -60 m 1,0,-1
 430 -132 l 1,1,-1
 -10 -132 l 1,2,-1
 -10 -60 l 1,3,-1
 430 -60 l 1,0,-1
EndSplineSet
EndChar

StartChar: grave
Encoding: 96 96 62
Width: 308
Flags: W
LayerCount: 2
Fore
SplineSet
19 727 m 1,0,-1
 299 639 l 1,1,-1
 299 585 l 1,2,-1
 19 631 l 1,3,-1
 19 727 l 1,0,-1
EndSplineSet
EndChar

StartChar: a
Encoding: 97 97 63
Width: 608
Flags: W
LayerCount: 2
Fore
SplineSet
36 245 m 2,0,1
 36 272 36 272 57 293 c 128,-1,2
 78 314 78 314 106 314 c 2,3,-1
 362 314 l 1,4,-1
 362 373 l 1,5,-1
 36 373 l 1,6,-1
 36 525 l 1,7,-1
 502 525 l 2,8,9
 530 525 530 525 551 504 c 128,-1,10
 572 483 572 483 572 455 c 2,11,-1
 572 0 l 1,12,-1
 106 0 l 2,13,14
 78 0 78 0 57 21 c 128,-1,15
 36 42 36 42 36 70 c 2,16,-1
 36 245 l 2,0,1
362 151 m 1,17,-1
 362 198 l 1,18,-1
 246 198 l 1,19,-1
 246 151 l 1,20,-1
 362 151 l 1,17,-1
EndSplineSet
EndChar

StartChar: b
Encoding: 98 98 64
Width: 593
Flags: W
LayerCount: 2
Fore
SplineSet
36 700 m 1,0,-1
 246 700 l 1,1,-1
 246 525 l 1,2,-1
 502 525 l 2,3,4
 530 525 530 525 551 504 c 128,-1,5
 572 483 572 483 572 455 c 2,6,-1
 572 70 l 2,7,8
 572 42 572 42 551 21 c 128,-1,9
 530 0 530 0 502 0 c 2,10,-1
 36 0 l 1,11,-1
 36 700 l 1,0,-1
362 152 m 1,12,-1
 362 373 l 1,13,-1
 246 373 l 1,14,-1
 246 152 l 1,15,-1
 362 152 l 1,12,-1
EndSplineSet
EndChar

StartChar: c
Encoding: 99 99 65
Width: 601
Flags: W
LayerCount: 2
Fore
SplineSet
36 455 m 2,0,1
 36 483 36 483 57 504 c 128,-1,2
 78 525 78 525 106 525 c 2,3,-1
 572 525 l 1,4,-1
 502 373 l 1,5,-1
 246 373 l 1,6,-1
 246 151 l 1,7,-1
 572 151 l 1,8,-1
 502 0 l 1,9,-1
 106 0 l 2,10,11
 78 0 78 0 57 21 c 128,-1,12
 36 42 36 42 36 70 c 2,13,-1
 36 455 l 2,0,1
EndSplineSet
EndChar

StartChar: d
Encoding: 100 100 66
Width: 592
Flags: W
LayerCount: 2
Fore
SplineSet
20 455 m 2,0,1
 20 483 20 483 41 504 c 128,-1,2
 62 525 62 525 90 525 c 2,3,-1
 346 525 l 1,4,-1
 346 700 l 1,5,-1
 556 700 l 1,6,-1
 556 0 l 1,7,-1
 90 0 l 2,8,9
 62 0 62 0 41 21 c 128,-1,10
 20 42 20 42 20 70 c 2,11,-1
 20 455 l 2,0,1
346 152 m 1,12,-1
 346 373 l 1,13,-1
 230 373 l 1,14,-1
 230 152 l 1,15,-1
 346 152 l 1,12,-1
EndSplineSet
EndChar

StartChar: e
Encoding: 101 101 67
Width: 605
Flags: W
LayerCount: 2
Fore
SplineSet
36 455 m 2,0,1
 36 483 36 483 57 504 c 128,-1,2
 78 525 78 525 106 525 c 2,3,-1
 502 525 l 2,4,5
 530 525 530 525 551 504 c 128,-1,6
 572 483 572 483 572 455 c 2,7,-1
 572 268 l 2,8,9
 572 240 572 240 551 219 c 128,-1,10
 530 198 530 198 502 198 c 2,11,-1
 246 198 l 1,12,-1
 246 151 l 1,13,-1
 572 151 l 1,14,-1
 502 0 l 1,15,-1
 106 0 l 2,16,17
 78 0 78 0 57 21 c 128,-1,18
 36 42 36 42 36 70 c 2,19,-1
 36 455 l 2,0,1
362 314 m 1,20,-1
 362 373 l 1,21,-1
 246 373 l 1,22,-1
 246 314 l 1,23,-1
 362 314 l 1,20,-1
EndSplineSet
EndChar

StartChar: f
Encoding: 102 102 68
Width: 490
Flags: W
LayerCount: 2
Fore
SplineSet
81 292 m 1,0,-1
 23 292 l 1,1,-1
 23 408 l 1,2,-1
 81 408 l 1,3,-1
 81 630 l 2,4,5
 81 658 81 658 102 679 c 128,-1,6
 123 700 123 700 151 700 c 2,7,-1
 477 700 l 1,8,-1
 407 548 l 1,9,-1
 291 548 l 1,10,-1
 291 408 l 1,11,-1
 407 408 l 1,12,-1
 407 292 l 1,13,-1
 291 292 l 1,14,-1
 291 0 l 1,15,-1
 81 0 l 1,16,-1
 81 292 l 1,0,-1
EndSplineSet
EndChar

StartChar: g
Encoding: 103 103 69
Width: 605
Flags: W
LayerCount: 2
Fore
SplineSet
33 455 m 2,0,1
 33 483 33 483 54 504 c 128,-1,2
 75 525 75 525 103 525 c 2,3,-1
 569 525 l 1,4,-1
 569 -162 l 2,5,6
 569 -190 569 -190 548 -211 c 128,-1,7
 527 -232 527 -232 499 -232 c 2,8,-1
 103 -232 l 1,9,-1
 33 -80 l 1,10,-1
 359 -80 l 1,11,-1
 359 0 l 1,12,-1
 103 0 l 2,13,14
 75 0 75 0 54 21 c 128,-1,15
 33 42 33 42 33 70 c 2,16,-1
 33 455 l 2,0,1
359 152 m 1,17,-1
 359 373 l 1,18,-1
 243 373 l 1,19,-1
 243 152 l 1,20,-1
 359 152 l 1,17,-1
EndSplineSet
EndChar

StartChar: h
Encoding: 104 104 70
Width: 593
Flags: W
LayerCount: 2
Fore
SplineSet
36 700 m 1,0,-1
 246 700 l 1,1,-1
 246 525 l 1,2,-1
 502 525 l 2,3,4
 530 525 530 525 551 504 c 128,-1,5
 572 483 572 483 572 455 c 2,6,-1
 572 0 l 1,7,-1
 362 0 l 1,8,-1
 362 408 l 1,9,-1
 246 408 l 1,10,-1
 246 0 l 1,11,-1
 36 0 l 1,12,-1
 36 700 l 1,0,-1
EndSplineSet
EndChar

StartChar: i
Encoding: 105 105 71
Width: 283
Flags: W
LayerCount: 2
Fore
SplineSet
36 700 m 1,0,-1
 246 700 l 1,1,-1
 246 583 l 1,2,-1
 36 583 l 1,3,-1
 36 700 l 1,0,-1
36 525 m 1,4,-1
 246 525 l 1,5,-1
 246 0 l 1,6,-1
 36 0 l 1,7,-1
 36 525 l 1,4,-1
EndSplineSet
EndChar

StartChar: j
Encoding: 106 106 72
Width: 392
Flags: W
LayerCount: 2
Fore
SplineSet
147 700 m 1,0,-1
 357 700 l 1,1,-1
 357 583 l 1,2,-1
 147 583 l 1,3,-1
 147 700 l 1,0,-1
147 -80 m 1,4,-1
 147 525 l 1,5,-1
 357 525 l 1,6,-1
 357 -162 l 2,7,8
 357 -189 357 -189 336 -210.5 c 128,-1,9
 315 -232 315 -232 287 -232 c 2,10,-1
 78 -232 l 1,11,-1
 8 -80 l 1,12,-1
 147 -80 l 1,4,-1
EndSplineSet
EndChar

StartChar: k
Encoding: 107 107 73
Width: 630
Flags: W
LayerCount: 2
Fore
SplineSet
36 700 m 1,0,-1
 246 700 l 1,1,-1
 246 331 l 1,2,-1
 369 525 l 1,3,-1
 620 525 l 1,4,-1
 434 263 l 1,5,-1
 620 0 l 1,6,-1
 369 0 l 1,7,-1
 246 194 l 1,8,-1
 246 0 l 1,9,-1
 36 0 l 1,10,-1
 36 700 l 1,0,-1
EndSplineSet
EndChar

StartChar: l
Encoding: 108 108 74
Width: 283
Flags: W
LayerCount: 2
Fore
SplineSet
36 700 m 1,0,-1
 246 700 l 1,1,-1
 246 0 l 1,2,-1
 36 0 l 1,3,-1
 36 700 l 1,0,-1
EndSplineSet
EndChar

StartChar: m
Encoding: 109 109 75
Width: 936
Flags: W
LayerCount: 2
Fore
SplineSet
36 525 m 1,0,-1
 830 525 l 2,1,2
 857 525 857 525 878.5 504 c 128,-1,3
 900 483 900 483 900 455 c 2,4,-1
 900 0 l 1,5,-1
 690 0 l 1,6,-1
 690 373 l 1,7,-1
 573 373 l 1,8,-1
 573 0 l 1,9,-1
 363 0 l 1,10,-1
 363 373 l 1,11,-1
 246 373 l 1,12,-1
 246 0 l 1,13,-1
 36 0 l 1,14,-1
 36 525 l 1,0,-1
EndSplineSet
EndChar

StartChar: n
Encoding: 110 110 76
Width: 608
Flags: W
LayerCount: 2
Fore
SplineSet
36 525 m 1,0,-1
 502 525 l 2,1,2
 530 525 530 525 551 504 c 128,-1,3
 572 483 572 483 572 455 c 2,4,-1
 572 0 l 1,5,-1
 362 0 l 1,6,-1
 362 373 l 1,7,-1
 246 373 l 1,8,-1
 246 0 l 1,9,-1
 36 0 l 1,10,-1
 36 525 l 1,0,-1
EndSplineSet
EndChar

StartChar: o
Encoding: 111 111 77
Width: 608
Flags: W
LayerCount: 2
Fore
SplineSet
36 455 m 2,0,1
 36 483 36 483 57 504 c 128,-1,2
 78 525 78 525 106 525 c 2,3,-1
 502 525 l 2,4,5
 530 525 530 525 551 504 c 128,-1,6
 572 483 572 483 572 455 c 2,7,-1
 572 70 l 2,8,9
 572 42 572 42 551 21 c 128,-1,10
 530 0 530 0 502 0 c 2,11,-1
 106 0 l 2,12,13
 78 0 78 0 57 21 c 128,-1,14
 36 42 36 42 36 70 c 2,15,-1
 36 455 l 2,0,1
362 151 m 1,16,-1
 362 373 l 1,17,-1
 246 373 l 1,18,-1
 246 151 l 1,19,-1
 362 151 l 1,16,-1
EndSplineSet
EndChar

StartChar: p
Encoding: 112 112 78
Width: 590
Flags: W
LayerCount: 2
Fore
SplineSet
36 525 m 1,0,-1
 502 525 l 2,1,2
 530 525 530 525 551 504 c 128,-1,3
 572 483 572 483 572 455 c 2,4,-1
 572 70 l 2,5,6
 572 42 572 42 551 21 c 128,-1,7
 530 0 530 0 502 0 c 2,8,-1
 246 0 l 1,9,-1
 246 -233 l 1,10,-1
 36 -233 l 1,11,-1
 36 525 l 1,0,-1
362 152 m 1,12,-1
 362 373 l 1,13,-1
 246 373 l 1,14,-1
 246 152 l 1,15,-1
 362 152 l 1,12,-1
EndSplineSet
EndChar

StartChar: q
Encoding: 113 113 79
Width: 590
Flags: W
LayerCount: 2
Fore
SplineSet
18 455 m 2,0,1
 18 483 18 483 39 504 c 128,-1,2
 60 525 60 525 88 525 c 2,3,-1
 554 525 l 1,4,-1
 554 -233 l 1,5,-1
 344 -233 l 1,6,-1
 344 0 l 1,7,-1
 88 0 l 2,8,9
 60 0 60 0 39 21 c 128,-1,10
 18 42 18 42 18 70 c 2,11,-1
 18 455 l 2,0,1
344 152 m 1,12,-1
 344 373 l 1,13,-1
 228 373 l 1,14,-1
 228 152 l 1,15,-1
 344 152 l 1,12,-1
EndSplineSet
EndChar

StartChar: r
Encoding: 114 114 80
Width: 522
Flags: W
LayerCount: 2
Fore
SplineSet
36 455 m 2,0,1
 36 483 36 483 57 504 c 128,-1,2
 78 525 78 525 106 525 c 2,3,-1
 514 525 l 1,4,-1
 444 373 l 1,5,-1
 246 373 l 1,6,-1
 246 0 l 1,7,-1
 36 0 l 1,8,-1
 36 455 l 2,0,1
EndSplineSet
EndChar

StartChar: s
Encoding: 115 115 81
Width: 604
Flags: W
LayerCount: 2
Fore
SplineSet
32 151 m 1,0,-1
 358 151 l 1,1,-1
 358 198 l 1,2,-1
 102 198 l 2,3,4
 74 198 74 198 53 219 c 128,-1,5
 32 240 32 240 32 268 c 2,6,-1
 32 455 l 2,7,8
 32 483 32 483 53 504 c 128,-1,9
 74 525 74 525 102 525 c 2,10,-1
 568 525 l 1,11,-1
 568 373 l 1,12,-1
 242 373 l 1,13,-1
 242 314 l 1,14,-1
 498 314 l 2,15,16
 526 314 526 314 547 293 c 128,-1,17
 568 272 568 272 568 245 c 2,18,-1
 568 70 l 2,19,20
 568 42 568 42 547 21 c 128,-1,21
 526 0 526 0 498 0 c 2,22,-1
 102 0 l 1,23,-1
 32 151 l 1,0,-1
EndSplineSet
EndChar

StartChar: t
Encoding: 116 116 82
Width: 491
Flags: W
LayerCount: 2
Fore
SplineSet
81 408 m 1,0,-1
 23 408 l 1,1,-1
 23 525 l 1,2,-1
 81 525 l 1,3,-1
 81 700 l 1,4,-1
 291 700 l 1,5,-1
 291 525 l 1,6,-1
 407 525 l 1,7,-1
 407 408 l 1,8,-1
 291 408 l 1,9,-1
 291 152 l 1,10,-1
 407 152 l 1,11,-1
 477 0 l 1,12,-1
 151 0 l 2,13,14
 123 0 123 0 102 21 c 128,-1,15
 81 42 81 42 81 70 c 2,16,-1
 81 408 l 1,0,-1
EndSplineSet
EndChar

StartChar: u
Encoding: 117 117 83
Width: 608
Flags: W
LayerCount: 2
Fore
SplineSet
36 525 m 1,0,-1
 246 525 l 1,1,-1
 246 151 l 1,2,-1
 362 151 l 1,3,-1
 362 525 l 1,4,-1
 572 525 l 1,5,-1
 572 0 l 1,6,-1
 106 0 l 2,7,8
 78 0 78 0 57 21 c 128,-1,9
 36 42 36 42 36 70 c 2,10,-1
 36 525 l 1,0,-1
EndSplineSet
EndChar

StartChar: v
Encoding: 118 118 84
Width: 706
Flags: W
LayerCount: 2
Fore
SplineSet
18 525 m 1,0,-1
 249 525 l 1,1,-1
 352 279 l 1,2,-1
 453 525 l 1,3,-1
 688 525 l 1,4,-1
 468 0 l 1,5,-1
 235 0 l 1,6,-1
 18 525 l 1,0,-1
EndSplineSet
EndChar

StartChar: w
Encoding: 119 119 85
Width: 936
Flags: W
LayerCount: 2
Fore
SplineSet
36 525 m 1,0,-1
 246 525 l 1,1,-1
 246 151 l 1,2,-1
 363 151 l 1,3,-1
 363 525 l 1,4,-1
 573 525 l 1,5,-1
 573 151 l 1,6,-1
 690 151 l 1,7,-1
 690 525 l 1,8,-1
 900 525 l 1,9,-1
 900 70 l 2,10,11
 900 41 900 41 878.5 20.5 c 128,-1,12
 857 0 857 0 830 0 c 2,13,-1
 106 0 l 2,14,15
 79 0 79 0 57.5 20.5 c 128,-1,16
 36 41 36 41 36 70 c 2,17,-1
 36 525 l 1,0,-1
EndSplineSet
EndChar

StartChar: x
Encoding: 120 120 86
Width: 644
Flags: W
LayerCount: 2
Fore
SplineSet
205 262 m 1,0,-1
 30 525 l 1,1,-1
 264 525 l 1,2,-1
 322 437 l 1,3,-1
 380 525 l 1,4,-1
 614 525 l 1,5,-1
 439 262 l 1,6,-1
 614 0 l 1,7,-1
 380 0 l 1,8,-1
 322 87 l 1,9,-1
 264 0 l 1,10,-1
 30 0 l 1,11,-1
 205 262 l 1,0,-1
EndSplineSet
EndChar

StartChar: y
Encoding: 121 121 87
Width: 606
Flags: W
LayerCount: 2
Fore
SplineSet
34 525 m 1,0,-1
 244 525 l 1,1,-1
 244 152 l 1,2,-1
 360 152 l 1,3,-1
 360 525 l 1,4,-1
 570 525 l 1,5,-1
 570 -163 l 2,6,7
 570 -191 570 -191 549 -212 c 128,-1,8
 528 -233 528 -233 500 -233 c 2,9,-1
 104 -233 l 1,10,-1
 34 -81 l 1,11,-1
 360 -81 l 1,12,-1
 360 0 l 1,13,-1
 104 0 l 2,14,15
 76 0 76 0 55 21 c 128,-1,16
 34 42 34 42 34 70 c 2,17,-1
 34 525 l 1,0,-1
EndSplineSet
EndChar

StartChar: z
Encoding: 122 122 88
Width: 599
Flags: W
LayerCount: 2
Fore
SplineSet
36 151 m 1,0,-1
 281 373 l 1,1,-1
 36 373 l 1,2,-1
 36 525 l 1,3,-1
 572 525 l 1,4,-1
 572 373 l 1,5,-1
 327 151 l 1,6,-1
 572 151 l 1,7,-1
 572 0 l 1,8,-1
 36 0 l 1,9,-1
 36 151 l 1,0,-1
EndSplineSet
EndChar

StartChar: braceleft
Encoding: 123 123 89
Width: 360
Flags: W
LayerCount: 2
Fore
SplineSet
76 262 m 2,0,1
 76 288 76 288 57.5 304.5 c 128,-1,2
 39 321 39 321 18 321 c 1,3,-1
 18 379 l 1,4,5
 39 379 39 379 57.5 396 c 128,-1,6
 76 413 76 413 76 437 c 2,7,-1
 76 758 l 2,8,9
 76 780 76 780 93.5 798.5 c 128,-1,10
 111 817 111 817 134 817 c 2,11,-1
 344 817 l 1,12,-1
 344 758 l 1,13,-1
 228 758 l 1,14,-1
 228 408 l 2,15,16
 228 387 228 387 212.5 369.5 c 128,-1,17
 197 352 197 352 175 350 c 1,18,19
 195 348 195 348 211.5 330.5 c 128,-1,20
 228 313 228 313 228 292 c 2,21,-1
 228 -57 l 1,22,-1
 344 -57 l 1,23,-1
 344 -116 l 1,24,-1
 134 -116 l 2,25,26
 111 -116 111 -116 93.5 -97.5 c 128,-1,27
 76 -79 76 -79 76 -57 c 2,28,-1
 76 262 l 2,0,1
EndSplineSet
EndChar

StartChar: bar
Encoding: 124 124 90
Width: 226
Flags: W
LayerCount: 2
Fore
SplineSet
36 817 m 1,0,-1
 188 817 l 1,1,-1
 188 -116 l 1,2,-1
 36 -116 l 1,3,-1
 36 817 l 1,0,-1
EndSplineSet
EndChar

StartChar: braceright
Encoding: 125 125 91
Width: 360
Flags: W
LayerCount: 2
Fore
SplineSet
132 -57 m 1,0,-1
 132 292 l 2,1,2
 132 313 132 313 148 330.5 c 128,-1,3
 164 348 164 348 184 350 c 1,4,5
 163 352 163 352 147.5 369.5 c 128,-1,6
 132 387 132 387 132 408 c 2,7,-1
 132 758 l 1,8,-1
 16 758 l 1,9,-1
 16 817 l 1,10,-1
 226 817 l 2,11,12
 249 817 249 817 266.5 798.5 c 128,-1,13
 284 780 284 780 284 758 c 2,14,-1
 284 437 l 2,15,16
 284 413 284 413 302 396 c 128,-1,17
 320 379 320 379 342 379 c 1,18,-1
 342 321 l 1,19,20
 321 321 321 321 302.5 304.5 c 128,-1,21
 284 288 284 288 284 262 c 2,22,-1
 284 -57 l 2,23,24
 284 -79 284 -79 266.5 -97.5 c 128,-1,25
 249 -116 249 -116 226 -116 c 2,26,-1
 16 -116 l 1,27,-1
 16 -57 l 1,28,-1
 132 -57 l 1,0,-1
EndSplineSet
EndChar

StartChar: asciitilde
Encoding: 126 126 92
Width: 534
Flags: W
LayerCount: 2
Fore
SplineSet
29 392 m 1,0,1
 58 434 58 434 87 450 c 128,-1,2
 116 466 116 466 145 466 c 0,3,4
 178 466 178 466 210.5 451 c 128,-1,5
 243 436 243 436 275.5 417.5 c 128,-1,6
 308 399 308 399 339.5 384 c 128,-1,7
 371 369 371 369 401 369 c 0,8,9
 428 369 428 369 453.5 386 c 128,-1,10
 479 403 479 403 503 448 c 1,11,-1
 503 313 l 1,12,13
 479 268 479 268 453.5 251 c 128,-1,14
 428 234 428 234 401 234 c 0,15,16
 371 234 371 234 339.5 249 c 128,-1,17
 308 264 308 264 275.5 282.5 c 128,-1,18
 243 301 243 301 210.5 316 c 128,-1,19
 178 331 178 331 145 331 c 0,20,21
 116 331 116 331 87 314.5 c 128,-1,22
 58 298 58 298 29 257 c 1,23,-1
 29 392 l 1,0,1
EndSplineSet
EndChar

StartChar: exclamdown
Encoding: 161 161 93
Width: 226
Flags: W
LayerCount: 2
Fore
SplineSet
36 700 m 1,0,-1
 188 700 l 1,1,-1
 188 548 l 1,2,-1
 36 548 l 1,3,-1
 36 700 l 1,0,-1
36 490 m 1,4,-1
 188 490 l 1,5,-1
 188 0 l 1,6,-1
 36 0 l 1,7,-1
 36 490 l 1,4,-1
EndSplineSet
EndChar

StartChar: cent
Encoding: 162 162 94
Width: 617
Flags: W
LayerCount: 2
Fore
SplineSet
42 137 m 1,0,1
 21 158 21 158 21 187 c 2,2,-1
 21 513 l 2,3,4
 21 541 21 541 42.5 562 c 128,-1,5
 64 583 64 583 91 583 c 2,6,-1
 237 583 l 1,7,-1
 237 700 l 1,8,-1
 389 700 l 1,9,-1
 389 583 l 1,10,-1
 605 583 l 1,11,-1
 535 432 l 1,12,-1
 231 432 l 1,13,-1
 231 268 l 1,14,-1
 605 268 l 1,15,-1
 535 117 l 1,16,-1
 389 117 l 1,17,-1
 389 0 l 1,18,-1
 237 0 l 1,19,-1
 237 117 l 1,20,-1
 91 117 l 2,21,22
 64 117 64 117 42 137 c 1,0,1
EndSplineSet
EndChar

StartChar: sterling
Encoding: 163 163 95
Width: 677
Flags: W
LayerCount: 2
Fore
SplineSet
28 152 m 1,0,-1
 95 152 l 1,1,2
 111 186 111 186 123.5 222 c 128,-1,3
 136 258 136 258 141 300 c 1,4,-1
 74 300 l 1,5,-1
 74 400 l 1,6,-1
 136 400 l 1,7,8
 131 419 131 419 124 442.5 c 128,-1,9
 117 466 117 466 111 490.5 c 128,-1,10
 105 515 105 515 100.5 540 c 128,-1,11
 96 565 96 565 96 588 c 0,12,13
 96 612 96 612 101.5 632.5 c 128,-1,14
 107 653 107 653 121 668 c 128,-1,15
 135 683 135 683 157.5 691.5 c 128,-1,16
 180 700 180 700 215 700 c 2,17,-1
 645 700 l 1,18,-1
 575 548 l 1,19,-1
 335 548 l 2,20,21
 309 548 309 548 309 531 c 0,22,23
 309 525 309 525 312 519 c 0,24,25
 340 459 340 459 348 400 c 1,26,-1
 524 400 l 1,27,-1
 524 300 l 1,28,-1
 349 300 l 1,29,30
 339 226 339 226 305 152 c 1,31,-1
 632 152 l 1,32,-1
 632 0 l 1,33,-1
 28 0 l 1,34,-1
 28 152 l 1,0,-1
EndSplineSet
EndChar

StartChar: currency
Encoding: 164 164 96
Width: 756
Flags: W
LayerCount: 2
Fore
SplineSet
118 203 m 1,0,1
 110 233 110 233 110 270 c 2,2,-1
 110 430 l 2,3,4
 110 467 110 467 118 497 c 1,5,-1
 30 585 l 1,6,-1
 115 670 l 1,7,-1
 203 582 l 1,8,9
 233 590 233 590 270 590 c 2,10,-1
 486 590 l 2,11,12
 523 590 523 590 553 582 c 1,13,-1
 641 670 l 1,14,-1
 726 585 l 1,15,-1
 638 497 l 1,16,17
 646 467 646 467 646 430 c 2,18,-1
 646 270 l 2,19,20
 646 233 646 233 638 203 c 1,21,-1
 726 115 l 1,22,-1
 641 30 l 1,23,-1
 553 118 l 1,24,25
 523 110 523 110 486 110 c 2,26,-1
 270 110 l 2,27,28
 233 110 233 110 203 118 c 1,29,-1
 115 30 l 1,30,-1
 30 115 l 1,31,-1
 118 203 l 1,0,1
456 241 m 1,32,-1
 456 458 l 1,33,-1
 300 458 l 1,34,-1
 300 241 l 1,35,-1
 456 241 l 1,32,-1
EndSplineSet
EndChar

StartChar: yen
Encoding: 165 165 97
Width: 737
Flags: W
LayerCount: 2
Fore
SplineSet
53 190 m 1,0,-1
 263 190 l 1,1,-1
 263 253 l 1,2,-1
 53 253 l 1,3,-1
 53 327 l 1,4,-1
 256 327 l 1,5,-1
 19 700 l 1,6,-1
 275 700 l 1,7,-1
 368 553 l 1,8,-1
 461 700 l 1,9,-1
 718 700 l 1,10,-1
 480 327 l 1,11,-1
 683 327 l 1,12,-1
 683 253 l 1,13,-1
 473 253 l 1,14,-1
 473 190 l 1,15,-1
 683 190 l 1,16,-1
 683 117 l 1,17,-1
 473 117 l 1,18,-1
 473 0 l 1,19,-1
 263 0 l 1,20,-1
 263 117 l 1,21,-1
 53 117 l 1,22,-1
 53 190 l 1,0,-1
EndSplineSet
EndChar

StartChar: section
Encoding: 167 167 98
Width: 600
Flags: W
LayerCount: 2
Fore
SplineSet
357 91 m 1,0,-1
 357 180 l 1,1,-1
 101 180 l 2,2,3
 73 180 73 180 52 201 c 128,-1,4
 31 222 31 222 31 250 c 2,5,-1
 31 321 l 2,6,7
 31 356 31 356 46 372.5 c 128,-1,8
 61 389 61 389 95 391 c 1,9,10
 69 393 69 393 50 413.5 c 128,-1,11
 31 434 31 434 31 461 c 2,12,-1
 31 690 l 2,13,14
 31 717 31 717 51.5 738.5 c 128,-1,15
 72 760 72 760 101 760 c 2,16,-1
 527 760 l 1,17,-1
 527 608 l 1,18,-1
 241 608 l 1,19,-1
 241 507 l 1,20,-1
 497 507 l 2,21,22
 525 507 525 507 546 486 c 128,-1,23
 567 465 567 465 567 438 c 2,24,-1
 567 366 l 2,25,26
 567 297 567 297 502 296 c 1,27,28
 529 293 529 293 548 273 c 128,-1,29
 567 253 567 253 567 227 c 2,30,-1
 567 10 l 2,31,32
 567 -18 567 -18 546 -39 c 128,-1,33
 525 -60 525 -60 497 -60 c 2,34,-1
 141 -60 l 1,35,-1
 71 91 l 1,36,-1
 357 91 l 1,0,-1
357 296 m 1,37,-1
 357 391 l 1,38,-1
 241 391 l 1,39,-1
 241 296 l 1,40,-1
 357 296 l 1,37,-1
EndSplineSet
EndChar

StartChar: dieresis
Encoding: 168 168 99
Width: 442
Flags: W
LayerCount: 2
Fore
SplineSet
280 598 m 256,0,1
 262 621 262 621 262 649 c 0,2,3
 262 676 262 676 280 699 c 128,-1,4
 298 722 298 722 335 722 c 0,5,6
 373 722 373 722 391.5 699 c 128,-1,7
 410 676 410 676 410 648 c 0,8,9
 410 621 410 621 391.5 598 c 128,-1,10
 373 575 373 575 335 575 c 0,11,12
 298 575 298 575 280 598 c 256,0,1
50 598 m 256,13,14
 32 621 32 621 32 649 c 0,15,16
 32 676 32 676 50 699 c 128,-1,17
 68 722 68 722 105 722 c 0,18,19
 143 722 143 722 161.5 699 c 128,-1,20
 180 676 180 676 180 648 c 0,21,22
 180 621 180 621 161.5 598 c 128,-1,23
 143 575 143 575 105 575 c 0,24,25
 68 575 68 575 50 598 c 256,13,14
EndSplineSet
EndChar

StartChar: copyright
Encoding: 169 169 100
Width: 536
Flags: W
LayerCount: 2
Fore
SplineSet
36 556 m 2,0,1
 36 582 36 582 62 582 c 2,2,-1
 473 582 l 2,3,4
 499 582 499 582 499 556 c 2,5,-1
 499 145 l 2,6,7
 499 119 499 119 473 119 c 2,8,-1
 62 119 l 2,9,10
 36 119 36 119 36 145 c 2,11,-1
 36 556 l 2,0,1
421 175 m 1,12,-1
 421 525 l 1,13,-1
 114 525 l 1,14,-1
 114 175 l 1,15,-1
 421 175 l 1,12,-1
158 455 m 2,16,17
 158 482 158 482 184 482 c 2,18,-1
 377 482 l 1,19,-1
 351 425 l 1,20,-1
 237 425 l 1,21,-1
 237 276 l 1,22,-1
 377 276 l 1,23,-1
 351 219 l 1,24,-1
 184 219 l 2,25,26
 158 219 158 219 158 245 c 2,27,-1
 158 455 l 2,16,17
EndSplineSet
EndChar

StartChar: ordfeminine
Encoding: 170 170 101
Width: 394
Flags: W
LayerCount: 2
Fore
SplineSet
47 397 m 1,0,1
 35 410 35 410 35 427 c 2,2,-1
 35 532 l 2,3,4
 35 547 35 547 47 560 c 128,-1,5
 59 573 59 573 77 573 c 2,6,-1
 231 573 l 1,7,-1
 231 609 l 1,8,-1
 35 609 l 1,9,-1
 35 700 l 1,10,-1
 315 700 l 2,11,12
 332 700 332 700 344.5 687.5 c 128,-1,13
 357 675 357 675 357 658 c 2,14,-1
 357 385 l 1,15,-1
 77 385 l 2,16,17
 60 385 60 385 47 397 c 1,0,1
231 476 m 1,18,-1
 231 504 l 1,19,-1
 161 504 l 1,20,-1
 161 476 l 1,21,-1
 231 476 l 1,18,-1
EndSplineSet
EndChar

StartChar: guillemotleft
Encoding: 171 171 102
Width: 580
Flags: W
LayerCount: 2
Fore
SplineSet
463 654 m 1,0,-1
 550 604 l 1,1,-1
 404 350 l 1,2,-1
 550 96 l 1,3,-1
 463 46 l 1,4,-1
 288 350 l 1,5,-1
 463 654 l 1,0,-1
18 350 m 1,6,-1
 193 654 l 1,7,-1
 280 604 l 1,8,-1
 134 350 l 1,9,-1
 280 96 l 1,10,-1
 193 46 l 1,11,-1
 18 350 l 1,6,-1
EndSplineSet
EndChar

StartChar: logicalnot
Encoding: 172 172 103
Width: 512
Flags: W
LayerCount: 2
Fore
SplineSet
5 400 m 1,0,-1
 475 400 l 1,1,-1
 475 300 l 1,2,-1
 474 300 l 1,3,-1
 474 130 l 1,4,-1
 374 130 l 1,5,-1
 374 300 l 1,6,-1
 5 300 l 1,7,-1
 5 400 l 1,0,-1
EndSplineSet
EndChar

StartChar: registered
Encoding: 174 174 104
Width: 536
Flags: W
LayerCount: 2
Fore
SplineSet
36 556 m 2,0,1
 36 582 36 582 62 582 c 2,2,-1
 473 582 l 2,3,4
 499 582 499 582 499 556 c 2,5,-1
 499 145 l 2,6,7
 499 119 499 119 473 119 c 2,8,-1
 62 119 l 2,9,10
 36 119 36 119 36 145 c 2,11,-1
 36 556 l 2,0,1
421 175 m 1,12,-1
 421 525 l 1,13,-1
 114 525 l 1,14,-1
 114 175 l 1,15,-1
 421 175 l 1,12,-1
158 482 m 1,16,-1
 351 482 l 2,17,18
 377 482 377 482 377 455 c 2,19,-1
 377 355 l 2,20,21
 377 329 377 329 335 329 c 1,22,-1
 386 219 l 1,23,-1
 316 219 l 1,24,-1
 246 372 l 1,25,-1
 298 372 l 1,26,-1
 298 425 l 1,27,-1
 237 425 l 1,28,-1
 237 219 l 1,29,-1
 158 219 l 1,30,-1
 158 482 l 1,16,-1
EndSplineSet
EndChar

StartChar: macron
Encoding: 175 175 105
Width: 447
Flags: W
LayerCount: 2
Fore
SplineSet
36 657 m 1,0,-1
 410 657 l 1,1,-1
 410 585 l 1,2,-1
 36 585 l 1,3,-1
 36 657 l 1,0,-1
EndSplineSet
EndChar

StartChar: degree
Encoding: 176 176 106
Width: 300
Flags: W
LayerCount: 2
Fore
SplineSet
101 520 m 0,0,1
 79 530 79 530 62 547 c 128,-1,2
 45 564 45 564 35 586.5 c 128,-1,3
 25 609 25 609 25 635 c 256,4,5
 25 661 25 661 35 683.5 c 128,-1,6
 45 706 45 706 62 723 c 128,-1,7
 79 740 79 740 101.5 750 c 128,-1,8
 124 760 124 760 150 760 c 256,9,10
 176 760 176 760 198.5 750 c 128,-1,11
 221 740 221 740 238 723 c 128,-1,12
 255 706 255 706 265 683.5 c 128,-1,13
 275 661 275 661 275 635 c 256,14,15
 275 609 275 609 265 586.5 c 128,-1,16
 255 564 255 564 238 547 c 128,-1,17
 221 530 221 530 198.5 520 c 128,-1,18
 176 510 176 510 150 510 c 256,19,20
 124 510 124 510 101 520 c 0,0,1
150 570 m 256,21,22
 177 570 177 570 196 589 c 128,-1,23
 215 608 215 608 215 635 c 256,24,25
 215 662 215 662 196 681 c 128,-1,26
 177 700 177 700 150 700 c 256,27,28
 123 700 123 700 104 681 c 128,-1,29
 85 662 85 662 85 635 c 256,30,31
 85 608 85 608 104 589 c 128,-1,32
 123 570 123 570 150 570 c 256,21,22
EndSplineSet
EndChar

StartChar: plusminus
Encoding: 177 177 107
Width: 578
Flags: W
LayerCount: 2
Fore
SplineSet
213 391 m 1,0,-1
 56 391 l 1,1,-1
 56 542 l 1,2,-1
 213 542 l 1,3,-1
 213 700 l 1,4,-1
 365 700 l 1,5,-1
 365 542 l 1,6,-1
 522 542 l 1,7,-1
 522 391 l 1,8,-1
 365 391 l 1,9,-1
 365 233 l 1,10,-1
 213 233 l 1,11,-1
 213 391 l 1,0,-1
21 122 m 1,12,-1
 557 122 l 1,13,-1
 557 0 l 1,14,-1
 21 0 l 1,15,-1
 21 122 l 1,12,-1
EndSplineSet
EndChar

StartChar: acute
Encoding: 180 180 108
Width: 308
Flags: W
LayerCount: 2
Fore
SplineSet
9 639 m 1,0,-1
 289 727 l 1,1,-1
 289 631 l 1,2,-1
 9 585 l 1,3,-1
 9 639 l 1,0,-1
EndSplineSet
EndChar

StartChar: mu
Encoding: 181 181 109
Width: 590
Flags: W
LayerCount: 2
Fore
SplineSet
36 525 m 1,0,-1
 246 525 l 1,1,-1
 246 152 l 1,2,-1
 362 152 l 1,3,-1
 362 525 l 1,4,-1
 572 525 l 1,5,-1
 572 70 l 2,6,7
 572 42 572 42 551 21 c 128,-1,8
 530 0 530 0 502 0 c 2,9,-1
 246 0 l 1,10,-1
 246 -233 l 1,11,-1
 36 -233 l 1,12,-1
 36 525 l 1,0,-1
EndSplineSet
EndChar

StartChar: paragraph
Encoding: 182 182 110
Width: 640
Flags: W
LayerCount: 2
Fore
SplineSet
178 245 m 1,0,-1
 96 245 l 2,1,2
 69 245 69 245 47.5 265.5 c 128,-1,3
 26 286 26 286 26 315 c 2,4,-1
 26 630 l 2,5,6
 26 658 26 658 47.5 679 c 128,-1,7
 69 700 69 700 96 700 c 2,8,-1
 610 700 l 1,9,-1
 610 548 l 1,10,-1
 551 548 l 1,11,-1
 551 0 l 1,12,-1
 435 0 l 1,13,-1
 435 548 l 1,14,-1
 295 548 l 1,15,-1
 295 0 l 1,16,-1
 178 0 l 1,17,-1
 178 245 l 1,0,-1
EndSplineSet
EndChar

StartChar: periodcentered
Encoding: 183 183 111
Width: 226
Flags: W
LayerCount: 2
Fore
SplineSet
36 426 m 1,0,-1
 188 426 l 1,1,-1
 188 274 l 1,2,-1
 36 274 l 1,3,-1
 36 426 l 1,0,-1
EndSplineSet
EndChar

StartChar: cedilla
Encoding: 184 184 112
Width: 340
Flags: W
LayerCount: 2
Fore
SplineSet
54 -11 m 1,0,1
 73 -4 73 -4 98.5 0.5 c 128,-1,2
 124 5 124 5 152 5 c 0,3,4
 181 5 181 5 210 -0.5 c 128,-1,5
 239 -6 239 -6 262 -19 c 128,-1,6
 285 -32 285 -32 299.5 -52.5 c 128,-1,7
 314 -73 314 -73 314 -104 c 0,8,9
 314 -136 314 -136 299 -157.5 c 128,-1,10
 284 -179 284 -179 260 -191.5 c 128,-1,11
 236 -204 236 -204 206 -209 c 128,-1,12
 176 -214 176 -214 145 -214 c 0,13,14
 119 -214 119 -214 95 -211 c 128,-1,15
 71 -208 71 -208 51 -204 c 1,16,-1
 24 -136 l 1,17,18
 35 -141 35 -141 58.5 -145 c 128,-1,19
 82 -149 82 -149 109 -149 c 0,20,21
 128 -149 128 -149 147 -146.5 c 128,-1,22
 166 -144 166 -144 181 -138 c 128,-1,23
 196 -132 196 -132 205.5 -122.5 c 128,-1,24
 215 -113 215 -113 215 -98 c 0,25,26
 215 -75 215 -75 195 -67 c 128,-1,27
 175 -59 175 -59 151 -59 c 0,28,29
 132 -59 132 -59 114.5 -62.5 c 128,-1,30
 97 -66 97 -66 87 -69 c 1,31,-1
 54 -11 l 1,32,-1
 54 -11 l 1,0,1
EndSplineSet
EndChar

StartChar: ordmasculine
Encoding: 186 186 113
Width: 394
Flags: W
LayerCount: 2
Fore
SplineSet
48 397 m 1,0,1
 36 410 36 410 36 427 c 2,2,-1
 36 658 l 2,3,4
 36 675 36 675 48.5 687.5 c 128,-1,5
 61 700 61 700 78 700 c 2,6,-1
 316 700 l 2,7,8
 333 700 333 700 345.5 687.5 c 128,-1,9
 358 675 358 675 358 658 c 2,10,-1
 358 427 l 2,11,12
 358 410 358 410 345.5 397.5 c 128,-1,13
 333 385 333 385 316 385 c 2,14,-1
 78 385 l 2,15,16
 61 385 61 385 48 397 c 1,0,1
232 476 m 1,17,-1
 232 609 l 1,18,-1
 162 609 l 1,19,-1
 162 476 l 1,20,-1
 232 476 l 1,17,-1
EndSplineSet
EndChar

StartChar: guillemotright
Encoding: 187 187 114
Width: 580
Flags: W
LayerCount: 2
Fore
SplineSet
446 350 m 1,0,-1
 300 604 l 1,1,-1
 387 654 l 1,2,-1
 562 350 l 1,3,-1
 387 46 l 1,4,-1
 300 96 l 1,5,-1
 446 350 l 1,0,-1
176 350 m 1,6,-1
 30 604 l 1,7,-1
 117 654 l 1,8,-1
 292 350 l 1,9,-1
 117 46 l 1,10,-1
 30 96 l 1,11,-1
 176 350 l 1,6,-1
EndSplineSet
EndChar

StartChar: questiondown
Encoding: 191 191 115
Width: 583
Flags: W
LayerCount: 2
Fore
SplineSet
396 700 m 1,0,-1
 547 700 l 1,1,-1
 547 548 l 1,2,-1
 396 548 l 1,3,-1
 396 700 l 1,0,-1
11 338 m 2,4,5
 11 366 11 366 32 387 c 128,-1,6
 53 408 53 408 81 408 c 2,7,-1
 396 408 l 1,8,-1
 396 490 l 1,9,-1
 547 490 l 1,10,-1
 547 362 l 2,11,12
 547 334 547 334 526 313 c 128,-1,13
 505 292 505 292 477 292 c 2,14,-1
 162 292 l 1,15,-1
 162 117 l 1,16,-1
 396 117 l 1,17,-1
 396 175 l 1,18,-1
 547 175 l 1,19,-1
 547 70 l 2,20,21
 547 42 547 42 526 21 c 128,-1,22
 505 0 505 0 477 0 c 2,23,-1
 81 0 l 2,24,25
 53 0 53 0 32 21 c 128,-1,26
 11 42 11 42 11 70 c 2,27,-1
 11 338 l 2,4,5
EndSplineSet
EndChar

StartChar: Agrave
Encoding: 192 192 116
Width: 842
Flags: W
LayerCount: 2
Fore
SplineSet
281 902 m 1,0,-1
 561 814 l 1,1,-1
 561 760 l 1,2,-1
 281 806 l 1,3,-1
 281 902 l 1,0,-1
304 700 m 1,4,-1
 538 700 l 1,5,-1
 829 0 l 1,6,-1
 363 0 l 1,7,-1
 363 152 l 1,8,-1
 533 152 l 1,9,-1
 421 420 l 1,10,-1
 246 0 l 1,11,-1
 14 0 l 1,12,-1
 304 700 l 1,4,-1
EndSplineSet
EndChar

StartChar: Aacute
Encoding: 193 193 117
Width: 842
Flags: W
LayerCount: 2
Fore
SplineSet
280 814 m 1,0,-1
 560 902 l 1,1,-1
 560 806 l 1,2,-1
 280 760 l 1,3,-1
 280 814 l 1,0,-1
303 700 m 1,4,-1
 537 700 l 1,5,-1
 828 0 l 1,6,-1
 362 0 l 1,7,-1
 362 152 l 1,8,-1
 532 152 l 1,9,-1
 420 420 l 1,10,-1
 245 0 l 1,11,-1
 13 0 l 1,12,-1
 303 700 l 1,4,-1
EndSplineSet
EndChar

StartChar: Acircumflex
Encoding: 194 194 118
Width: 847
Flags: W
LayerCount: 2
Fore
SplineSet
223 814 m 1,0,-1
 423 902 l 1,1,-1
 623 814 l 1,2,-1
 623 760 l 1,3,-1
 423 806 l 1,4,-1
 223 760 l 1,5,-1
 223 814 l 1,0,-1
306 700 m 1,6,-1
 540 700 l 1,7,-1
 831 0 l 1,8,-1
 365 0 l 1,9,-1
 365 152 l 1,10,-1
 535 152 l 1,11,-1
 423 420 l 1,12,-1
 248 0 l 1,13,-1
 16 0 l 1,14,-1
 306 700 l 1,6,-1
EndSplineSet
EndChar

StartChar: Atilde
Encoding: 195 195 119
Width: 851
Flags: W
LayerCount: 2
Fore
SplineSet
231 844 m 1,0,1
 254 871 254 871 278 882 c 128,-1,2
 302 893 302 893 326 893 c 0,3,4
 353 893 353 893 380 883 c 128,-1,5
 407 873 407 873 433.5 861 c 128,-1,6
 460 849 460 849 486 839 c 128,-1,7
 512 829 512 829 536 829 c 0,8,9
 559 829 559 829 579.5 840.5 c 128,-1,10
 600 852 600 852 620 881 c 1,11,-1
 620 792 l 1,12,13
 600 763 600 763 579.5 751.5 c 128,-1,14
 559 740 559 740 536 740 c 0,15,16
 512 740 512 740 486 750 c 128,-1,17
 460 760 460 760 433.5 772 c 128,-1,18
 407 784 407 784 380 794 c 128,-1,19
 353 804 353 804 326 804 c 0,20,21
 302 804 302 804 278 793 c 128,-1,22
 254 782 254 782 231 755 c 1,23,-1
 231 844 l 1,0,1
308 700 m 1,24,-1
 542 700 l 1,25,-1
 833 0 l 1,26,-1
 367 0 l 1,27,-1
 367 152 l 1,28,-1
 537 152 l 1,29,-1
 425 420 l 1,30,-1
 250 0 l 1,31,-1
 18 0 l 1,32,-1
 308 700 l 1,24,-1
EndSplineSet
EndChar

StartChar: Adieresis
Encoding: 196 196 120
Width: 851
Flags: W
LayerCount: 2
Fore
SplineSet
484 773 m 256,0,1
 466 796 466 796 466 824 c 0,2,3
 466 851 466 851 484 874 c 128,-1,4
 502 897 502 897 539 897 c 0,5,6
 577 897 577 897 595.5 874 c 128,-1,7
 614 851 614 851 614 823 c 0,8,9
 614 796 614 796 595.5 773 c 128,-1,10
 577 750 577 750 539 750 c 0,11,12
 502 750 502 750 484 773 c 256,0,1
254 773 m 256,13,14
 236 796 236 796 236 824 c 0,15,16
 236 851 236 851 254 874 c 128,-1,17
 272 897 272 897 309 897 c 0,18,19
 347 897 347 897 365.5 874 c 128,-1,20
 384 851 384 851 384 823 c 0,21,22
 384 796 384 796 365.5 773 c 128,-1,23
 347 750 347 750 309 750 c 0,24,25
 272 750 272 750 254 773 c 256,13,14
308 700 m 1,26,-1
 542 700 l 1,27,-1
 833 0 l 1,28,-1
 367 0 l 1,29,-1
 367 152 l 1,30,-1
 537 152 l 1,31,-1
 425 420 l 1,32,-1
 250 0 l 1,33,-1
 18 0 l 1,34,-1
 308 700 l 1,26,-1
EndSplineSet
EndChar

StartChar: Aring
Encoding: 197 197 121
Width: 843
Flags: W
LayerCount: 2
Fore
SplineSet
354 778 m 256,0,1
 341 791 341 791 333.5 808.5 c 128,-1,2
 326 826 326 826 326 845 c 256,3,4
 326 864 326 864 333.5 881.5 c 128,-1,5
 341 899 341 899 354 912 c 128,-1,6
 367 925 367 925 384.5 932.5 c 128,-1,7
 402 940 402 940 421 940 c 256,8,9
 440 940 440 940 457.5 932.5 c 128,-1,10
 475 925 475 925 488 912 c 128,-1,11
 501 899 501 899 508.5 881.5 c 128,-1,12
 516 864 516 864 516 845 c 256,13,14
 516 826 516 826 508.5 808.5 c 128,-1,15
 501 791 501 791 488 778 c 128,-1,16
 475 765 475 765 457.5 757.5 c 128,-1,17
 440 750 440 750 421 750 c 256,18,19
 402 750 402 750 384.5 757.5 c 128,-1,20
 367 765 367 765 354 778 c 256,0,1
421 800 m 256,21,22
 439 800 439 800 452.5 813.5 c 128,-1,23
 466 827 466 827 466 845 c 256,24,25
 466 863 466 863 452.5 876.5 c 128,-1,26
 439 890 439 890 421 890 c 256,27,28
 403 890 403 890 389.5 876.5 c 128,-1,29
 376 863 376 863 376 845 c 256,30,31
 376 827 376 827 389.5 813.5 c 128,-1,32
 403 800 403 800 421 800 c 256,21,22
304 700 m 1,33,-1
 538 700 l 1,34,-1
 829 0 l 1,35,-1
 363 0 l 1,36,-1
 363 152 l 1,37,-1
 533 152 l 1,38,-1
 421 420 l 1,39,-1
 246 0 l 1,40,-1
 14 0 l 1,41,-1
 304 700 l 1,33,-1
EndSplineSet
EndChar

StartChar: AE
Encoding: 198 198 122
Width: 1210
Flags: W
LayerCount: 2
Fore
SplineSet
594 700 m 1,0,-1
 1177 700 l 1,1,-1
 1107 548 l 1,2,-1
 804 548 l 1,3,-1
 804 408 l 1,4,-1
 1107 408 l 1,5,-1
 1107 292 l 1,6,-1
 804 292 l 1,7,-1
 804 152 l 1,8,-1
 1177 152 l 1,9,-1
 1107 0 l 1,10,-1
 424 0 l 1,11,-1
 424 152 l 1,12,-1
 594 152 l 1,13,-1
 594 420 l 1,14,-1
 244 0 l 1,15,-1
 12 0 l 1,16,-1
 594 700 l 1,0,-1
EndSplineSet
EndChar

StartChar: Ccedilla
Encoding: 199 199 123
Width: 630
Flags: W
LayerCount: 2
Fore
SplineSet
27 630 m 2,0,1
 27 658 27 658 48.5 679 c 128,-1,2
 70 700 70 700 97 700 c 2,3,-1
 611 700 l 1,4,-1
 541 548 l 1,5,-1
 237 548 l 1,6,-1
 237 152 l 1,7,-1
 611 152 l 1,8,-1
 541 0 l 1,9,-1
 353 0 l 1,10,11
 375 -4 375 -4 394.5 -12 c 128,-1,12
 414 -20 414 -20 428.5 -32.5 c 128,-1,13
 443 -45 443 -45 451.5 -62.5 c 128,-1,14
 460 -80 460 -80 460 -104 c 0,15,16
 460 -136 460 -136 445 -157.5 c 128,-1,17
 430 -179 430 -179 406 -191.5 c 128,-1,18
 382 -204 382 -204 352 -209 c 128,-1,19
 322 -214 322 -214 291 -214 c 0,20,21
 265 -214 265 -214 241 -211 c 128,-1,22
 217 -208 217 -208 197 -204 c 1,23,-1
 170 -136 l 1,24,25
 181 -141 181 -141 204.5 -145 c 128,-1,26
 228 -149 228 -149 255 -149 c 0,27,28
 274 -149 274 -149 293 -146.5 c 128,-1,29
 312 -144 312 -144 327 -138 c 128,-1,30
 342 -132 342 -132 351.5 -122.5 c 128,-1,31
 361 -113 361 -113 361 -98 c 0,32,33
 361 -75 361 -75 341 -67 c 128,-1,34
 321 -59 321 -59 297 -59 c 0,35,36
 278 -59 278 -59 260.5 -62.5 c 128,-1,37
 243 -66 243 -66 233 -69 c 1,38,-1
 200 -11 l 1,39,40
 208 -7 208 -7 218.5 -4.5 c 128,-1,41
 229 -2 229 -2 240 0 c 1,42,-1
 97 0 l 2,43,44
 70 0 70 0 48.5 20.5 c 128,-1,45
 27 41 27 41 27 70 c 2,46,-1
 27 630 l 2,0,1
EndSplineSet
EndChar

StartChar: Egrave
Encoding: 200 200 124
Width: 629
Flags: W
LayerCount: 2
Fore
SplineSet
176 902 m 1,0,-1
 456 814 l 1,1,-1
 456 760 l 1,2,-1
 176 806 l 1,3,-1
 176 902 l 1,0,-1
28 700 m 1,4,-1
 612 700 l 1,5,-1
 542 548 l 1,6,-1
 238 548 l 1,7,-1
 238 408 l 1,8,-1
 542 408 l 1,9,-1
 542 292 l 1,10,-1
 238 292 l 1,11,-1
 238 152 l 1,12,-1
 612 152 l 1,13,-1
 542 0 l 1,14,-1
 28 0 l 1,15,-1
 28 700 l 1,4,-1
EndSplineSet
EndChar

StartChar: Eacute
Encoding: 201 201 125
Width: 630
Flags: W
LayerCount: 2
Fore
SplineSet
175 814 m 1,0,-1
 455 902 l 1,1,-1
 455 806 l 1,2,-1
 175 760 l 1,3,-1
 175 814 l 1,0,-1
27 700 m 1,4,-1
 611 700 l 1,5,-1
 541 548 l 1,6,-1
 237 548 l 1,7,-1
 237 408 l 1,8,-1
 541 408 l 1,9,-1
 541 292 l 1,10,-1
 237 292 l 1,11,-1
 237 152 l 1,12,-1
 611 152 l 1,13,-1
 541 0 l 1,14,-1
 27 0 l 1,15,-1
 27 700 l 1,4,-1
EndSplineSet
EndChar

StartChar: Ecircumflex
Encoding: 202 202 126
Width: 635
Flags: W
LayerCount: 2
Fore
SplineSet
118 814 m 1,0,-1
 318 902 l 1,1,-1
 518 814 l 1,2,-1
 518 760 l 1,3,-1
 318 806 l 1,4,-1
 118 760 l 1,5,-1
 118 814 l 1,0,-1
30 700 m 1,6,-1
 614 700 l 1,7,-1
 544 548 l 1,8,-1
 240 548 l 1,9,-1
 240 408 l 1,10,-1
 544 408 l 1,11,-1
 544 292 l 1,12,-1
 240 292 l 1,13,-1
 240 152 l 1,14,-1
 614 152 l 1,15,-1
 544 0 l 1,16,-1
 30 0 l 1,17,-1
 30 700 l 1,6,-1
EndSplineSet
EndChar

StartChar: Edieresis
Encoding: 203 203 127
Width: 638
Flags: W
LayerCount: 2
Fore
SplineSet
378 773 m 256,0,1
 360 796 360 796 360 824 c 0,2,3
 360 851 360 851 378 874 c 128,-1,4
 396 897 396 897 433 897 c 0,5,6
 471 897 471 897 489.5 874 c 128,-1,7
 508 851 508 851 508 823 c 0,8,9
 508 796 508 796 489.5 773 c 128,-1,10
 471 750 471 750 433 750 c 0,11,12
 396 750 396 750 378 773 c 256,0,1
148 773 m 256,13,14
 130 796 130 796 130 824 c 0,15,16
 130 851 130 851 148 874 c 128,-1,17
 166 897 166 897 203 897 c 0,18,19
 241 897 241 897 259.5 874 c 128,-1,20
 278 851 278 851 278 823 c 0,21,22
 278 796 278 796 259.5 773 c 128,-1,23
 241 750 241 750 203 750 c 0,24,25
 166 750 166 750 148 773 c 256,13,14
31 700 m 1,26,-1
 615 700 l 1,27,-1
 545 548 l 1,28,-1
 241 548 l 1,29,-1
 241 408 l 1,30,-1
 545 408 l 1,31,-1
 545 292 l 1,32,-1
 241 292 l 1,33,-1
 241 152 l 1,34,-1
 615 152 l 1,35,-1
 545 0 l 1,36,-1
 31 0 l 1,37,-1
 31 700 l 1,26,-1
EndSplineSet
EndChar

StartChar: Igrave
Encoding: 204 204 128
Width: 283
Flags: W
LayerCount: 2
Fore
SplineSet
2 902 m 1,0,-1
 282 814 l 1,1,-1
 282 760 l 1,2,-1
 2 806 l 1,3,-1
 2 902 l 1,0,-1
36 700 m 1,4,-1
 246 700 l 1,5,-1
 246 0 l 1,6,-1
 36 0 l 1,7,-1
 36 700 l 1,4,-1
EndSplineSet
EndChar

StartChar: Iacute
Encoding: 205 205 129
Width: 283
Flags: W
LayerCount: 2
Fore
SplineSet
2 814 m 1,0,-1
 282 902 l 1,1,-1
 282 806 l 1,2,-1
 2 760 l 1,3,-1
 2 814 l 1,0,-1
36 700 m 1,4,-1
 246 700 l 1,5,-1
 246 0 l 1,6,-1
 36 0 l 1,7,-1
 36 700 l 1,4,-1
EndSplineSet
EndChar

StartChar: Icircumflex
Encoding: 206 206 130
Width: 283
Flags: W
LayerCount: 2
Fore
SplineSet
-58 814 m 1,0,-1
 142 902 l 1,1,-1
 342 814 l 1,2,-1
 342 760 l 1,3,-1
 142 806 l 1,4,-1
 -58 760 l 1,5,-1
 -58 814 l 1,0,-1
36 700 m 1,6,-1
 246 700 l 1,7,-1
 246 0 l 1,8,-1
 36 0 l 1,9,-1
 36 700 l 1,6,-1
EndSplineSet
EndChar

StartChar: Idieresis
Encoding: 207 207 131
Width: 283
Flags: W
LayerCount: 2
Fore
SplineSet
201 773 m 256,0,1
 183 796 183 796 183 824 c 0,2,3
 183 851 183 851 201 874 c 128,-1,4
 219 897 219 897 256 897 c 0,5,6
 294 897 294 897 312.5 874 c 128,-1,7
 331 851 331 851 331 823 c 0,8,9
 331 796 331 796 312.5 773 c 128,-1,10
 294 750 294 750 256 750 c 0,11,12
 219 750 219 750 201 773 c 256,0,1
-29 773 m 256,13,14
 -47 796 -47 796 -47 824 c 0,15,16
 -47 851 -47 851 -29 874 c 128,-1,17
 -11 897 -11 897 26 897 c 0,18,19
 64 897 64 897 82.5 874 c 128,-1,20
 101 851 101 851 101 823 c 0,21,22
 101 796 101 796 82.5 773 c 128,-1,23
 64 750 64 750 26 750 c 0,24,25
 -11 750 -11 750 -29 773 c 256,13,14
36 700 m 1,26,-1
 246 700 l 1,27,-1
 246 0 l 1,28,-1
 36 0 l 1,29,-1
 36 700 l 1,26,-1
EndSplineSet
EndChar

StartChar: Ntilde
Encoding: 209 209 132
Width: 646
Flags: W
LayerCount: 2
Fore
SplineSet
128 844 m 1,0,1
 151 871 151 871 175 882 c 128,-1,2
 199 893 199 893 223 893 c 0,3,4
 250 893 250 893 277 883 c 128,-1,5
 304 873 304 873 330.5 861 c 128,-1,6
 357 849 357 849 383 839 c 128,-1,7
 409 829 409 829 433 829 c 0,8,9
 456 829 456 829 476.5 840.5 c 128,-1,10
 497 852 497 852 517 881 c 1,11,-1
 517 792 l 1,12,13
 497 763 497 763 476.5 751.5 c 128,-1,14
 456 740 456 740 433 740 c 0,15,16
 409 740 409 740 383 750 c 128,-1,17
 357 760 357 760 330.5 772 c 128,-1,18
 304 784 304 784 277 794 c 128,-1,19
 250 804 250 804 223 804 c 0,20,21
 199 804 199 804 175 793 c 128,-1,22
 151 782 151 782 128 755 c 1,23,-1
 128 844 l 1,0,1
31 700 m 1,24,-1
 545 700 l 2,25,26
 572 700 572 700 593.5 679 c 128,-1,27
 615 658 615 658 615 630 c 2,28,-1
 615 0 l 1,29,-1
 405 0 l 1,30,-1
 405 548 l 1,31,-1
 241 548 l 1,32,-1
 241 0 l 1,33,-1
 31 0 l 1,34,-1
 31 700 l 1,24,-1
EndSplineSet
EndChar

StartChar: Ograve
Encoding: 210 210 133
Width: 639
Flags: W
LayerCount: 2
Fore
SplineSet
180 902 m 1,0,-1
 460 814 l 1,1,-1
 460 760 l 1,2,-1
 180 806 l 1,3,-1
 180 902 l 1,0,-1
28 630 m 2,4,5
 28 658 28 658 49.5 679 c 128,-1,6
 71 700 71 700 98 700 c 2,7,-1
 542 700 l 2,8,9
 569 700 569 700 590.5 679 c 128,-1,10
 612 658 612 658 612 630 c 2,11,-1
 612 70 l 2,12,13
 612 41 612 41 590.5 20.5 c 128,-1,14
 569 0 569 0 542 0 c 2,15,-1
 98 0 l 2,16,17
 71 0 71 0 49.5 20.5 c 128,-1,18
 28 41 28 41 28 70 c 2,19,-1
 28 630 l 2,4,5
402 152 m 1,20,-1
 402 548 l 1,21,-1
 238 548 l 1,22,-1
 238 152 l 1,23,-1
 402 152 l 1,20,-1
EndSplineSet
EndChar

StartChar: Oacute
Encoding: 211 211 134
Width: 638
Flags: W
LayerCount: 2
Fore
SplineSet
178 814 m 1,0,-1
 458 902 l 1,1,-1
 458 806 l 1,2,-1
 178 760 l 1,3,-1
 178 814 l 1,0,-1
26 630 m 2,4,5
 26 658 26 658 47.5 679 c 128,-1,6
 69 700 69 700 96 700 c 2,7,-1
 540 700 l 2,8,9
 567 700 567 700 588.5 679 c 128,-1,10
 610 658 610 658 610 630 c 2,11,-1
 610 70 l 2,12,13
 610 41 610 41 588.5 20.5 c 128,-1,14
 567 0 567 0 540 0 c 2,15,-1
 96 0 l 2,16,17
 69 0 69 0 47.5 20.5 c 128,-1,18
 26 41 26 41 26 70 c 2,19,-1
 26 630 l 2,4,5
400 152 m 1,20,-1
 400 548 l 1,21,-1
 236 548 l 1,22,-1
 236 152 l 1,23,-1
 400 152 l 1,20,-1
EndSplineSet
EndChar

StartChar: Ocircumflex
Encoding: 212 212 135
Width: 643
Flags: W
LayerCount: 2
Fore
SplineSet
121 814 m 1,0,-1
 321 902 l 1,1,-1
 521 814 l 1,2,-1
 521 760 l 1,3,-1
 321 806 l 1,4,-1
 121 760 l 1,5,-1
 121 814 l 1,0,-1
29 630 m 2,6,7
 29 658 29 658 50.5 679 c 128,-1,8
 72 700 72 700 99 700 c 2,9,-1
 543 700 l 2,10,11
 570 700 570 700 591.5 679 c 128,-1,12
 613 658 613 658 613 630 c 2,13,-1
 613 70 l 2,14,15
 613 41 613 41 591.5 20.5 c 128,-1,16
 570 0 570 0 543 0 c 2,17,-1
 99 0 l 2,18,19
 72 0 72 0 50.5 20.5 c 128,-1,20
 29 41 29 41 29 70 c 2,21,-1
 29 630 l 2,6,7
403 152 m 1,22,-1
 403 548 l 1,23,-1
 239 548 l 1,24,-1
 239 152 l 1,25,-1
 403 152 l 1,22,-1
EndSplineSet
EndChar

StartChar: Otilde
Encoding: 213 213 136
Width: 646
Flags: W
LayerCount: 2
Fore
SplineSet
128 844 m 1,0,1
 151 871 151 871 175 882 c 128,-1,2
 199 893 199 893 223 893 c 0,3,4
 250 893 250 893 277 883 c 128,-1,5
 304 873 304 873 330.5 861 c 128,-1,6
 357 849 357 849 383 839 c 128,-1,7
 409 829 409 829 433 829 c 0,8,9
 456 829 456 829 476.5 840.5 c 128,-1,10
 497 852 497 852 517 881 c 1,11,-1
 517 792 l 1,12,13
 497 763 497 763 476.5 751.5 c 128,-1,14
 456 740 456 740 433 740 c 0,15,16
 409 740 409 740 383 750 c 128,-1,17
 357 760 357 760 330.5 772 c 128,-1,18
 304 784 304 784 277 794 c 128,-1,19
 250 804 250 804 223 804 c 0,20,21
 199 804 199 804 175 793 c 128,-1,22
 151 782 151 782 128 755 c 1,23,-1
 128 844 l 1,0,1
31 630 m 2,24,25
 31 658 31 658 52.5 679 c 128,-1,26
 74 700 74 700 101 700 c 2,27,-1
 545 700 l 2,28,29
 572 700 572 700 593.5 679 c 128,-1,30
 615 658 615 658 615 630 c 2,31,-1
 615 70 l 2,32,33
 615 41 615 41 593.5 20.5 c 128,-1,34
 572 0 572 0 545 0 c 2,35,-1
 101 0 l 2,36,37
 74 0 74 0 52.5 20.5 c 128,-1,38
 31 41 31 41 31 70 c 2,39,-1
 31 630 l 2,24,25
405 152 m 1,40,-1
 405 548 l 1,41,-1
 241 548 l 1,42,-1
 241 152 l 1,43,-1
 405 152 l 1,40,-1
EndSplineSet
EndChar

StartChar: Odieresis
Encoding: 214 214 137
Width: 646
Flags: W
LayerCount: 2
Fore
SplineSet
382 773 m 256,0,1
 364 796 364 796 364 824 c 0,2,3
 364 851 364 851 382 874 c 128,-1,4
 400 897 400 897 437 897 c 0,5,6
 475 897 475 897 493.5 874 c 128,-1,7
 512 851 512 851 512 823 c 0,8,9
 512 796 512 796 493.5 773 c 128,-1,10
 475 750 475 750 437 750 c 0,11,12
 400 750 400 750 382 773 c 256,0,1
152 773 m 256,13,14
 134 796 134 796 134 824 c 0,15,16
 134 851 134 851 152 874 c 128,-1,17
 170 897 170 897 207 897 c 0,18,19
 245 897 245 897 263.5 874 c 128,-1,20
 282 851 282 851 282 823 c 0,21,22
 282 796 282 796 263.5 773 c 128,-1,23
 245 750 245 750 207 750 c 0,24,25
 170 750 170 750 152 773 c 256,13,14
31 630 m 2,26,27
 31 658 31 658 52.5 679 c 128,-1,28
 74 700 74 700 101 700 c 2,29,-1
 545 700 l 2,30,31
 572 700 572 700 593.5 679 c 128,-1,32
 615 658 615 658 615 630 c 2,33,-1
 615 70 l 2,34,35
 615 41 615 41 593.5 20.5 c 128,-1,36
 572 0 572 0 545 0 c 2,37,-1
 101 0 l 2,38,39
 74 0 74 0 52.5 20.5 c 128,-1,40
 31 41 31 41 31 70 c 2,41,-1
 31 630 l 2,26,27
405 152 m 1,42,-1
 405 548 l 1,43,-1
 241 548 l 1,44,-1
 241 152 l 1,45,-1
 405 152 l 1,42,-1
EndSplineSet
EndChar

StartChar: Oslash
Encoding: 216 216 138
Width: 711
Flags: W
LayerCount: 2
Fore
SplineSet
66 63 m 1,0,1
 64 67 64 67 64 71 c 2,2,-1
 64 631 l 2,3,4
 64 659 64 659 85 680 c 128,-1,5
 106 701 106 701 134 701 c 2,6,-1
 583 701 l 1,7,-1
 608 730 l 1,8,-1
 683 672 l 1,9,-1
 648 628 l 1,10,-1
 648 71 l 2,11,12
 648 42 648 42 626.5 21.5 c 128,-1,13
 605 1 605 1 578 1 c 2,14,-1
 137 1 l 1,15,-1
 104 -39 l 1,16,-1
 29 18 l 1,17,-1
 66 63 l 1,0,1
438 520 m 1,18,-1
 438 549 l 1,19,-1
 274 549 l 1,20,-1
 274 319 l 1,21,-1
 438 520 l 1,18,-1
438 152 m 1,22,-1
 438 371 l 1,23,-1
 274 170 l 1,24,-1
 274 152 l 1,25,-1
 438 152 l 1,22,-1
EndSplineSet
EndChar

StartChar: Ugrave
Encoding: 217 217 139
Width: 639
Flags: W
LayerCount: 2
Fore
SplineSet
180 902 m 1,0,-1
 460 814 l 1,1,-1
 460 760 l 1,2,-1
 180 806 l 1,3,-1
 180 902 l 1,0,-1
28 700 m 1,4,-1
 238 700 l 1,5,-1
 238 152 l 1,6,-1
 402 152 l 1,7,-1
 402 700 l 1,8,-1
 612 700 l 1,9,-1
 612 0 l 1,10,-1
 98 0 l 2,11,12
 71 0 71 0 49.5 20.5 c 128,-1,13
 28 41 28 41 28 70 c 2,14,-1
 28 700 l 1,4,-1
EndSplineSet
EndChar

StartChar: Uacute
Encoding: 218 218 140
Width: 640
Flags: W
LayerCount: 2
Fore
SplineSet
179 814 m 1,0,-1
 459 902 l 1,1,-1
 459 806 l 1,2,-1
 179 760 l 1,3,-1
 179 814 l 1,0,-1
27 700 m 1,4,-1
 237 700 l 1,5,-1
 237 152 l 1,6,-1
 401 152 l 1,7,-1
 401 700 l 1,8,-1
 611 700 l 1,9,-1
 611 0 l 1,10,-1
 97 0 l 2,11,12
 70 0 70 0 48.5 20.5 c 128,-1,13
 27 41 27 41 27 70 c 2,14,-1
 27 700 l 1,4,-1
EndSplineSet
EndChar

StartChar: Ucircumflex
Encoding: 219 219 141
Width: 644
Flags: W
LayerCount: 2
Fore
SplineSet
122 814 m 1,0,-1
 322 902 l 1,1,-1
 522 814 l 1,2,-1
 522 760 l 1,3,-1
 322 806 l 1,4,-1
 122 760 l 1,5,-1
 122 814 l 1,0,-1
30 700 m 1,6,-1
 240 700 l 1,7,-1
 240 152 l 1,8,-1
 404 152 l 1,9,-1
 404 700 l 1,10,-1
 614 700 l 1,11,-1
 614 0 l 1,12,-1
 100 0 l 2,13,14
 73 0 73 0 51.5 20.5 c 128,-1,15
 30 41 30 41 30 70 c 2,16,-1
 30 700 l 1,6,-1
EndSplineSet
EndChar

StartChar: Udieresis
Encoding: 220 220 142
Width: 647
Flags: W
LayerCount: 2
Fore
SplineSet
382 773 m 256,0,1
 364 796 364 796 364 824 c 0,2,3
 364 851 364 851 382 874 c 128,-1,4
 400 897 400 897 437 897 c 0,5,6
 475 897 475 897 493.5 874 c 128,-1,7
 512 851 512 851 512 823 c 0,8,9
 512 796 512 796 493.5 773 c 128,-1,10
 475 750 475 750 437 750 c 0,11,12
 400 750 400 750 382 773 c 256,0,1
152 773 m 256,13,14
 134 796 134 796 134 824 c 0,15,16
 134 851 134 851 152 874 c 128,-1,17
 170 897 170 897 207 897 c 0,18,19
 245 897 245 897 263.5 874 c 128,-1,20
 282 851 282 851 282 823 c 0,21,22
 282 796 282 796 263.5 773 c 128,-1,23
 245 750 245 750 207 750 c 0,24,25
 170 750 170 750 152 773 c 256,13,14
31 700 m 1,26,-1
 241 700 l 1,27,-1
 241 152 l 1,28,-1
 405 152 l 1,29,-1
 405 700 l 1,30,-1
 615 700 l 1,31,-1
 615 0 l 1,32,-1
 101 0 l 2,33,34
 74 0 74 0 52.5 20.5 c 128,-1,35
 31 41 31 41 31 70 c 2,36,-1
 31 700 l 1,26,-1
EndSplineSet
EndChar

StartChar: germandbls
Encoding: 223 223 143
Width: 654
Flags: W
LayerCount: 2
Fore
SplineSet
34 480 m 2,0,1
 34 596 34 596 86 648 c 128,-1,2
 138 700 138 700 254 700 c 2,3,-1
 548 700 l 2,4,5
 575 700 575 700 596.5 679 c 128,-1,6
 618 658 618 658 618 630 c 2,7,-1
 618 420 l 2,8,9
 618 392 618 392 597 371 c 128,-1,10
 576 350 576 350 550 350 c 1,11,12
 574 347 574 347 596 332 c 128,-1,13
 618 317 618 317 618 292 c 2,14,-1
 618 70 l 2,15,16
 618 41 618 41 596.5 20.5 c 128,-1,17
 575 0 575 0 548 0 c 2,18,-1
 309 0 l 1,19,-1
 309 152 l 1,20,-1
 408 152 l 1,21,-1
 408 292 l 1,22,-1
 349 292 l 1,23,-1
 349 408 l 1,24,-1
 408 408 l 1,25,-1
 408 548 l 1,26,-1
 304 548 l 2,27,28
 272 548 272 548 258 534 c 128,-1,29
 244 520 244 520 244 488 c 2,30,-1
 244 0 l 1,31,-1
 34 0 l 1,32,-1
 34 480 l 2,0,1
EndSplineSet
EndChar

StartChar: agrave
Encoding: 224 224 144
Width: 588
Flags: W
LayerCount: 2
Fore
SplineSet
155 727 m 1,0,-1
 435 639 l 1,1,-1
 435 585 l 1,2,-1
 155 631 l 1,3,-1
 155 727 l 1,0,-1
27 245 m 2,4,5
 27 272 27 272 48 293 c 128,-1,6
 69 314 69 314 97 314 c 2,7,-1
 353 314 l 1,8,-1
 353 373 l 1,9,-1
 27 373 l 1,10,-1
 27 525 l 1,11,-1
 493 525 l 2,12,13
 521 525 521 525 542 504 c 128,-1,14
 563 483 563 483 563 455 c 2,15,-1
 563 0 l 1,16,-1
 97 0 l 2,17,18
 69 0 69 0 48 21 c 128,-1,19
 27 42 27 42 27 70 c 2,20,-1
 27 245 l 2,4,5
353 151 m 1,21,-1
 353 198 l 1,22,-1
 237 198 l 1,23,-1
 237 151 l 1,24,-1
 353 151 l 1,21,-1
EndSplineSet
EndChar

StartChar: aacute
Encoding: 225 225 145
Width: 587
Flags: W
LayerCount: 2
Fore
SplineSet
151 639 m 1,0,-1
 431 727 l 1,1,-1
 431 631 l 1,2,-1
 151 585 l 1,3,-1
 151 639 l 1,0,-1
23 245 m 2,4,5
 23 272 23 272 44 293 c 128,-1,6
 65 314 65 314 93 314 c 2,7,-1
 349 314 l 1,8,-1
 349 373 l 1,9,-1
 23 373 l 1,10,-1
 23 525 l 1,11,-1
 489 525 l 2,12,13
 517 525 517 525 538 504 c 128,-1,14
 559 483 559 483 559 455 c 2,15,-1
 559 0 l 1,16,-1
 93 0 l 2,17,18
 65 0 65 0 44 21 c 128,-1,19
 23 42 23 42 23 70 c 2,20,-1
 23 245 l 2,4,5
349 151 m 1,21,-1
 349 198 l 1,22,-1
 233 198 l 1,23,-1
 233 151 l 1,24,-1
 349 151 l 1,21,-1
EndSplineSet
EndChar

StartChar: acircumflex
Encoding: 226 226 146
Width: 593
Flags: W
LayerCount: 2
Fore
SplineSet
96 639 m 1,0,-1
 296 727 l 1,1,-1
 496 639 l 1,2,-1
 496 585 l 1,3,-1
 296 631 l 1,4,-1
 96 585 l 1,5,-1
 96 639 l 1,0,-1
28 245 m 2,6,7
 28 272 28 272 49 293 c 128,-1,8
 70 314 70 314 98 314 c 2,9,-1
 354 314 l 1,10,-1
 354 373 l 1,11,-1
 28 373 l 1,12,-1
 28 525 l 1,13,-1
 494 525 l 2,14,15
 522 525 522 525 543 504 c 128,-1,16
 564 483 564 483 564 455 c 2,17,-1
 564 0 l 1,18,-1
 98 0 l 2,19,20
 70 0 70 0 49 21 c 128,-1,21
 28 42 28 42 28 70 c 2,22,-1
 28 245 l 2,6,7
354 151 m 1,23,-1
 354 198 l 1,24,-1
 238 198 l 1,25,-1
 238 151 l 1,26,-1
 354 151 l 1,23,-1
EndSplineSet
EndChar

StartChar: atilde
Encoding: 227 227 147
Width: 597
Flags: W
LayerCount: 2
Fore
SplineSet
103 669 m 1,0,1
 126 696 126 696 150 707 c 128,-1,2
 174 718 174 718 198 718 c 0,3,4
 225 718 225 718 252 708 c 128,-1,5
 279 698 279 698 305.5 686 c 128,-1,6
 332 674 332 674 358 664 c 128,-1,7
 384 654 384 654 408 654 c 0,8,9
 431 654 431 654 451.5 665.5 c 128,-1,10
 472 677 472 677 492 706 c 1,11,-1
 492 617 l 1,12,13
 472 588 472 588 451.5 576.5 c 128,-1,14
 431 565 431 565 408 565 c 0,15,16
 384 565 384 565 358 575 c 128,-1,17
 332 585 332 585 305.5 597 c 128,-1,18
 279 609 279 609 252 619 c 128,-1,19
 225 629 225 629 198 629 c 0,20,21
 174 629 174 629 150 618 c 128,-1,22
 126 607 126 607 103 580 c 1,23,-1
 103 669 l 1,0,1
30 245 m 2,24,25
 30 272 30 272 51 293 c 128,-1,26
 72 314 72 314 100 314 c 2,27,-1
 356 314 l 1,28,-1
 356 373 l 1,29,-1
 30 373 l 1,30,-1
 30 525 l 1,31,-1
 496 525 l 2,32,33
 524 525 524 525 545 504 c 128,-1,34
 566 483 566 483 566 455 c 2,35,-1
 566 0 l 1,36,-1
 100 0 l 2,37,38
 72 0 72 0 51 21 c 128,-1,39
 30 42 30 42 30 70 c 2,40,-1
 30 245 l 2,24,25
356 151 m 1,41,-1
 356 198 l 1,42,-1
 240 198 l 1,43,-1
 240 151 l 1,44,-1
 356 151 l 1,41,-1
EndSplineSet
EndChar

StartChar: adieresis
Encoding: 228 228 148
Width: 597
Flags: W
LayerCount: 2
Fore
SplineSet
357 598 m 256,0,1
 339 621 339 621 339 649 c 0,2,3
 339 676 339 676 357 699 c 128,-1,4
 375 722 375 722 412 722 c 0,5,6
 450 722 450 722 468.5 699 c 128,-1,7
 487 676 487 676 487 648 c 0,8,9
 487 621 487 621 468.5 598 c 128,-1,10
 450 575 450 575 412 575 c 0,11,12
 375 575 375 575 357 598 c 256,0,1
127 598 m 256,13,14
 109 621 109 621 109 649 c 0,15,16
 109 676 109 676 127 699 c 128,-1,17
 145 722 145 722 182 722 c 0,18,19
 220 722 220 722 238.5 699 c 128,-1,20
 257 676 257 676 257 648 c 0,21,22
 257 621 257 621 238.5 598 c 128,-1,23
 220 575 220 575 182 575 c 0,24,25
 145 575 145 575 127 598 c 256,13,14
30 245 m 2,26,27
 30 272 30 272 51 293 c 128,-1,28
 72 314 72 314 100 314 c 2,29,-1
 356 314 l 1,30,-1
 356 373 l 1,31,-1
 30 373 l 1,32,-1
 30 525 l 1,33,-1
 496 525 l 2,34,35
 524 525 524 525 545 504 c 128,-1,36
 566 483 566 483 566 455 c 2,37,-1
 566 0 l 1,38,-1
 100 0 l 2,39,40
 72 0 72 0 51 21 c 128,-1,41
 30 42 30 42 30 70 c 2,42,-1
 30 245 l 2,26,27
356 151 m 1,43,-1
 356 198 l 1,44,-1
 240 198 l 1,45,-1
 240 151 l 1,46,-1
 356 151 l 1,43,-1
EndSplineSet
EndChar

StartChar: aring
Encoding: 229 229 149
Width: 584
Flags: W
LayerCount: 2
Fore
SplineSet
224 603 m 256,0,1
 211 616 211 616 203.5 633.5 c 128,-1,2
 196 651 196 651 196 670 c 256,3,4
 196 689 196 689 203.5 706.5 c 128,-1,5
 211 724 211 724 224 737 c 128,-1,6
 237 750 237 750 254.5 757.5 c 128,-1,7
 272 765 272 765 291 765 c 256,8,9
 310 765 310 765 327.5 757.5 c 128,-1,10
 345 750 345 750 358 737 c 128,-1,11
 371 724 371 724 378.5 706.5 c 128,-1,12
 386 689 386 689 386 670 c 256,13,14
 386 651 386 651 378.5 633.5 c 128,-1,15
 371 616 371 616 358 603 c 128,-1,16
 345 590 345 590 327.5 582.5 c 128,-1,17
 310 575 310 575 291 575 c 256,18,19
 272 575 272 575 254.5 582.5 c 128,-1,20
 237 590 237 590 224 603 c 256,0,1
291 625 m 256,21,22
 309 625 309 625 322.5 638.5 c 128,-1,23
 336 652 336 652 336 670 c 256,24,25
 336 688 336 688 322.5 701.5 c 128,-1,26
 309 715 309 715 291 715 c 256,27,28
 273 715 273 715 259.5 701.5 c 128,-1,29
 246 688 246 688 246 670 c 256,30,31
 246 652 246 652 259.5 638.5 c 128,-1,32
 273 625 273 625 291 625 c 256,21,22
23 245 m 2,33,34
 23 272 23 272 44 293 c 128,-1,35
 65 314 65 314 93 314 c 2,36,-1
 349 314 l 1,37,-1
 349 373 l 1,38,-1
 23 373 l 1,39,-1
 23 525 l 1,40,-1
 489 525 l 2,41,42
 517 525 517 525 538 504 c 128,-1,43
 559 483 559 483 559 455 c 2,44,-1
 559 0 l 1,45,-1
 93 0 l 2,46,47
 65 0 65 0 44 21 c 128,-1,48
 23 42 23 42 23 70 c 2,49,-1
 23 245 l 2,33,34
349 151 m 1,50,-1
 349 198 l 1,51,-1
 233 198 l 1,52,-1
 233 151 l 1,53,-1
 349 151 l 1,50,-1
EndSplineSet
EndChar

StartChar: ae
Encoding: 230 230 150
Width: 1144
Flags: W
LayerCount: 2
Fore
SplineSet
36 245 m 2,0,1
 36 272 36 272 57.5 293 c 128,-1,2
 79 314 79 314 106 314 c 2,3,-1
 363 314 l 1,4,-1
 363 373 l 1,5,-1
 36 373 l 1,6,-1
 36 525 l 1,7,-1
 503 525 l 2,8,9
 529 525 529 525 550 505.5 c 128,-1,10
 571 486 571 486 573 460 c 1,11,12
 575 486 575 486 596 505.5 c 128,-1,13
 617 525 617 525 643 525 c 2,14,-1
 1040 525 l 2,15,16
 1067 525 1067 525 1088.5 504 c 128,-1,17
 1110 483 1110 483 1110 455 c 2,18,-1
 1110 268 l 2,19,20
 1110 239 1110 239 1088.5 218.5 c 128,-1,21
 1067 198 1067 198 1040 198 c 2,22,-1
 783 198 l 1,23,-1
 783 151 l 1,24,-1
 1110 151 l 1,25,-1
 1040 0 l 1,26,-1
 643 0 l 2,27,28
 618 0 618 0 596.5 17.5 c 128,-1,29
 575 35 575 35 573 61 c 1,30,-1
 573 0 l 1,31,-1
 106 0 l 2,32,33
 79 0 79 0 57.5 20.5 c 128,-1,34
 36 41 36 41 36 70 c 2,35,-1
 36 245 l 2,0,1
900 314 m 1,36,-1
 900 373 l 1,37,-1
 783 373 l 1,38,-1
 783 314 l 1,39,-1
 900 314 l 1,36,-1
363 151 m 1,40,-1
 363 198 l 1,41,-1
 246 198 l 1,42,-1
 246 151 l 1,43,-1
 363 151 l 1,40,-1
EndSplineSet
EndChar

StartChar: ccedilla
Encoding: 231 231 151
Width: 582
Flags: W
LayerCount: 2
Fore
SplineSet
25 455 m 2,0,1
 25 483 25 483 46 504 c 128,-1,2
 67 525 67 525 95 525 c 2,3,-1
 561 525 l 1,4,-1
 491 373 l 1,5,-1
 235 373 l 1,6,-1
 235 151 l 1,7,-1
 561 151 l 1,8,-1
 491 0 l 1,9,-1
 337 0 l 1,10,11
 359 -4 359 -4 378.5 -12 c 128,-1,12
 398 -20 398 -20 412.5 -32.5 c 128,-1,13
 427 -45 427 -45 435.5 -62.5 c 128,-1,14
 444 -80 444 -80 444 -104 c 0,15,16
 444 -136 444 -136 429 -157.5 c 128,-1,17
 414 -179 414 -179 390 -191.5 c 128,-1,18
 366 -204 366 -204 336 -209 c 128,-1,19
 306 -214 306 -214 275 -214 c 0,20,21
 249 -214 249 -214 225 -211 c 128,-1,22
 201 -208 201 -208 181 -204 c 1,23,-1
 154 -136 l 1,24,25
 165 -141 165 -141 188.5 -145 c 128,-1,26
 212 -149 212 -149 239 -149 c 0,27,28
 258 -149 258 -149 277 -146.5 c 128,-1,29
 296 -144 296 -144 311 -138 c 128,-1,30
 326 -132 326 -132 335.5 -122.5 c 128,-1,31
 345 -113 345 -113 345 -98 c 0,32,33
 345 -75 345 -75 325 -67 c 128,-1,34
 305 -59 305 -59 281 -59 c 0,35,36
 262 -59 262 -59 244.5 -62.5 c 128,-1,37
 227 -66 227 -66 217 -69 c 1,38,-1
 184 -11 l 1,39,40
 192 -7 192 -7 202.5 -4.5 c 128,-1,41
 213 -2 213 -2 224 0 c 1,42,-1
 95 0 l 2,43,44
 67 0 67 0 46 21 c 128,-1,45
 25 42 25 42 25 70 c 2,46,-1
 25 455 l 2,0,1
EndSplineSet
EndChar

StartChar: egrave
Encoding: 232 232 152
Width: 586
Flags: W
LayerCount: 2
Fore
SplineSet
154 727 m 1,0,-1
 434 639 l 1,1,-1
 434 585 l 1,2,-1
 154 631 l 1,3,-1
 154 727 l 1,0,-1
28 455 m 2,4,5
 28 483 28 483 49 504 c 128,-1,6
 70 525 70 525 98 525 c 2,7,-1
 494 525 l 2,8,9
 522 525 522 525 543 504 c 128,-1,10
 564 483 564 483 564 455 c 2,11,-1
 564 268 l 2,12,13
 564 240 564 240 543 219 c 128,-1,14
 522 198 522 198 494 198 c 2,15,-1
 238 198 l 1,16,-1
 238 151 l 1,17,-1
 564 151 l 1,18,-1
 494 0 l 1,19,-1
 98 0 l 2,20,21
 70 0 70 0 49 21 c 128,-1,22
 28 42 28 42 28 70 c 2,23,-1
 28 455 l 2,4,5
354 314 m 1,24,-1
 354 373 l 1,25,-1
 238 373 l 1,26,-1
 238 314 l 1,27,-1
 354 314 l 1,24,-1
EndSplineSet
EndChar

StartChar: eacute
Encoding: 233 233 153
Width: 586
Flags: W
LayerCount: 2
Fore
SplineSet
151 639 m 1,0,-1
 431 727 l 1,1,-1
 431 631 l 1,2,-1
 151 585 l 1,3,-1
 151 639 l 1,0,-1
25 455 m 2,4,5
 25 483 25 483 46 504 c 128,-1,6
 67 525 67 525 95 525 c 2,7,-1
 491 525 l 2,8,9
 519 525 519 525 540 504 c 128,-1,10
 561 483 561 483 561 455 c 2,11,-1
 561 268 l 2,12,13
 561 240 561 240 540 219 c 128,-1,14
 519 198 519 198 491 198 c 2,15,-1
 235 198 l 1,16,-1
 235 151 l 1,17,-1
 561 151 l 1,18,-1
 491 0 l 1,19,-1
 95 0 l 2,20,21
 67 0 67 0 46 21 c 128,-1,22
 25 42 25 42 25 70 c 2,23,-1
 25 455 l 2,4,5
351 314 m 1,24,-1
 351 373 l 1,25,-1
 235 373 l 1,26,-1
 235 314 l 1,27,-1
 351 314 l 1,24,-1
EndSplineSet
EndChar

StartChar: ecircumflex
Encoding: 234 234 154
Width: 591
Flags: W
LayerCount: 2
Fore
SplineSet
95 639 m 1,0,-1
 295 727 l 1,1,-1
 495 639 l 1,2,-1
 495 585 l 1,3,-1
 295 631 l 1,4,-1
 95 585 l 1,5,-1
 95 639 l 1,0,-1
29 455 m 2,6,7
 29 483 29 483 50 504 c 128,-1,8
 71 525 71 525 99 525 c 2,9,-1
 495 525 l 2,10,11
 523 525 523 525 544 504 c 128,-1,12
 565 483 565 483 565 455 c 2,13,-1
 565 268 l 2,14,15
 565 240 565 240 544 219 c 128,-1,16
 523 198 523 198 495 198 c 2,17,-1
 239 198 l 1,18,-1
 239 151 l 1,19,-1
 565 151 l 1,20,-1
 495 0 l 1,21,-1
 99 0 l 2,22,23
 71 0 71 0 50 21 c 128,-1,24
 29 42 29 42 29 70 c 2,25,-1
 29 455 l 2,6,7
355 314 m 1,26,-1
 355 373 l 1,27,-1
 239 373 l 1,28,-1
 239 314 l 1,29,-1
 355 314 l 1,26,-1
EndSplineSet
EndChar

StartChar: edieresis
Encoding: 235 235 155
Width: 595
Flags: W
LayerCount: 2
Fore
SplineSet
356 598 m 256,0,1
 338 621 338 621 338 649 c 0,2,3
 338 676 338 676 356 699 c 128,-1,4
 374 722 374 722 411 722 c 0,5,6
 449 722 449 722 467.5 699 c 128,-1,7
 486 676 486 676 486 648 c 0,8,9
 486 621 486 621 467.5 598 c 128,-1,10
 449 575 449 575 411 575 c 0,11,12
 374 575 374 575 356 598 c 256,0,1
126 598 m 256,13,14
 108 621 108 621 108 649 c 0,15,16
 108 676 108 676 126 699 c 128,-1,17
 144 722 144 722 181 722 c 0,18,19
 219 722 219 722 237.5 699 c 128,-1,20
 256 676 256 676 256 648 c 0,21,22
 256 621 256 621 237.5 598 c 128,-1,23
 219 575 219 575 181 575 c 0,24,25
 144 575 144 575 126 598 c 256,13,14
31 455 m 2,26,27
 31 483 31 483 52 504 c 128,-1,28
 73 525 73 525 101 525 c 2,29,-1
 497 525 l 2,30,31
 525 525 525 525 546 504 c 128,-1,32
 567 483 567 483 567 455 c 2,33,-1
 567 268 l 2,34,35
 567 240 567 240 546 219 c 128,-1,36
 525 198 525 198 497 198 c 2,37,-1
 241 198 l 1,38,-1
 241 151 l 1,39,-1
 567 151 l 1,40,-1
 497 0 l 1,41,-1
 101 0 l 2,42,43
 73 0 73 0 52 21 c 128,-1,44
 31 42 31 42 31 70 c 2,45,-1
 31 455 l 2,26,27
357 314 m 1,46,-1
 357 373 l 1,47,-1
 241 373 l 1,48,-1
 241 314 l 1,49,-1
 357 314 l 1,46,-1
EndSplineSet
EndChar

StartChar: igrave
Encoding: 236 236 156
Width: 283
Flags: W
LayerCount: 2
Fore
SplineSet
2 727 m 1,0,-1
 282 639 l 1,1,-1
 282 585 l 1,2,-1
 2 631 l 1,3,-1
 2 727 l 1,0,-1
36 525 m 1,4,-1
 246 525 l 1,5,-1
 246 0 l 1,6,-1
 36 0 l 1,7,-1
 36 525 l 1,4,-1
EndSplineSet
EndChar

StartChar: iacute
Encoding: 237 237 157
Width: 283
Flags: W
LayerCount: 2
Fore
SplineSet
2 639 m 1,0,-1
 282 727 l 1,1,-1
 282 631 l 1,2,-1
 2 585 l 1,3,-1
 2 639 l 1,0,-1
36 525 m 1,4,-1
 246 525 l 1,5,-1
 246 0 l 1,6,-1
 36 0 l 1,7,-1
 36 525 l 1,4,-1
EndSplineSet
EndChar

StartChar: icircumflex
Encoding: 238 238 158
Width: 283
Flags: W
LayerCount: 2
Fore
SplineSet
-58 639 m 1,0,-1
 142 727 l 1,1,-1
 342 639 l 1,2,-1
 342 585 l 1,3,-1
 142 631 l 1,4,-1
 -58 585 l 1,5,-1
 -58 639 l 1,0,-1
36 525 m 1,6,-1
 246 525 l 1,7,-1
 246 0 l 1,8,-1
 36 0 l 1,9,-1
 36 525 l 1,6,-1
EndSplineSet
EndChar

StartChar: idieresis
Encoding: 239 239 159
Width: 283
Flags: W
LayerCount: 2
Fore
SplineSet
201 598 m 256,0,1
 183 621 183 621 183 649 c 0,2,3
 183 676 183 676 201 699 c 128,-1,4
 219 722 219 722 256 722 c 0,5,6
 294 722 294 722 312.5 699 c 128,-1,7
 331 676 331 676 331 648 c 0,8,9
 331 621 331 621 312.5 598 c 128,-1,10
 294 575 294 575 256 575 c 0,11,12
 219 575 219 575 201 598 c 256,0,1
-29 598 m 256,13,14
 -47 621 -47 621 -47 649 c 0,15,16
 -47 676 -47 676 -29 699 c 128,-1,17
 -11 722 -11 722 26 722 c 0,18,19
 64 722 64 722 82.5 699 c 128,-1,20
 101 676 101 676 101 648 c 0,21,22
 101 621 101 621 82.5 598 c 128,-1,23
 64 575 64 575 26 575 c 0,24,25
 -11 575 -11 575 -29 598 c 256,13,14
36 525 m 1,26,-1
 246 525 l 1,27,-1
 246 0 l 1,28,-1
 36 0 l 1,29,-1
 36 525 l 1,26,-1
EndSplineSet
EndChar

StartChar: ntilde
Encoding: 241 241 160
Width: 599
Flags: W
LayerCount: 2
Fore
SplineSet
105 669 m 1,0,1
 128 696 128 696 152 707 c 128,-1,2
 176 718 176 718 200 718 c 0,3,4
 227 718 227 718 254 708 c 128,-1,5
 281 698 281 698 307.5 686 c 128,-1,6
 334 674 334 674 360 664 c 128,-1,7
 386 654 386 654 410 654 c 0,8,9
 433 654 433 654 453.5 665.5 c 128,-1,10
 474 677 474 677 494 706 c 1,11,-1
 494 617 l 1,12,13
 474 588 474 588 453.5 576.5 c 128,-1,14
 433 565 433 565 410 565 c 0,15,16
 386 565 386 565 360 575 c 128,-1,17
 334 585 334 585 307.5 597 c 128,-1,18
 281 609 281 609 254 619 c 128,-1,19
 227 629 227 629 200 629 c 0,20,21
 176 629 176 629 152 618 c 128,-1,22
 128 607 128 607 105 580 c 1,23,-1
 105 669 l 1,0,1
32 525 m 1,24,-1
 498 525 l 2,25,26
 526 525 526 525 547 504 c 128,-1,27
 568 483 568 483 568 455 c 2,28,-1
 568 0 l 1,29,-1
 358 0 l 1,30,-1
 358 373 l 1,31,-1
 242 373 l 1,32,-1
 242 0 l 1,33,-1
 32 0 l 1,34,-1
 32 525 l 1,24,-1
EndSplineSet
EndChar

StartChar: ograve
Encoding: 242 242 161
Width: 589
Flags: W
LayerCount: 2
Fore
SplineSet
156 727 m 1,0,-1
 436 639 l 1,1,-1
 436 585 l 1,2,-1
 156 631 l 1,3,-1
 156 727 l 1,0,-1
28 455 m 2,4,5
 28 483 28 483 49 504 c 128,-1,6
 70 525 70 525 98 525 c 2,7,-1
 494 525 l 2,8,9
 522 525 522 525 543 504 c 128,-1,10
 564 483 564 483 564 455 c 2,11,-1
 564 70 l 2,12,13
 564 42 564 42 543 21 c 128,-1,14
 522 0 522 0 494 0 c 2,15,-1
 98 0 l 2,16,17
 70 0 70 0 49 21 c 128,-1,18
 28 42 28 42 28 70 c 2,19,-1
 28 455 l 2,4,5
354 151 m 1,20,-1
 354 373 l 1,21,-1
 238 373 l 1,22,-1
 238 151 l 1,23,-1
 354 151 l 1,20,-1
EndSplineSet
EndChar

StartChar: oacute
Encoding: 243 243 162
Width: 589
Flags: W
LayerCount: 2
Fore
SplineSet
153 639 m 1,0,-1
 433 727 l 1,1,-1
 433 631 l 1,2,-1
 153 585 l 1,3,-1
 153 639 l 1,0,-1
25 455 m 2,4,5
 25 483 25 483 46 504 c 128,-1,6
 67 525 67 525 95 525 c 2,7,-1
 491 525 l 2,8,9
 519 525 519 525 540 504 c 128,-1,10
 561 483 561 483 561 455 c 2,11,-1
 561 70 l 2,12,13
 561 42 561 42 540 21 c 128,-1,14
 519 0 519 0 491 0 c 2,15,-1
 95 0 l 2,16,17
 67 0 67 0 46 21 c 128,-1,18
 25 42 25 42 25 70 c 2,19,-1
 25 455 l 2,4,5
351 151 m 1,20,-1
 351 373 l 1,21,-1
 235 373 l 1,22,-1
 235 151 l 1,23,-1
 351 151 l 1,20,-1
EndSplineSet
EndChar

StartChar: ocircumflex
Encoding: 244 244 163
Width: 594
Flags: W
LayerCount: 2
Fore
SplineSet
97 639 m 1,0,-1
 297 727 l 1,1,-1
 497 639 l 1,2,-1
 497 585 l 1,3,-1
 297 631 l 1,4,-1
 97 585 l 1,5,-1
 97 639 l 1,0,-1
29 455 m 2,6,7
 29 483 29 483 50 504 c 128,-1,8
 71 525 71 525 99 525 c 2,9,-1
 495 525 l 2,10,11
 523 525 523 525 544 504 c 128,-1,12
 565 483 565 483 565 455 c 2,13,-1
 565 70 l 2,14,15
 565 42 565 42 544 21 c 128,-1,16
 523 0 523 0 495 0 c 2,17,-1
 99 0 l 2,18,19
 71 0 71 0 50 21 c 128,-1,20
 29 42 29 42 29 70 c 2,21,-1
 29 455 l 2,6,7
355 151 m 1,22,-1
 355 373 l 1,23,-1
 239 373 l 1,24,-1
 239 151 l 1,25,-1
 355 151 l 1,22,-1
EndSplineSet
EndChar

StartChar: otilde
Encoding: 245 245 164
Width: 598
Flags: W
LayerCount: 2
Fore
SplineSet
104 669 m 1,0,1
 127 696 127 696 151 707 c 128,-1,2
 175 718 175 718 199 718 c 0,3,4
 226 718 226 718 253 708 c 128,-1,5
 280 698 280 698 306.5 686 c 128,-1,6
 333 674 333 674 359 664 c 128,-1,7
 385 654 385 654 409 654 c 0,8,9
 432 654 432 654 452.5 665.5 c 128,-1,10
 473 677 473 677 493 706 c 1,11,-1
 493 617 l 1,12,13
 473 588 473 588 452.5 576.5 c 128,-1,14
 432 565 432 565 409 565 c 0,15,16
 385 565 385 565 359 575 c 128,-1,17
 333 585 333 585 306.5 597 c 128,-1,18
 280 609 280 609 253 619 c 128,-1,19
 226 629 226 629 199 629 c 0,20,21
 175 629 175 629 151 618 c 128,-1,22
 127 607 127 607 104 580 c 1,23,-1
 104 669 l 1,0,1
31 455 m 2,24,25
 31 483 31 483 52 504 c 128,-1,26
 73 525 73 525 101 525 c 2,27,-1
 497 525 l 2,28,29
 525 525 525 525 546 504 c 128,-1,30
 567 483 567 483 567 455 c 2,31,-1
 567 70 l 2,32,33
 567 42 567 42 546 21 c 128,-1,34
 525 0 525 0 497 0 c 2,35,-1
 101 0 l 2,36,37
 73 0 73 0 52 21 c 128,-1,38
 31 42 31 42 31 70 c 2,39,-1
 31 455 l 2,24,25
357 151 m 1,40,-1
 357 373 l 1,41,-1
 241 373 l 1,42,-1
 241 151 l 1,43,-1
 357 151 l 1,40,-1
EndSplineSet
EndChar

StartChar: odieresis
Encoding: 246 246 165
Width: 598
Flags: W
LayerCount: 2
Fore
SplineSet
358 598 m 256,0,1
 340 621 340 621 340 649 c 0,2,3
 340 676 340 676 358 699 c 128,-1,4
 376 722 376 722 413 722 c 0,5,6
 451 722 451 722 469.5 699 c 128,-1,7
 488 676 488 676 488 648 c 0,8,9
 488 621 488 621 469.5 598 c 128,-1,10
 451 575 451 575 413 575 c 0,11,12
 376 575 376 575 358 598 c 256,0,1
128 598 m 256,13,14
 110 621 110 621 110 649 c 0,15,16
 110 676 110 676 128 699 c 128,-1,17
 146 722 146 722 183 722 c 0,18,19
 221 722 221 722 239.5 699 c 128,-1,20
 258 676 258 676 258 648 c 0,21,22
 258 621 258 621 239.5 598 c 128,-1,23
 221 575 221 575 183 575 c 0,24,25
 146 575 146 575 128 598 c 256,13,14
31 455 m 2,26,27
 31 483 31 483 52 504 c 128,-1,28
 73 525 73 525 101 525 c 2,29,-1
 497 525 l 2,30,31
 525 525 525 525 546 504 c 128,-1,32
 567 483 567 483 567 455 c 2,33,-1
 567 70 l 2,34,35
 567 42 567 42 546 21 c 128,-1,36
 525 0 525 0 497 0 c 2,37,-1
 101 0 l 2,38,39
 73 0 73 0 52 21 c 128,-1,40
 31 42 31 42 31 70 c 2,41,-1
 31 455 l 2,26,27
357 151 m 1,42,-1
 357 373 l 1,43,-1
 241 373 l 1,44,-1
 241 151 l 1,45,-1
 357 151 l 1,42,-1
EndSplineSet
EndChar

StartChar: divide
Encoding: 247 247 166
Width: 488
Flags: W
LayerCount: 2
Fore
SplineSet
189 486 m 256,0,1
 171 509 171 509 171 537 c 0,2,3
 171 564 171 564 189 587 c 128,-1,4
 207 610 207 610 244 610 c 0,5,6
 282 610 282 610 300.5 587 c 128,-1,7
 319 564 319 564 319 536 c 0,8,9
 319 509 319 509 300.5 486 c 128,-1,10
 282 463 282 463 244 463 c 0,11,12
 207 463 207 463 189 486 c 256,0,1
11 426 m 1,13,-1
 477 426 l 1,14,-1
 477 274 l 1,15,-1
 11 274 l 1,16,-1
 11 426 l 1,13,-1
169 163 m 0,17,18
 169 191 169 191 187.5 214 c 128,-1,19
 206 237 206 237 244 237 c 256,20,21
 282 237 282 237 300.5 214 c 128,-1,22
 319 191 319 191 319 163 c 0,23,24
 319 136 319 136 300.5 113 c 128,-1,25
 282 90 282 90 244 90 c 256,26,27
 206 90 206 90 187.5 113 c 128,-1,28
 169 136 169 136 169 163 c 0,17,18
EndSplineSet
EndChar

StartChar: oslash
Encoding: 248 248 167
Width: 652
Flags: W
LayerCount: 2
Fore
SplineSet
60 54 m 1,0,1
 59 59 59 59 58.5 63 c 128,-1,2
 58 67 58 67 58 70 c 2,3,-1
 58 455 l 2,4,5
 58 483 58 483 79 504 c 128,-1,6
 100 525 100 525 128 525 c 2,7,-1
 524 525 l 2,8,9
 536 525 536 525 548 521 c 1,10,-1
 577 549 l 1,11,-1
 623 502 l 1,12,-1
 592 472 l 1,13,14
 593 467 593 467 593.5 463.5 c 128,-1,15
 594 460 594 460 594 455 c 2,16,-1
 594 70 l 2,17,18
 594 43 594 43 573 21.5 c 128,-1,19
 552 0 552 0 524 0 c 2,20,-1
 128 0 l 2,21,22
 122 0 122 0 116.5 1.5 c 128,-1,23
 111 3 111 3 104 5 c 1,24,-1
 75 -22 l 1,25,-1
 29 24 l 1,26,-1
 60 54 l 1,0,1
384 364 m 1,27,-1
 384 374 l 1,28,-1
 268 374 l 1,29,-1
 268 252 l 1,30,-1
 384 364 l 1,27,-1
384 152 m 1,31,-1
 384 273 l 1,32,-1
 268 161 l 1,33,-1
 268 152 l 1,34,-1
 384 152 l 1,31,-1
EndSplineSet
EndChar

StartChar: ugrave
Encoding: 249 249 168
Width: 590
Flags: W
LayerCount: 2
Fore
SplineSet
156 727 m 1,0,-1
 436 639 l 1,1,-1
 436 585 l 1,2,-1
 156 631 l 1,3,-1
 156 727 l 1,0,-1
28 525 m 1,4,-1
 238 525 l 1,5,-1
 238 151 l 1,6,-1
 354 151 l 1,7,-1
 354 525 l 1,8,-1
 564 525 l 1,9,-1
 564 0 l 1,10,-1
 98 0 l 2,11,12
 70 0 70 0 49 21 c 128,-1,13
 28 42 28 42 28 70 c 2,14,-1
 28 525 l 1,4,-1
EndSplineSet
EndChar

StartChar: uacute
Encoding: 250 250 169
Width: 590
Flags: W
LayerCount: 2
Fore
SplineSet
153 639 m 1,0,-1
 433 727 l 1,1,-1
 433 631 l 1,2,-1
 153 585 l 1,3,-1
 153 639 l 1,0,-1
25 525 m 1,4,-1
 235 525 l 1,5,-1
 235 151 l 1,6,-1
 351 151 l 1,7,-1
 351 525 l 1,8,-1
 561 525 l 1,9,-1
 561 0 l 1,10,-1
 95 0 l 2,11,12
 67 0 67 0 46 21 c 128,-1,13
 25 42 25 42 25 70 c 2,14,-1
 25 525 l 1,4,-1
EndSplineSet
EndChar

StartChar: ucircumflex
Encoding: 251 251 170
Width: 595
Flags: W
LayerCount: 2
Fore
SplineSet
97 639 m 1,0,-1
 297 727 l 1,1,-1
 497 639 l 1,2,-1
 497 585 l 1,3,-1
 297 631 l 1,4,-1
 97 585 l 1,5,-1
 97 639 l 1,0,-1
29 525 m 1,6,-1
 239 525 l 1,7,-1
 239 151 l 1,8,-1
 355 151 l 1,9,-1
 355 525 l 1,10,-1
 565 525 l 1,11,-1
 565 0 l 1,12,-1
 99 0 l 2,13,14
 71 0 71 0 50 21 c 128,-1,15
 29 42 29 42 29 70 c 2,16,-1
 29 525 l 1,6,-1
EndSplineSet
EndChar

StartChar: udieresis
Encoding: 252 252 171
Width: 599
Flags: W
LayerCount: 2
Fore
SplineSet
358 598 m 256,0,1
 340 621 340 621 340 649 c 0,2,3
 340 676 340 676 358 699 c 128,-1,4
 376 722 376 722 413 722 c 0,5,6
 451 722 451 722 469.5 699 c 128,-1,7
 488 676 488 676 488 648 c 0,8,9
 488 621 488 621 469.5 598 c 128,-1,10
 451 575 451 575 413 575 c 0,11,12
 376 575 376 575 358 598 c 256,0,1
128 598 m 256,13,14
 110 621 110 621 110 649 c 0,15,16
 110 676 110 676 128 699 c 128,-1,17
 146 722 146 722 183 722 c 0,18,19
 221 722 221 722 239.5 699 c 128,-1,20
 258 676 258 676 258 648 c 0,21,22
 258 621 258 621 239.5 598 c 128,-1,23
 221 575 221 575 183 575 c 0,24,25
 146 575 146 575 128 598 c 256,13,14
31 525 m 1,26,-1
 241 525 l 1,27,-1
 241 151 l 1,28,-1
 357 151 l 1,29,-1
 357 525 l 1,30,-1
 567 525 l 1,31,-1
 567 0 l 1,32,-1
 101 0 l 2,33,34
 73 0 73 0 52 21 c 128,-1,35
 31 42 31 42 31 70 c 2,36,-1
 31 525 l 1,26,-1
EndSplineSet
EndChar

StartChar: ydieresis
Encoding: 255 255 172
Width: 597
Flags: W
LayerCount: 2
Fore
SplineSet
357 598 m 256,0,1
 339 621 339 621 339 649 c 0,2,3
 339 676 339 676 357 699 c 128,-1,4
 375 722 375 722 412 722 c 0,5,6
 450 722 450 722 468.5 699 c 128,-1,7
 487 676 487 676 487 648 c 0,8,9
 487 621 487 621 468.5 598 c 128,-1,10
 450 575 450 575 412 575 c 0,11,12
 375 575 375 575 357 598 c 256,0,1
127 598 m 256,13,14
 109 621 109 621 109 649 c 0,15,16
 109 676 109 676 127 699 c 128,-1,17
 145 722 145 722 182 722 c 0,18,19
 220 722 220 722 238.5 699 c 128,-1,20
 257 676 257 676 257 648 c 0,21,22
 257 621 257 621 238.5 598 c 128,-1,23
 220 575 220 575 182 575 c 0,24,25
 145 575 145 575 127 598 c 256,13,14
29 525 m 1,26,-1
 239 525 l 1,27,-1
 239 152 l 1,28,-1
 355 152 l 1,29,-1
 355 525 l 1,30,-1
 565 525 l 1,31,-1
 565 -163 l 2,32,33
 565 -191 565 -191 544 -212 c 128,-1,34
 523 -233 523 -233 495 -233 c 2,35,-1
 99 -233 l 1,36,-1
 29 -81 l 1,37,-1
 355 -81 l 1,38,-1
 355 0 l 1,39,-1
 99 0 l 2,40,41
 71 0 71 0 50 21 c 128,-1,42
 29 42 29 42 29 70 c 2,43,-1
 29 525 l 1,26,-1
EndSplineSet
EndChar

StartChar: numbersign
Encoding: 35 35 173
Width: 809
Flags: W
LayerCount: 2
Fore
SplineSet
160 142 m 1,0,-1
 18 142 l 1,1,-1
 41 279 l 1,2,-1
 184 279 l 1,3,-1
 209 421 l 1,4,-1
 67 421 l 1,5,-1
 90 558 l 1,6,-1
 233 558 l 1,7,-1
 258 700 l 1,8,-1
 395 700 l 1,9,-1
 369 558 l 1,10,-1
 511 558 l 1,11,-1
 537 700 l 1,12,-1
 673 700 l 1,13,-1
 648 558 l 1,14,-1
 790 558 l 1,15,-1
 767 421 l 1,16,-1
 624 421 l 1,17,-1
 599 279 l 1,18,-1
 741 279 l 1,19,-1
 718 142 l 1,20,-1
 575 142 l 1,21,-1
 550 0 l 1,22,-1
 413 0 l 1,23,-1
 439 142 l 1,24,-1
 297 142 l 1,25,-1
 271 0 l 1,26,-1
 135 0 l 1,27,-1
 160 142 l 1,0,-1
462 279 m 1,28,-1
 488 421 l 1,29,-1
 346 421 l 1,30,-1
 320 279 l 1,31,-1
 462 279 l 1,28,-1
EndSplineSet
EndChar

StartChar: breve
Encoding: 728 728 174
Width: 316
Flags: W
LayerCount: 2
Fore
SplineSet
107 586 m 256,0,1
 83 597 83 597 64 616 c 128,-1,2
 45 635 45 635 34 659 c 128,-1,3
 23 683 23 683 23 710 c 1,4,-1
 73 710 l 1,5,6
 73 693 73 693 80 678 c 128,-1,7
 87 663 87 663 99 651 c 128,-1,8
 111 639 111 639 126 632 c 128,-1,9
 141 625 141 625 158 625 c 0,10,11
 174 625 174 625 189.5 632 c 128,-1,12
 205 639 205 639 217 651 c 128,-1,13
 229 663 229 663 236 678 c 128,-1,14
 243 693 243 693 243 710 c 1,15,-1
 293 710 l 1,16,17
 293 683 293 683 282 659 c 128,-1,18
 271 635 271 635 252 616 c 128,-1,19
 233 597 233 597 209 586 c 128,-1,20
 185 575 185 575 158 575 c 256,21,22
 131 575 131 575 107 586 c 256,0,1
EndSplineSet
EndChar

StartChar: caron
Encoding: 711 711 175
Width: 438
Flags: W
LayerCount: 2
Fore
SplineSet
19 673 m 1,0,-1
 19 727 l 1,1,-1
 219 681 l 1,2,-1
 419 727 l 1,3,-1
 419 673 l 1,4,-1
 219 585 l 1,5,-1
 19 673 l 1,0,-1
EndSplineSet
EndChar

StartChar: circumflex
Encoding: 710 710 176
Width: 440
Flags: W
LayerCount: 2
Fore
SplineSet
20 639 m 1,0,-1
 220 727 l 1,1,-1
 420 639 l 1,2,-1
 420 585 l 1,3,-1
 220 631 l 1,4,-1
 20 585 l 1,5,-1
 20 639 l 1,0,-1
EndSplineSet
EndChar

StartChar: dotaccent
Encoding: 729 729 177
Width: 200
Flags: W
LayerCount: 2
Fore
SplineSet
44 598 m 256,0,1
 26 621 26 621 26 649 c 0,2,3
 26 676 26 676 44 699 c 128,-1,4
 62 722 62 722 99 722 c 0,5,6
 137 722 137 722 155.5 699 c 128,-1,7
 174 676 174 676 174 648 c 0,8,9
 174 621 174 621 155.5 598 c 128,-1,10
 137 575 137 575 99 575 c 0,11,12
 62 575 62 575 44 598 c 256,0,1
EndSplineSet
EndChar

StartChar: hungarumlaut
Encoding: 733 733 178
Width: 279
Flags: W
LayerCount: 2
Fore
SplineSet
185 749 m 1,0,-1
 257 749 l 1,1,-1
 199 585 l 1,2,-1
 147 585 l 1,3,-1
 185 749 l 1,0,-1
65 749 m 1,4,-1
 137 749 l 1,5,-1
 79 585 l 1,6,-1
 27 585 l 1,7,-1
 65 749 l 1,4,-1
EndSplineSet
EndChar

StartChar: ogonek
Encoding: 731 731 179
Width: 300
Flags: W
LayerCount: 2
Fore
SplineSet
198 5 m 1,0,1
 188 -3 188 -3 178 -15.5 c 128,-1,2
 168 -28 168 -28 159.5 -43.5 c 128,-1,3
 151 -59 151 -59 145.5 -75 c 128,-1,4
 140 -91 140 -91 140 -106 c 0,5,6
 140 -133 140 -133 155 -143 c 128,-1,7
 170 -153 170 -153 191 -153 c 0,8,9
 216 -153 216 -153 242.5 -144 c 128,-1,10
 269 -135 269 -135 286 -126 c 1,11,-1
 264 -198 l 1,12,13
 244 -208 244 -208 218.5 -213 c 128,-1,14
 193 -218 193 -218 166 -218 c 0,15,16
 140 -218 140 -218 115 -212 c 128,-1,17
 90 -206 90 -206 70.5 -193.5 c 128,-1,18
 51 -181 51 -181 39 -160 c 128,-1,19
 27 -139 27 -139 27 -109 c 0,20,21
 27 -83 27 -83 39.5 -53.5 c 128,-1,22
 52 -24 52 -24 78 5 c 1,23,-1
 198 5 l 1,0,1
EndSplineSet
EndChar

StartChar: ring
Encoding: 730 730 180
Width: 240
Flags: W
LayerCount: 2
Fore
SplineSet
83 582 m 1,0,1
 66 590 66 590 53 603 c 128,-1,2
 40 616 40 616 32.5 633.5 c 128,-1,3
 25 651 25 651 25 670 c 256,4,5
 25 689 25 689 32.5 706.5 c 128,-1,6
 40 724 40 724 53 737 c 128,-1,7
 66 750 66 750 83.5 757.5 c 128,-1,8
 101 765 101 765 120 765 c 256,9,10
 139 765 139 765 156.5 757.5 c 128,-1,11
 174 750 174 750 187 737 c 128,-1,12
 200 724 200 724 207.5 706.5 c 128,-1,13
 215 689 215 689 215 670 c 256,14,15
 215 651 215 651 207.5 633.5 c 128,-1,16
 200 616 200 616 187 603 c 128,-1,17
 174 590 174 590 156.5 582.5 c 128,-1,18
 139 575 139 575 120 575 c 256,19,20
 101 575 101 575 83 582 c 1,0,1
120 625 m 256,21,22
 138 625 138 625 151.5 638.5 c 128,-1,23
 165 652 165 652 165 670 c 256,24,25
 165 688 165 688 151.5 701.5 c 128,-1,26
 138 715 138 715 120 715 c 256,27,28
 102 715 102 715 88.5 701.5 c 128,-1,29
 75 688 75 688 75 670 c 256,30,31
 75 652 75 652 88.5 638.5 c 128,-1,32
 102 625 102 625 120 625 c 256,21,22
EndSplineSet
EndChar

StartChar: tilde
Encoding: 732 732 181
Width: 449
Flags: W
LayerCount: 2
Fore
SplineSet
28 669 m 1,0,1
 51 696 51 696 75 707 c 128,-1,2
 99 718 99 718 123 718 c 0,3,4
 150 718 150 718 177 708 c 128,-1,5
 204 698 204 698 230.5 686 c 128,-1,6
 257 674 257 674 283 664 c 128,-1,7
 309 654 309 654 333 654 c 0,8,9
 356 654 356 654 376.5 665.5 c 128,-1,10
 397 677 397 677 417 706 c 1,11,-1
 417 617 l 1,12,13
 397 588 397 588 376.5 576.5 c 128,-1,14
 356 565 356 565 333 565 c 0,15,16
 309 565 309 565 283 575 c 128,-1,17
 257 585 257 585 230.5 597 c 128,-1,18
 204 609 204 609 177 619 c 128,-1,19
 150 629 150 629 123 629 c 0,20,21
 99 629 99 629 75 618 c 128,-1,22
 51 607 51 607 28 580 c 1,23,-1
 28 669 l 1,0,1
EndSplineSet
EndChar

StartChar: OE
Encoding: 338 338 182
Width: 1235
Flags: W
LayerCount: 2
Fore
SplineSet
36 630 m 2,0,1
 36 658 36 658 57 679 c 128,-1,2
 78 700 78 700 106 700 c 2,3,-1
 549 700 l 2,4,5
 577 700 577 700 598 679 c 128,-1,6
 619 658 619 658 619 630 c 2,7,-1
 619 700 l 1,8,-1
 1202 700 l 1,9,-1
 1132 548 l 1,10,-1
 829 548 l 1,11,-1
 829 408 l 1,12,-1
 1132 408 l 1,13,-1
 1132 292 l 1,14,-1
 829 292 l 1,15,-1
 829 152 l 1,16,-1
 1202 152 l 1,17,-1
 1132 0 l 1,18,-1
 619 0 l 1,19,-1
 619 64 l 1,20,21
 615 37 615 37 595 18.5 c 128,-1,22
 575 0 575 0 549 0 c 2,23,-1
 106 0 l 2,24,25
 78 0 78 0 57 21 c 128,-1,26
 36 42 36 42 36 70 c 2,27,-1
 36 630 l 2,0,1
409 152 m 1,28,-1
 409 548 l 1,29,-1
 246 548 l 1,30,-1
 246 152 l 1,31,-1
 409 152 l 1,28,-1
EndSplineSet
EndChar

StartChar: Ydieresis
Encoding: 376 376 183
Width: 721
Flags: W
LayerCount: 2
Fore
SplineSet
419 773 m 256,0,1
 401 796 401 796 401 824 c 0,2,3
 401 851 401 851 419 874 c 128,-1,4
 437 897 437 897 474 897 c 0,5,6
 512 897 512 897 530.5 874 c 128,-1,7
 549 851 549 851 549 823 c 0,8,9
 549 796 549 796 530.5 773 c 128,-1,10
 512 750 512 750 474 750 c 0,11,12
 437 750 437 750 419 773 c 256,0,1
189 773 m 256,13,14
 171 796 171 796 171 824 c 0,15,16
 171 851 171 851 189 874 c 128,-1,17
 207 897 207 897 244 897 c 0,18,19
 282 897 282 897 300.5 874 c 128,-1,20
 319 851 319 851 319 823 c 0,21,22
 319 796 319 796 300.5 773 c 128,-1,23
 282 750 282 750 244 750 c 0,24,25
 207 750 207 750 189 773 c 256,13,14
255 315 m 1,26,-1
 11 700 l 1,27,-1
 267 700 l 1,28,-1
 360 553 l 1,29,-1
 453 700 l 1,30,-1
 710 700 l 1,31,-1
 465 315 l 1,32,-1
 465 0 l 1,33,-1
 255 0 l 1,34,-1
 255 315 l 1,26,-1
EndSplineSet
EndChar

StartChar: fi
Encoding: 64257 64257 184
Width: 729
Flags: W
LayerCount: 2
Fore
SplineSet
85 292 m 1,0,-1
 27 292 l 1,1,-1
 27 408 l 1,2,-1
 85 408 l 1,3,-1
 85 630 l 2,4,5
 85 658 85 658 106 679 c 128,-1,6
 127 700 127 700 155 700 c 2,7,-1
 694 700 l 1,8,-1
 624 548 l 1,9,-1
 295 548 l 1,10,-1
 295 408 l 1,11,-1
 411 408 l 1,12,-1
 411 292 l 1,13,-1
 295 292 l 1,14,-1
 295 0 l 1,15,-1
 85 0 l 1,16,-1
 85 292 l 1,0,-1
484 485 m 1,17,-1
 694 485 l 1,18,-1
 694 0 l 1,19,-1
 484 0 l 1,20,-1
 484 485 l 1,17,-1
EndSplineSet
EndChar

StartChar: fl
Encoding: 64258 64258 185
Width: 730
Flags: W
LayerCount: 2
Fore
SplineSet
85 292 m 1,0,-1
 27 292 l 1,1,-1
 27 408 l 1,2,-1
 85 408 l 1,3,-1
 85 630 l 2,4,5
 85 658 85 658 106 679 c 128,-1,6
 127 700 127 700 155 700 c 2,7,-1
 694 700 l 1,8,-1
 694 0 l 1,9,-1
 484 0 l 1,10,-1
 484 548 l 1,11,-1
 295 548 l 1,12,-1
 295 408 l 1,13,-1
 411 408 l 1,14,-1
 411 292 l 1,15,-1
 295 292 l 1,16,-1
 295 0 l 1,17,-1
 85 0 l 1,18,-1
 85 292 l 1,0,-1
EndSplineSet
EndChar

StartChar: dotlessi
Encoding: 305 305 186
Width: 283
Flags: W
LayerCount: 2
Fore
SplineSet
36 525 m 1,0,-1
 246 525 l 1,1,-1
 246 0 l 1,2,-1
 36 0 l 1,3,-1
 36 525 l 1,0,-1
EndSplineSet
EndChar

StartChar: oe
Encoding: 339 339 187
Width: 1144
Flags: W
LayerCount: 2
Fore
SplineSet
36 455 m 2,0,1
 36 483 36 483 57.5 504 c 128,-1,2
 79 525 79 525 106 525 c 2,3,-1
 503 525 l 2,4,5
 529 525 529 525 549.5 506 c 128,-1,6
 570 487 570 487 573 460 c 1,7,8
 574 473 574 473 580 484.5 c 128,-1,9
 586 496 586 496 595.5 505 c 128,-1,10
 605 514 605 514 617.5 519.5 c 128,-1,11
 630 525 630 525 643 525 c 2,12,-1
 1040 525 l 2,13,14
 1067 525 1067 525 1088.5 504 c 128,-1,15
 1110 483 1110 483 1110 455 c 2,16,-1
 1110 268 l 2,17,18
 1110 239 1110 239 1088.5 218.5 c 128,-1,19
 1067 198 1067 198 1040 198 c 2,20,-1
 783 198 l 1,21,-1
 783 151 l 1,22,-1
 1110 151 l 1,23,-1
 1040 0 l 1,24,-1
 643 0 l 2,25,26
 617 0 617 0 596 19 c 128,-1,27
 575 38 575 38 573 64 c 1,28,29
 569 37 569 37 549 18.5 c 128,-1,30
 529 0 529 0 503 0 c 2,31,-1
 106 0 l 2,32,33
 79 0 79 0 57.5 20.5 c 128,-1,34
 36 41 36 41 36 70 c 2,35,-1
 36 455 l 2,0,1
900 314 m 1,36,-1
 900 373 l 1,37,-1
 783 373 l 1,38,-1
 783 314 l 1,39,-1
 900 314 l 1,36,-1
363 151 m 1,40,-1
 363 373 l 1,41,-1
 246 373 l 1,42,-1
 246 151 l 1,43,-1
 363 151 l 1,40,-1
EndSplineSet
EndChar

StartChar: florin
Encoding: 402 402 188
Width: 568
Flags: W
LayerCount: 2
Fore
SplineSet
158 -81 m 1,0,-1
 158 292 l 1,1,-1
 100 292 l 1,2,-1
 100 408 l 1,3,-1
 158 408 l 1,4,-1
 158 630 l 2,5,6
 158 658 158 658 179 679 c 128,-1,7
 200 700 200 700 228 700 c 2,8,-1
 554 700 l 1,9,-1
 484 548 l 1,10,-1
 368 548 l 1,11,-1
 368 408 l 1,12,-1
 484 408 l 1,13,-1
 484 292 l 1,14,-1
 368 292 l 1,15,-1
 368 -163 l 2,16,17
 368 -191 368 -191 347 -212 c 128,-1,18
 326 -233 326 -233 298 -233 c 2,19,-1
 88 -233 l 1,20,-1
 18 -81 l 1,21,-1
 158 -81 l 1,0,-1
EndSplineSet
EndChar

StartChar: quotesinglbase
Encoding: 8218 8218 189
Width: 210
Flags: W
LayerCount: 2
Fore
SplineSet
76 150 m 1,0,-1
 192 150 l 1,1,-1
 134 -83 l 1,2,-1
 19 -83 l 1,3,-1
 76 150 l 1,0,-1
EndSplineSet
EndChar

StartChar: quotedblbase
Encoding: 8222 8222 190
Width: 451
Flags: W
LayerCount: 2
Fore
SplineSet
273 150 m 1,0,-1
 424 150 l 1,1,-1
 366 -117 l 1,2,-1
 214 -117 l 1,3,-1
 273 150 l 1,0,-1
86 150 m 1,4,-1
 238 150 l 1,5,-1
 179 -117 l 1,6,-1
 28 -117 l 1,7,-1
 86 150 l 1,4,-1
EndSplineSet
EndChar

StartChar: quoteleft
Encoding: 8216 8216 191
Width: 252
Flags: W
LayerCount: 2
Fore
SplineSet
79 669 m 1,0,-1
 231 669 l 1,1,-1
 173 401 l 1,2,-1
 21 401 l 1,3,-1
 79 669 l 1,0,-1
EndSplineSet
EndChar

StartChar: quoteright
Encoding: 8217 8217 192
Width: 252
Flags: W
LayerCount: 2
Fore
SplineSet
79 669 m 1,0,-1
 231 669 l 1,1,-1
 173 401 l 1,2,-1
 21 401 l 1,3,-1
 79 669 l 1,0,-1
EndSplineSet
EndChar

StartChar: quotedblleft
Encoding: 8220 8220 193
Width: 451
Flags: W
LayerCount: 2
Fore
SplineSet
273 670 m 1,0,-1
 424 670 l 1,1,-1
 366 402 l 1,2,-1
 214 402 l 1,3,-1
 273 670 l 1,0,-1
86 670 m 1,4,-1
 238 670 l 1,5,-1
 179 402 l 1,6,-1
 28 402 l 1,7,-1
 86 670 l 1,4,-1
EndSplineSet
EndChar

StartChar: quotedblright
Encoding: 8221 8221 194
Width: 451
Flags: W
LayerCount: 2
Fore
SplineSet
273 670 m 1,0,-1
 424 670 l 1,1,-1
 366 402 l 1,2,-1
 214 402 l 1,3,-1
 273 670 l 1,0,-1
86 670 m 1,4,-1
 238 670 l 1,5,-1
 179 402 l 1,6,-1
 28 402 l 1,7,-1
 86 670 l 1,4,-1
EndSplineSet
EndChar

StartChar: fraction
Encoding: 8260 8260 195
Width: 506
Flags: W
LayerCount: 2
Fore
SplineSet
403 700 m 1,0,-1
 503 700 l 1,1,-1
 103 0 l 1,2,-1
 3 0 l 1,3,-1
 403 700 l 1,0,-1
EndSplineSet
EndChar

StartChar: guilsinglleft
Encoding: 8249 8249 196
Width: 293
Flags: W
LayerCount: 2
Fore
SplineSet
6 350 m 1,0,-1
 181 654 l 1,1,-1
 268 604 l 1,2,-1
 122 350 l 1,3,-1
 268 96 l 1,4,-1
 181 46 l 1,5,-1
 6 350 l 1,0,-1
EndSplineSet
EndChar

StartChar: guilsinglright
Encoding: 8250 8250 197
Width: 293
Flags: W
LayerCount: 2
Fore
SplineSet
171 350 m 1,0,-1
 25 604 l 1,1,-1
 112 654 l 1,2,-1
 287 350 l 1,3,-1
 112 46 l 1,4,-1
 25 96 l 1,5,-1
 171 350 l 1,0,-1
EndSplineSet
EndChar

StartChar: endash
Encoding: 8211 8211 198
Width: 500
Flags: W
LayerCount: 2
Fore
SplineSet
0 400 m 1,0,-1
 500 400 l 1,1,-1
 500 300 l 1,2,-1
 0 300 l 1,3,-1
 0 400 l 1,0,-1
EndSplineSet
EndChar

StartChar: emdash
Encoding: 8212 8212 199
Width: 1000
Flags: W
LayerCount: 2
Fore
SplineSet
0 400 m 1,0,-1
 1000 400 l 1,1,-1
 1000 300 l 1,2,-1
 0 300 l 1,3,-1
 0 400 l 1,0,-1
EndSplineSet
EndChar

StartChar: lessequal
Encoding: 8804 8804 200
Width: 572
Flags: W
LayerCount: 2
Fore
SplineSet
13 486 m 1,0,-1
 493 720 l 1,1,-1
 543 616 l 1,2,-1
 157 428 l 1,3,-1
 543 240 l 1,4,-1
 493 136 l 1,5,-1
 13 370 l 1,6,-1
 13 486 l 1,0,-1
13 100 m 1,7,-1
 543 100 l 1,8,-1
 543 0 l 1,9,-1
 13 0 l 1,10,-1
 13 100 l 1,7,-1
EndSplineSet
EndChar

StartChar: approxequal
Encoding: 8776 8776 201
Width: 539
Flags: W
LayerCount: 2
Fore
SplineSet
32 512 m 1,0,1
 61 554 61 554 90 570 c 128,-1,2
 119 586 119 586 148 586 c 0,3,4
 181 586 181 586 213.5 571 c 128,-1,5
 246 556 246 556 278.5 537.5 c 128,-1,6
 311 519 311 519 342.5 504 c 128,-1,7
 374 489 374 489 404 489 c 0,8,9
 431 489 431 489 456.5 506 c 128,-1,10
 482 523 482 523 506 568 c 1,11,-1
 506 433 l 1,12,13
 482 388 482 388 456.5 371 c 128,-1,14
 431 354 431 354 404 354 c 0,15,16
 374 354 374 354 342.5 369 c 128,-1,17
 311 384 311 384 278.5 402.5 c 128,-1,18
 246 421 246 421 213.5 436 c 128,-1,19
 181 451 181 451 148 451 c 0,20,21
 119 451 119 451 90 434.5 c 128,-1,22
 61 418 61 418 32 377 c 1,23,-1
 32 512 l 1,0,1
32 272 m 1,24,25
 61 314 61 314 90 330 c 128,-1,26
 119 346 119 346 148 346 c 0,27,28
 181 346 181 346 213.5 331 c 128,-1,29
 246 316 246 316 278.5 297.5 c 128,-1,30
 311 279 311 279 342.5 264 c 128,-1,31
 374 249 374 249 404 249 c 0,32,33
 431 249 431 249 456.5 266 c 128,-1,34
 482 283 482 283 506 328 c 1,35,-1
 506 193 l 1,36,37
 482 148 482 148 456.5 131 c 128,-1,38
 431 114 431 114 404 114 c 0,39,40
 374 114 374 114 342.5 129 c 128,-1,41
 311 144 311 144 278.5 162.5 c 128,-1,42
 246 181 246 181 213.5 196 c 128,-1,43
 181 211 181 211 148 211 c 0,44,45
 119 211 119 211 90 194.5 c 128,-1,46
 61 178 61 178 32 137 c 1,47,-1
 32 272 l 1,24,25
EndSplineSet
EndChar

StartChar: notequal
Encoding: 8800 8800 202
Width: 492
Flags: W
LayerCount: 2
Fore
SplineSet
117 200 m 1,0,-1
 11 200 l 1,1,-1
 11 300 l 1,2,-1
 183 300 l 1,3,-1
 249 400 l 1,4,-1
 11 400 l 1,5,-1
 11 500 l 1,6,-1
 315 500 l 1,7,-1
 381 600 l 1,8,-1
 441 600 l 1,9,-1
 375 500 l 1,10,-1
 481 500 l 1,11,-1
 481 400 l 1,12,-1
 309 400 l 1,13,-1
 243 300 l 1,14,-1
 481 300 l 1,15,-1
 481 200 l 1,16,-1
 177 200 l 1,17,-1
 111 100 l 1,18,-1
 51 100 l 1,19,-1
 117 200 l 1,0,-1
EndSplineSet
EndChar

StartChar: partialdiff
Encoding: 8706 8706 203
Width: 481
Flags: W
LayerCount: 2
Fore
SplineSet
28 83 m 1,0,1
 18 111 18 111 18 142 c 0,2,3
 18 189 18 189 39 238.5 c 128,-1,4
 60 288 60 288 96 329 c 128,-1,5
 132 370 132 370 179.5 396 c 128,-1,6
 227 422 227 422 281 422 c 0,7,8
 331 422 331 422 370 393 c 128,-1,9
 409 364 409 364 423 296 c 1,10,11
 426 314 426 314 428 331.5 c 128,-1,12
 430 349 430 349 430 366 c 0,13,14
 430 408 430 408 419 446.5 c 128,-1,15
 408 485 408 485 387 515 c 128,-1,16
 366 545 366 545 335 562.5 c 128,-1,17
 304 580 304 580 263 580 c 0,18,19
 221 580 221 580 188 560 c 128,-1,20
 155 540 155 540 129 506 c 1,21,-1
 117 518 l 1,22,23
 147 574 147 574 187.5 612 c 128,-1,24
 228 650 228 650 281 650 c 0,25,26
 324 650 324 650 356.5 627 c 128,-1,27
 389 604 389 604 411.5 566 c 128,-1,28
 434 528 434 528 445.5 479.5 c 128,-1,29
 457 431 457 431 457 380 c 0,30,31
 457 343 457 343 450 300 c 128,-1,32
 443 257 443 257 429 213.5 c 128,-1,33
 415 170 415 170 394 130 c 128,-1,34
 373 90 373 90 345.5 58.5 c 128,-1,35
 318 27 318 27 283 8.5 c 128,-1,36
 248 -10 248 -10 207 -10 c 0,37,38
 156 -10 156 -10 120.5 2 c 128,-1,39
 85 14 85 14 62 35 c 128,-1,40
 39 56 39 56 28 83 c 1,0,1
161 34 m 256,41,42
 179 20 179 20 207 20 c 0,43,44
 242 20 242 20 272 36.5 c 128,-1,45
 302 53 302 53 326.5 80 c 128,-1,46
 351 107 351 107 370.5 142.5 c 128,-1,47
 390 178 390 178 403 217 c 1,48,-1
 403 229 l 2,49,50
 403 271 403 271 395 301 c 128,-1,51
 387 331 387 331 373 350 c 128,-1,52
 359 369 359 369 341 377.5 c 128,-1,53
 323 386 323 386 302 386 c 0,54,55
 270 386 270 386 236.5 368 c 128,-1,56
 203 350 203 350 175.5 320 c 128,-1,57
 148 290 148 290 130 250.5 c 128,-1,58
 112 211 112 211 112 167 c 0,59,60
 112 143 112 143 116.5 117 c 128,-1,61
 121 91 121 91 132 69.5 c 128,-1,62
 143 48 143 48 161 34 c 256,41,42
EndSplineSet
EndChar

StartChar: greaterequal
Encoding: 8805 8805 204
Width: 572
Flags: W
LayerCount: 2
Fore
SplineSet
29 240 m 1,0,-1
 415 428 l 1,1,-1
 29 616 l 1,2,-1
 79 720 l 1,3,-1
 559 486 l 1,4,-1
 559 370 l 1,5,-1
 79 136 l 1,6,-1
 29 240 l 1,0,-1
29 100 m 1,7,-1
 559 100 l 1,8,-1
 559 0 l 1,9,-1
 29 0 l 1,10,-1
 29 100 l 1,7,-1
EndSplineSet
EndChar

StartChar: perthousand
Encoding: 8240 8240 205
Width: 1095
Flags: W
LayerCount: 2
Fore
SplineSet
514 700 m 1,0,-1
 633 700 l 1,1,-1
 294 0 l 1,2,-1
 174 0 l 1,3,-1
 514 700 l 1,0,-1
38 360 m 1,4,5
 28 371 28 371 28 385 c 2,6,-1
 28 665 l 2,7,8
 28 679 28 679 38.5 689.5 c 128,-1,9
 49 700 49 700 63 700 c 2,10,-1
 256 700 l 2,11,12
 270 700 270 700 281 689.5 c 128,-1,13
 292 679 292 679 294 665 c 1,14,-1
 291 385 l 2,15,16
 291 371 291 371 280.5 360.5 c 128,-1,17
 270 350 270 350 256 350 c 2,18,-1
 63 350 l 2,19,20
 49 350 49 350 38 360 c 1,4,5
186 426 m 1,21,-1
 186 624 l 1,22,-1
 133 624 l 1,23,-1
 133 426 l 1,24,-1
 186 426 l 1,21,-1
814 315 m 2,25,26
 814 329 814 329 824.5 339.5 c 128,-1,27
 835 350 835 350 849 350 c 2,28,-1
 1042 350 l 2,29,30
 1056 350 1056 350 1066.5 339.5 c 128,-1,31
 1077 329 1077 329 1077 315 c 2,32,-1
 1077 35 l 2,33,34
 1077 21 1077 21 1066.5 10.5 c 128,-1,35
 1056 0 1056 0 1042 0 c 2,36,-1
 849 0 l 2,37,38
 835 0 835 0 824.5 10.5 c 128,-1,39
 814 21 814 21 814 35 c 2,40,-1
 814 315 l 2,25,26
517 315 m 2,41,42
 517 329 517 329 527.5 339.5 c 128,-1,43
 538 350 538 350 552 350 c 2,44,-1
 744 350 l 2,45,46
 758 350 758 350 768.5 339.5 c 128,-1,47
 779 329 779 329 779 315 c 2,48,-1
 779 35 l 2,49,50
 779 21 779 21 768.5 10.5 c 128,-1,51
 758 0 758 0 744 0 c 2,52,-1
 552 0 l 2,53,54
 538 0 538 0 527.5 10.5 c 128,-1,55
 517 21 517 21 517 35 c 2,56,-1
 517 315 l 2,41,42
972 76 m 1,57,-1
 972 274 l 1,58,-1
 919 274 l 1,59,-1
 919 76 l 1,60,-1
 972 76 l 1,57,-1
674 76 m 1,61,-1
 674 274 l 1,62,-1
 622 274 l 1,63,-1
 622 76 l 1,64,-1
 674 76 l 1,61,-1
EndSplineSet
EndChar

StartChar: ellipsis
Encoding: 8230 8230 206
Width: 493
Flags: W
LayerCount: 2
Fore
SplineSet
339 116 m 1,0,-1
 456 116 l 1,1,-1
 456 0 l 1,2,-1
 339 0 l 1,3,-1
 339 116 l 1,0,-1
188 116 m 1,4,-1
 304 116 l 1,5,-1
 304 0 l 1,6,-1
 188 0 l 1,7,-1
 188 116 l 1,4,-1
36 116 m 1,8,-1
 153 116 l 1,9,-1
 153 0 l 1,10,-1
 36 0 l 1,11,-1
 36 116 l 1,8,-1
EndSplineSet
EndChar

StartChar: dagger
Encoding: 8224 8224 207
Width: 446
Flags: W
LayerCount: 2
Fore
SplineSet
154 389 m 1,0,-1
 7 389 l 1,1,-1
 7 500 l 1,2,-1
 151 500 l 1,3,-1
 147 700 l 1,4,-1
 299 700 l 1,5,-1
 295 500 l 1,6,-1
 439 500 l 1,7,-1
 439 389 l 1,8,-1
 292 389 l 1,9,-1
 279 -233 l 1,10,-1
 167 -233 l 1,11,-1
 154 389 l 1,0,-1
EndSplineSet
EndChar

StartChar: daggerdbl
Encoding: 8225 8225 208
Width: 452
Flags: W
LayerCount: 2
Fore
SplineSet
10 200 m 1,0,-1
 161 200 l 1,1,-1
 157 389 l 1,2,-1
 10 389 l 1,3,-1
 10 500 l 1,4,-1
 154 500 l 1,5,-1
 150 700 l 1,6,-1
 302 700 l 1,7,-1
 298 500 l 1,8,-1
 442 500 l 1,9,-1
 442 389 l 1,10,-1
 295 389 l 1,11,-1
 291 200 l 1,12,-1
 442 200 l 1,13,-1
 442 89 l 1,14,-1
 289 89 l 1,15,-1
 282 -233 l 1,16,-1
 170 -233 l 1,17,-1
 163 89 l 1,18,-1
 10 89 l 1,19,-1
 10 200 l 1,0,-1
EndSplineSet
EndChar

StartChar: bullet
Encoding: 8226 8226 209
Width: 400
Flags: W
LayerCount: 2
Fore
SplineSet
76 226 m 0,0,1
 53 250 53 250 39 282 c 128,-1,2
 25 314 25 314 25 350 c 256,3,4
 25 386 25 386 39 418 c 128,-1,5
 53 450 53 450 76.5 473.5 c 128,-1,6
 100 497 100 497 132 511 c 128,-1,7
 164 525 164 525 200 525 c 256,8,9
 236 525 236 525 268 511 c 128,-1,10
 300 497 300 497 324 473.5 c 128,-1,11
 348 450 348 450 361.5 418 c 128,-1,12
 375 386 375 386 375 350 c 256,13,14
 375 314 375 314 361 282 c 128,-1,15
 347 250 347 250 323.5 226 c 128,-1,16
 300 202 300 202 268 188.5 c 128,-1,17
 236 175 236 175 200 175 c 256,18,19
 164 175 164 175 132 188.5 c 128,-1,20
 100 202 100 202 76 226 c 0,0,1
EndSplineSet
EndChar

StartChar: trademark
Encoding: 8482 8482 210
Width: 659
Flags: W
LayerCount: 2
Fore
SplineSet
265 482 m 1,0,-1
 598 482 l 2,1,2
 623 482 623 482 623 455 c 2,3,-1
 623 219 l 1,4,-1
 545 219 l 1,5,-1
 545 425 l 1,6,-1
 483 425 l 1,7,-1
 483 219 l 1,8,-1
 405 219 l 1,9,-1
 405 425 l 1,10,-1
 343 425 l 1,11,-1
 343 219 l 1,12,-1
 265 219 l 1,13,-1
 265 482 l 1,0,-1
99 425 m 1,14,-1
 29 425 l 1,15,-1
 29 482 l 1,16,-1
 248 482 l 1,17,-1
 248 425 l 1,18,-1
 178 425 l 1,19,-1
 178 219 l 1,20,-1
 99 219 l 1,21,-1
 99 425 l 1,14,-1
EndSplineSet
EndChar

StartChar: product
Encoding: 8719 8719 211
Width: 746
Flags: W
LayerCount: 2
Fore
SplineSet
123 620 m 2,0,1
 123 652 123 652 109 666 c 128,-1,2
 95 680 95 680 63 680 c 2,3,-1
 23 680 l 1,4,-1
 23 700 l 1,5,-1
 723 700 l 1,6,-1
 723 680 l 1,7,-1
 683 680 l 2,8,9
 651 680 651 680 637 666 c 128,-1,10
 623 652 623 652 623 620 c 2,11,-1
 623 -120 l 2,12,13
 623 -152 623 -152 637 -166 c 128,-1,14
 651 -180 651 -180 683 -180 c 2,15,-1
 703 -180 l 1,16,-1
 703 -200 l 1,17,-1
 463 -200 l 1,18,-1
 463 -180 l 1,19,-1
 483 -180 l 2,20,21
 515 -180 515 -180 529 -166 c 128,-1,22
 543 -152 543 -152 543 -120 c 2,23,-1
 543 620 l 2,24,25
 543 652 543 652 529 666 c 128,-1,26
 515 680 515 680 483 680 c 2,27,-1
 263 680 l 2,28,29
 231 680 231 680 217 666 c 128,-1,30
 203 652 203 652 203 620 c 2,31,-1
 203 -120 l 2,32,33
 203 -152 203 -152 217 -166 c 128,-1,34
 231 -180 231 -180 263 -180 c 2,35,-1
 283 -180 l 1,36,-1
 283 -200 l 1,37,-1
 43 -200 l 1,38,-1
 43 -180 l 1,39,-1
 63 -180 l 2,40,41
 95 -180 95 -180 109 -166 c 128,-1,42
 123 -152 123 -152 123 -120 c 2,43,-1
 123 620 l 2,0,1
EndSplineSet
EndChar

StartChar: summation
Encoding: 8721 8721 212
Width: 676
Flags: W
LayerCount: 2
Fore
SplineSet
558 -140 m 2,0,1
 590 -140 590 -140 606.5 -126 c 128,-1,2
 623 -112 623 -112 629 -81 c 2,3,-1
 631 -69 l 1,4,-1
 651 -73 l 1,5,-1
 629 -200 l 1,6,-1
 29 -200 l 1,7,-1
 29 -180 l 1,8,-1
 325 250 l 1,9,-1
 29 680 l 1,10,-1
 29 700 l 1,11,-1
 609 700 l 1,12,-1
 631 573 l 1,13,-1
 611 569 l 1,14,-1
 602 621 l 2,15,16
 597 652 597 652 580.5 666 c 128,-1,17
 564 680 564 680 532 680 c 2,18,-1
 109 680 l 1,19,-1
 385 278 l 1,20,-1
 99 -140 l 1,21,-1
 558 -140 l 2,0,1
EndSplineSet
EndChar

StartChar: radical
Encoding: 8730 8730 213
Width: 457
Flags: W
LayerCount: 2
Fore
SplineSet
63 313 m 1,0,-1
 10 282 l 1,1,-1
 0 300 l 1,2,-1
 86 350 l 1,3,-1
 244 76 l 1,4,-1
 424 700 l 1,5,-1
 444 700 l 1,6,-1
 243 0 l 1,7,-1
 63 313 l 1,0,-1
EndSplineSet
EndChar

StartChar: infinity
Encoding: 8734 8734 214
Width: 652
Flags: W
LayerCount: 2
Fore
SplineSet
59 247 m 1,0,1
 41 265 41 265 29.5 290.5 c 128,-1,2
 18 316 18 316 18 350 c 256,3,4
 18 384 18 384 29.5 409.5 c 128,-1,5
 41 435 41 435 59.5 452 c 128,-1,6
 78 469 78 469 102 478 c 128,-1,7
 126 487 126 487 151 487 c 0,8,9
 199 487 199 487 228.5 466 c 128,-1,10
 258 445 258 445 278 414 c 1,11,12
 289 437 289 437 303 459 c 128,-1,13
 317 481 317 481 337 498 c 128,-1,14
 357 515 357 515 384.5 525 c 128,-1,15
 412 535 412 535 450 535 c 0,16,17
 482 535 482 535 513 523.5 c 128,-1,18
 544 512 544 512 568 488.5 c 128,-1,19
 592 465 592 465 607 430.5 c 128,-1,20
 622 396 622 396 622 350 c 256,21,22
 622 304 622 304 607 269.5 c 128,-1,23
 592 235 592 235 568 211.5 c 128,-1,24
 544 188 544 188 513 176.5 c 128,-1,25
 482 165 482 165 450 165 c 0,26,27
 412 165 412 165 384.5 175 c 128,-1,28
 357 185 357 185 336.5 202 c 128,-1,29
 316 219 316 219 302 241 c 128,-1,30
 288 263 288 263 277 286 c 1,31,32
 258 255 258 255 229 234 c 128,-1,33
 200 213 200 213 151 213 c 0,34,35
 126 213 126 213 102 221.5 c 128,-1,36
 78 230 78 230 59 247 c 1,0,1
363 265 m 256,37,38
 379 247 379 247 400 236 c 128,-1,39
 421 225 421 225 450 225 c 0,40,41
 471 225 471 225 491 232.5 c 128,-1,42
 511 240 511 240 527 256 c 128,-1,43
 543 272 543 272 552.5 295 c 128,-1,44
 562 318 562 318 562 350 c 0,45,46
 562 381 562 381 552.5 404.5 c 128,-1,47
 543 428 543 428 527 444 c 128,-1,48
 511 460 511 460 491 467.5 c 128,-1,49
 471 475 471 475 450 475 c 0,50,51
 420 475 420 475 398.5 465 c 128,-1,52
 377 455 377 455 361 438 c 128,-1,53
 345 421 345 421 333.5 399 c 128,-1,54
 322 377 322 377 311 354 c 1,55,56
 323 330 323 330 335 306.5 c 128,-1,57
 347 283 347 283 363 265 c 256,37,38
151 273 m 0,58,59
 189 273 189 273 210 295.5 c 128,-1,60
 231 318 231 318 248 350 c 1,61,62
 231 382 231 382 210 404.5 c 128,-1,63
 189 427 189 427 151 427 c 0,64,65
 123 427 123 427 100.5 407.5 c 128,-1,66
 78 388 78 388 78 350 c 256,67,68
 78 312 78 312 100.5 292.5 c 128,-1,69
 123 273 123 273 151 273 c 0,58,59
EndSplineSet
EndChar

StartChar: integral
Encoding: 8747 8747 215
Width: 252
Flags: W
LayerCount: 2
Fore
SplineSet
107 71 m 0,0,1
 99 159 99 159 99 250 c 0,2,3
 99 416 99 416 108 580 c 1,4,5
 108 605 108 605 115 628.5 c 128,-1,6
 122 652 122 652 135 670 c 128,-1,7
 148 688 148 688 166 699 c 128,-1,8
 184 710 184 710 206 710 c 0,9,10
 223 710 223 710 234.5 698.5 c 128,-1,11
 246 687 246 687 246 670 c 256,12,13
 246 653 246 653 237.5 641.5 c 128,-1,14
 229 630 229 630 206 630 c 0,15,16
 197 630 197 630 190.5 634 c 128,-1,17
 184 638 184 638 178 643.5 c 128,-1,18
 172 649 172 649 167.5 653 c 128,-1,19
 163 657 163 657 159 657 c 0,20,21
 152 657 152 657 144.5 649.5 c 128,-1,22
 137 642 137 642 137 616 c 0,23,24
 137 524 137 524 145 434 c 128,-1,25
 153 344 153 344 153 250 c 0,26,27
 153 89 153 89 144 -70 c 1,28,29
 144 -95 144 -95 137 -118.5 c 128,-1,30
 130 -142 130 -142 117 -160 c 128,-1,31
 104 -178 104 -178 86 -189 c 128,-1,32
 68 -200 68 -200 46 -200 c 0,33,34
 29 -200 29 -200 17.5 -188.5 c 128,-1,35
 6 -177 6 -177 6 -160 c 256,36,37
 6 -143 6 -143 14.5 -131.5 c 128,-1,38
 23 -120 23 -120 46 -120 c 0,39,40
 55 -120 55 -120 61.5 -124 c 128,-1,41
 68 -128 68 -128 74 -133.5 c 128,-1,42
 80 -139 80 -139 84.5 -143 c 128,-1,43
 89 -147 89 -147 93 -147 c 0,44,45
 100 -147 100 -147 107.5 -139.5 c 128,-1,46
 115 -132 115 -132 115 -106 c 0,47,48
 115 -16 115 -16 107 71 c 0,0,1
EndSplineSet
EndChar

StartChar: lozenge
Encoding: 9674 9674 216
Width: 532
Flags: W
LayerCount: 2
Fore
SplineSet
13 350 m 1,0,-1
 237 700 l 1,1,-1
 295 700 l 1,2,-1
 519 350 l 1,3,-1
 295 0 l 1,4,-1
 237 0 l 1,5,-1
 13 350 l 1,0,-1
272 40 m 1,6,-1
 471 350 l 1,7,-1
 273 660 l 1,8,-1
 260 660 l 1,9,-1
 61 350 l 1,10,-1
 259 40 l 1,11,-1
 272 40 l 1,6,-1
EndSplineSet
EndChar

StartChar: Omega
Encoding: 937 937 217
AltUni2: 002126.ffffffff.0
Width: 747
Flags: W
LayerCount: 2
Fore
SplineSet
26 152 m 1,0,-1
 153 152 l 1,1,2
 112 167 112 167 94 217 c 128,-1,3
 76 267 76 267 76 360 c 2,4,-1
 76 410 l 2,5,6
 76 562 76 562 126 631 c 128,-1,7
 176 700 176 700 286 700 c 2,8,-1
 450 700 l 2,9,10
 560 700 560 700 610 631 c 128,-1,11
 660 562 660 562 660 410 c 2,12,-1
 660 360 l 2,13,14
 660 267 660 267 641.5 217 c 128,-1,15
 623 167 623 167 582 152 c 1,16,-1
 722 152 l 1,17,-1
 652 0 l 1,18,-1
 450 0 l 1,19,-1
 450 548 l 1,20,-1
 285 548 l 1,21,-1
 285 0 l 1,22,-1
 96 0 l 1,23,-1
 26 152 l 1,0,-1
EndSplineSet
EndChar

StartChar: pi
Encoding: 960 960 218
Width: 867
Flags: W
LayerCount: 2
Fore
SplineSet
166 373 m 1,0,-1
 26 373 l 1,1,-1
 26 525 l 1,2,-1
 842 525 l 1,3,-1
 772 373 l 1,4,-1
 702 373 l 1,5,-1
 702 0 l 1,6,-1
 492 0 l 1,7,-1
 492 373 l 1,8,-1
 376 373 l 1,9,-1
 376 0 l 1,10,-1
 166 0 l 1,11,-1
 166 373 l 1,0,-1
EndSplineSet
EndChar

StartChar: exclam
Encoding: 33 33 220
Width: 216
Flags: W
LayerCount: 2
Fore
SplineSet
36 700 m 1,0,-1
 188 700 l 1,1,-1
 188 210 l 1,2,-1
 36 210 l 1,3,-1
 36 700 l 1,0,-1
36 152 m 1,4,-1
 188 152 l 1,5,-1
 188 0 l 1,6,-1
 36 0 l 1,7,-1
 36 152 l 1,4,-1
EndSplineSet
EndChar

StartChar: uni2206
Encoding: 8710 8710 221
Width: 722
Flags: W
LayerCount: 2
Fore
SplineSet
341 700 m 1,0,-1
 381 700 l 1,1,-1
 709 0 l 1,2,-1
 13 0 l 1,3,-1
 341 700 l 1,0,-1
647 40 m 1,4,-1
 361 649 l 1,5,-1
 75 40 l 1,6,-1
 647 40 l 1,4,-1
EndSplineSet
EndChar

StartChar: quotedbl
Encoding: 34 34 222
Width: 451
Flags: W
LayerCount: 2
Fore
SplineSet
273 670 m 1,0,-1
 424 670 l 1,1,-1
 366 402 l 1,2,-1
 214 402 l 1,3,-1
 273 670 l 1,0,-1
86 670 m 1,4,-1
 238 670 l 1,5,-1
 179 402 l 1,6,-1
 28 402 l 1,7,-1
 86 670 l 1,4,-1
EndSplineSet
EndChar

StartChar: brokenbar
Encoding: 166 166 225
Width: 219
Flags: W
LayerCount: 2
Fore
SplineSet
36 817 m 1,0,-1
 188 817 l 1,1,-1
 188 374 l 1,2,-1
 36 374 l 1,3,-1
 36 817 l 1,0,-1
36 300 m 1,4,-1
 188 300 l 1,5,-1
 188 -116 l 1,6,-1
 36 -116 l 1,7,-1
 36 300 l 1,4,-1
EndSplineSet
EndChar

StartChar: twosuperior
Encoding: 178 178 226
Width: 518
Flags: W
LayerCount: 2
Fore
SplineSet
97 292 m 256,0,1
 84 304 84 304 84 322 c 2,2,-1
 84 483 l 2,3,4
 84 501 84 501 97 513 c 128,-1,5
 110 525 110 525 126 525 c 2,6,-1
 308 525 l 1,7,-1
 308 609 l 1,8,-1
 84 609 l 1,9,-1
 84 700 l 1,10,-1
 392 700 l 2,11,12
 407 700 407 700 420.5 688 c 128,-1,13
 434 676 434 676 434 658 c 2,14,-1
 434 497 l 2,15,16
 434 479 434 479 420.5 467 c 128,-1,17
 407 455 407 455 392 455 c 2,18,-1
 210 455 l 1,19,-1
 210 371 l 1,20,-1
 434 371 l 1,21,-1
 434 280 l 1,22,-1
 126 280 l 2,23,24
 110 280 110 280 97 292 c 256,0,1
EndSplineSet
EndChar

StartChar: threesuperior
Encoding: 179 179 227
Width: 518
Flags: W
LayerCount: 2
Fore
SplineSet
84 371 m 1,0,-1
 308 371 l 1,1,-1
 308 455 l 1,2,-1
 154 455 l 1,3,-1
 154 525 l 1,4,-1
 308 525 l 1,5,-1
 308 609 l 1,6,-1
 84 609 l 1,7,-1
 84 700 l 1,8,-1
 392 700 l 2,9,10
 407 700 407 700 420.5 688 c 128,-1,11
 434 676 434 676 434 658 c 2,12,-1
 434 532 l 2,13,14
 434 514 434 514 421 502.5 c 128,-1,15
 408 491 408 491 394 490 c 1,16,17
 409 488 409 488 421.5 478.5 c 128,-1,18
 434 469 434 469 434 455 c 2,19,-1
 434 322 l 2,20,21
 434 304 434 304 420.5 292 c 128,-1,22
 407 280 407 280 392 280 c 2,23,-1
 84 280 l 1,24,-1
 84 371 l 1,0,-1
EndSplineSet
EndChar

StartChar: onesuperior
Encoding: 185 185 228
Width: 341
Flags: W
LayerCount: 2
Fore
SplineSet
130 609 m 1,0,-1
 60 609 l 1,1,-1
 102 700 l 1,2,-1
 256 700 l 1,3,-1
 256 280 l 1,4,-1
 130 280 l 1,5,-1
 130 609 l 1,0,-1
EndSplineSet
EndChar

StartChar: onequarter
Encoding: 188 188 229
Width: 967
Flags: W
LayerCount: 2
Fore
SplineSet
558 700 m 1,0,-1
 658 700 l 1,1,-1
 258 0 l 1,2,-1
 158 0 l 1,3,-1
 558 700 l 1,0,-1
113 609 m 1,4,-1
 43 609 l 1,5,-1
 85 700 l 1,6,-1
 239 700 l 1,7,-1
 239 280 l 1,8,-1
 113 280 l 1,9,-1
 113 609 l 1,4,-1
579 420 m 1,10,-1
 705 420 l 1,11,-1
 705 175 l 1,12,-1
 803 175 l 1,13,-1
 803 280 l 1,14,-1
 929 280 l 1,15,-1
 929 0 l 1,16,-1
 803 0 l 1,17,-1
 803 105 l 1,18,-1
 579 105 l 1,19,-1
 579 420 l 1,10,-1
EndSplineSet
EndChar

StartChar: onehalf
Encoding: 189 189 230
Width: 967
Flags: W
LayerCount: 2
Fore
SplineSet
558 700 m 1,0,-1
 658 700 l 1,1,-1
 258 0 l 1,2,-1
 158 0 l 1,3,-1
 558 700 l 1,0,-1
113 609 m 1,4,-1
 43 609 l 1,5,-1
 85 700 l 1,6,-1
 239 700 l 1,7,-1
 239 280 l 1,8,-1
 113 280 l 1,9,-1
 113 609 l 1,4,-1
577 203 m 2,10,11
 577 221 577 221 590 233 c 128,-1,12
 603 245 603 245 619 245 c 2,13,-1
 801 245 l 1,14,-1
 801 329 l 1,15,-1
 577 329 l 1,16,-1
 577 420 l 1,17,-1
 885 420 l 2,18,19
 900 420 900 420 913.5 408 c 128,-1,20
 927 396 927 396 927 378 c 2,21,-1
 927 217 l 2,22,23
 927 199 927 199 913.5 187 c 128,-1,24
 900 175 900 175 885 175 c 2,25,-1
 703 175 l 1,26,-1
 703 91 l 1,27,-1
 927 91 l 1,28,-1
 927 0 l 1,29,-1
 619 0 l 2,30,31
 603 0 603 0 590 12 c 128,-1,32
 577 24 577 24 577 42 c 2,33,-1
 577 203 l 2,10,11
EndSplineSet
EndChar

StartChar: threequarters
Encoding: 190 190 231
Width: 1103
Flags: W
LayerCount: 2
Fore
SplineSet
692 700 m 1,0,-1
 792 700 l 1,1,-1
 392 0 l 1,2,-1
 292 0 l 1,3,-1
 692 700 l 1,0,-1
39 371 m 1,4,-1
 263 371 l 1,5,-1
 263 455 l 1,6,-1
 109 455 l 1,7,-1
 109 525 l 1,8,-1
 263 525 l 1,9,-1
 263 609 l 1,10,-1
 39 609 l 1,11,-1
 39 700 l 1,12,-1
 347 700 l 2,13,14
 362 700 362 700 375.5 688 c 128,-1,15
 389 676 389 676 389 658 c 2,16,-1
 389 532 l 2,17,18
 389 514 389 514 376 502.5 c 128,-1,19
 363 491 363 491 349 490 c 1,20,21
 364 488 364 488 376.5 478.5 c 128,-1,22
 389 469 389 469 389 455 c 2,23,-1
 389 322 l 2,24,25
 389 304 389 304 375.5 292 c 128,-1,26
 362 280 362 280 347 280 c 2,27,-1
 39 280 l 1,28,-1
 39 371 l 1,4,-1
713 420 m 1,29,-1
 839 420 l 1,30,-1
 839 175 l 1,31,-1
 937 175 l 1,32,-1
 937 280 l 1,33,-1
 1063 280 l 1,34,-1
 1063 0 l 1,35,-1
 937 0 l 1,36,-1
 937 105 l 1,37,-1
 713 105 l 1,38,-1
 713 420 l 1,29,-1
EndSplineSet
EndChar

StartChar: Eth
Encoding: 208 208 232
Width: 742
Flags: W
LayerCount: 2
Fore
SplineSet
122 300 m 1,0,-1
 22 300 l 1,1,-1
 22 400 l 1,2,-1
 122 400 l 1,3,-1
 122 700 l 1,4,-1
 636 700 l 2,5,6
 663 700 663 700 684.5 679 c 128,-1,7
 706 658 706 658 706 630 c 2,8,-1
 706 70 l 2,9,10
 706 41 706 41 684.5 20.5 c 128,-1,11
 663 0 663 0 636 0 c 2,12,-1
 122 0 l 1,13,-1
 122 300 l 1,0,-1
496 152 m 1,14,-1
 496 548 l 1,15,-1
 332 548 l 1,16,-1
 332 400 l 1,17,-1
 432 400 l 1,18,-1
 432 300 l 1,19,-1
 332 300 l 1,20,-1
 332 152 l 1,21,-1
 496 152 l 1,14,-1
EndSplineSet
EndChar

StartChar: multiply
Encoding: 215 215 233
Width: 458
Flags: W
LayerCount: 2
Fore
SplineSet
27 219 m 1,0,-1
 158 350 l 1,1,-1
 27 481 l 1,2,-1
 98 552 l 1,3,-1
 229 421 l 1,4,-1
 360 552 l 1,5,-1
 431 481 l 1,6,-1
 300 350 l 1,7,-1
 431 219 l 1,8,-1
 360 148 l 1,9,-1
 229 279 l 1,10,-1
 98 148 l 1,11,-1
 27 219 l 1,0,-1
EndSplineSet
EndChar

StartChar: Yacute
Encoding: 221 221 234
Width: 716
Flags: W
LayerCount: 2
Fore
SplineSet
217 814 m 1,0,-1
 497 902 l 1,1,-1
 497 806 l 1,2,-1
 217 760 l 1,3,-1
 217 814 l 1,0,-1
252 315 m 1,4,-1
 8 700 l 1,5,-1
 264 700 l 1,6,-1
 357 553 l 1,7,-1
 450 700 l 1,8,-1
 707 700 l 1,9,-1
 462 315 l 1,10,-1
 462 0 l 1,11,-1
 252 0 l 1,12,-1
 252 315 l 1,4,-1
EndSplineSet
EndChar

StartChar: Thorn
Encoding: 222 222 235
Width: 633
Flags: W
LayerCount: 2
Fore
SplineSet
36 700 m 1,0,-1
 246 700 l 1,1,-1
 246 578 l 1,2,-1
 550 578 l 2,3,4
 577 578 577 578 598.5 557 c 128,-1,5
 620 536 620 536 620 508 c 2,6,-1
 620 192 l 2,7,8
 620 163 620 163 598.5 142.5 c 128,-1,9
 577 122 577 122 550 122 c 2,10,-1
 246 122 l 1,11,-1
 246 0 l 1,12,-1
 36 0 l 1,13,-1
 36 700 l 1,0,-1
410 239 m 1,14,-1
 410 425 l 1,15,-1
 246 425 l 1,16,-1
 246 239 l 1,17,-1
 410 239 l 1,14,-1
EndSplineSet
EndChar

StartChar: eth
Encoding: 240 240 236
Width: 600
Flags: W
LayerCount: 2
Fore
SplineSet
33 455 m 2,0,1
 33 483 33 483 54 504 c 128,-1,2
 75 525 75 525 103 525 c 2,3,-1
 359 525 l 1,4,-1
 359 540 l 2,5,6
 359 572 359 572 345 586 c 128,-1,7
 331 600 331 600 299 600 c 2,8,-1
 193 600 l 1,9,-1
 193 550 l 1,10,-1
 113 550 l 1,11,-1
 113 600 l 1,12,-1
 53 600 l 1,13,-1
 53 700 l 1,14,-1
 113 700 l 1,15,-1
 113 750 l 1,16,-1
 193 750 l 1,17,-1
 193 700 l 1,18,-1
 349 700 l 2,19,20
 465 700 465 700 517 648 c 128,-1,21
 569 596 569 596 569 480 c 2,22,-1
 569 0 l 1,23,-1
 103 0 l 2,24,25
 75 0 75 0 54 21 c 128,-1,26
 33 42 33 42 33 70 c 2,27,-1
 33 455 l 2,0,1
359 152 m 1,28,-1
 359 373 l 1,29,-1
 243 373 l 1,30,-1
 243 152 l 1,31,-1
 359 152 l 1,28,-1
EndSplineSet
EndChar

StartChar: yacute
Encoding: 253 253 237
Width: 589
Flags: W
LayerCount: 2
Fore
SplineSet
153 639 m 1,0,-1
 433 727 l 1,1,-1
 433 631 l 1,2,-1
 153 585 l 1,3,-1
 153 639 l 1,0,-1
24 525 m 1,4,-1
 234 525 l 1,5,-1
 234 152 l 1,6,-1
 350 152 l 1,7,-1
 350 525 l 1,8,-1
 560 525 l 1,9,-1
 560 -163 l 2,10,11
 560 -191 560 -191 539 -212 c 128,-1,12
 518 -233 518 -233 490 -233 c 2,13,-1
 94 -233 l 1,14,-1
 24 -81 l 1,15,-1
 350 -81 l 1,16,-1
 350 0 l 1,17,-1
 94 0 l 2,18,19
 66 0 66 0 45 21 c 128,-1,20
 24 42 24 42 24 70 c 2,21,-1
 24 525 l 1,4,-1
EndSplineSet
EndChar

StartChar: thorn
Encoding: 254 254 238
Width: 581
Flags: W
LayerCount: 2
Fore
SplineSet
36 700 m 1,0,-1
 246 700 l 1,1,-1
 246 525 l 1,2,-1
 502 525 l 2,3,4
 530 525 530 525 551 504 c 128,-1,5
 572 483 572 483 572 455 c 2,6,-1
 572 70 l 2,7,8
 572 42 572 42 551 21 c 128,-1,9
 530 0 530 0 502 0 c 2,10,-1
 246 0 l 1,11,-1
 246 -233 l 1,12,-1
 36 -233 l 1,13,-1
 36 700 l 1,0,-1
362 152 m 1,14,-1
 362 373 l 1,15,-1
 246 373 l 1,16,-1
 246 152 l 1,17,-1
 362 152 l 1,14,-1
EndSplineSet
EndChar

StartChar: Abreve
Encoding: 258 258 239
Width: 843
Flags: W
LayerCount: 2
Fore
SplineSet
327 791 m 256,0,1
 308 810 308 810 297 834 c 128,-1,2
 286 858 286 858 286 885 c 1,3,-1
 336 885 l 1,4,5
 336 868 336 868 343 853 c 128,-1,6
 350 838 350 838 362 826 c 128,-1,7
 374 814 374 814 389 807 c 128,-1,8
 404 800 404 800 421 800 c 0,9,10
 437 800 437 800 452.5 807 c 128,-1,11
 468 814 468 814 480 826 c 128,-1,12
 492 838 492 838 499 853 c 128,-1,13
 506 868 506 868 506 885 c 1,14,-1
 556 885 l 1,15,16
 556 858 556 858 545 834 c 128,-1,17
 534 810 534 810 515 791 c 128,-1,18
 496 772 496 772 472 761 c 128,-1,19
 448 750 448 750 421 750 c 256,20,21
 394 750 394 750 370 761 c 128,-1,22
 346 772 346 772 327 791 c 256,0,1
304 700 m 1,23,-1
 538 700 l 1,24,-1
 829 0 l 1,25,-1
 363 0 l 1,26,-1
 363 152 l 1,27,-1
 533 152 l 1,28,-1
 421 420 l 1,29,-1
 246 0 l 1,30,-1
 14 0 l 1,31,-1
 304 700 l 1,23,-1
EndSplineSet
EndChar

StartChar: Amacron
Encoding: 256 256 240
Width: 849
Flags: W
LayerCount: 2
Fore
SplineSet
237 832 m 1,0,-1
 611 832 l 1,1,-1
 611 760 l 1,2,-1
 237 760 l 1,3,-1
 237 832 l 1,0,-1
307 700 m 1,4,-1
 541 700 l 1,5,-1
 832 0 l 1,6,-1
 366 0 l 1,7,-1
 366 152 l 1,8,-1
 536 152 l 1,9,-1
 424 420 l 1,10,-1
 249 0 l 1,11,-1
 17 0 l 1,12,-1
 307 700 l 1,4,-1
EndSplineSet
EndChar

StartChar: Aogonek
Encoding: 260 260 241
Width: 842
Flags: W
LayerCount: 2
Fore
SplineSet
298 700 m 1,0,-1
 532 700 l 1,1,-1
 823 0 l 1,2,-1
 729 0 l 1,3,4
 720 -8 720 -8 710.5 -20.5 c 128,-1,5
 701 -33 701 -33 693.5 -47.5 c 128,-1,6
 686 -62 686 -62 681.5 -77.5 c 128,-1,7
 677 -93 677 -93 677 -106 c 0,8,9
 677 -133 677 -133 692 -143 c 128,-1,10
 707 -153 707 -153 728 -153 c 0,11,12
 753 -153 753 -153 779.5 -144 c 128,-1,13
 806 -135 806 -135 823 -126 c 1,14,-1
 801 -198 l 1,15,16
 781 -208 781 -208 755.5 -213 c 128,-1,17
 730 -218 730 -218 703 -218 c 0,18,19
 677 -218 677 -218 652 -212 c 128,-1,20
 627 -206 627 -206 607.5 -193.5 c 128,-1,21
 588 -181 588 -181 576 -160 c 128,-1,22
 564 -139 564 -139 564 -109 c 0,23,24
 564 -83 564 -83 575 -55.5 c 128,-1,25
 586 -28 586 -28 610 0 c 1,26,-1
 357 0 l 1,27,-1
 357 152 l 1,28,-1
 527 152 l 1,29,-1
 415 420 l 1,30,-1
 240 0 l 1,31,-1
 8 0 l 1,32,-1
 298 700 l 1,0,-1
EndSplineSet
EndChar

StartChar: Cacute
Encoding: 262 262 242
Width: 629
Flags: W
LayerCount: 2
Fore
SplineSet
175 814 m 1,0,-1
 455 902 l 1,1,-1
 455 806 l 1,2,-1
 175 760 l 1,3,-1
 175 814 l 1,0,-1
27 630 m 2,4,5
 27 658 27 658 48.5 679 c 128,-1,6
 70 700 70 700 97 700 c 2,7,-1
 611 700 l 1,8,-1
 541 548 l 1,9,-1
 237 548 l 1,10,-1
 237 152 l 1,11,-1
 611 152 l 1,12,-1
 541 0 l 1,13,-1
 97 0 l 2,14,15
 70 0 70 0 48.5 20.5 c 128,-1,16
 27 41 27 41 27 70 c 2,17,-1
 27 630 l 2,4,5
EndSplineSet
EndChar

StartChar: Ccaron
Encoding: 268 268 243
Width: 634
Flags: W
LayerCount: 2
Fore
SplineSet
118 848 m 1,0,-1
 118 902 l 1,1,-1
 318 856 l 1,2,-1
 518 902 l 1,3,-1
 518 848 l 1,4,-1
 318 760 l 1,5,-1
 118 848 l 1,0,-1
30 630 m 2,6,7
 30 658 30 658 51.5 679 c 128,-1,8
 73 700 73 700 100 700 c 2,9,-1
 614 700 l 1,10,-1
 544 548 l 1,11,-1
 240 548 l 1,12,-1
 240 152 l 1,13,-1
 614 152 l 1,14,-1
 544 0 l 1,15,-1
 100 0 l 2,16,17
 73 0 73 0 51.5 20.5 c 128,-1,18
 30 41 30 41 30 70 c 2,19,-1
 30 630 l 2,6,7
EndSplineSet
EndChar

StartChar: Ccircumflex
Encoding: 264 264 244
Width: 634
Flags: W
LayerCount: 2
Fore
SplineSet
118 814 m 1,0,-1
 318 902 l 1,1,-1
 518 814 l 1,2,-1
 518 760 l 1,3,-1
 318 806 l 1,4,-1
 118 760 l 1,5,-1
 118 814 l 1,0,-1
30 630 m 2,6,7
 30 658 30 658 51.5 679 c 128,-1,8
 73 700 73 700 100 700 c 2,9,-1
 614 700 l 1,10,-1
 544 548 l 1,11,-1
 240 548 l 1,12,-1
 240 152 l 1,13,-1
 614 152 l 1,14,-1
 544 0 l 1,15,-1
 100 0 l 2,16,17
 73 0 73 0 51.5 20.5 c 128,-1,18
 30 41 30 41 30 70 c 2,19,-1
 30 630 l 2,6,7
EndSplineSet
EndChar

StartChar: Cdotaccent
Encoding: 266 266 245
Width: 627
Flags: W
LayerCount: 2
Fore
SplineSet
259 773 m 256,0,1
 241 796 241 796 241 824 c 0,2,3
 241 851 241 851 259 874 c 128,-1,4
 277 897 277 897 314 897 c 0,5,6
 352 897 352 897 370.5 874 c 128,-1,7
 389 851 389 851 389 823 c 0,8,9
 389 796 389 796 370.5 773 c 128,-1,10
 352 750 352 750 314 750 c 0,11,12
 277 750 277 750 259 773 c 256,0,1
27 630 m 2,13,14
 27 658 27 658 48.5 679 c 128,-1,15
 70 700 70 700 97 700 c 2,16,-1
 611 700 l 1,17,-1
 541 548 l 1,18,-1
 237 548 l 1,19,-1
 237 152 l 1,20,-1
 611 152 l 1,21,-1
 541 0 l 1,22,-1
 97 0 l 2,23,24
 70 0 70 0 48.5 20.5 c 128,-1,25
 27 41 27 41 27 70 c 2,26,-1
 27 630 l 2,13,14
EndSplineSet
EndChar

StartChar: Dcaron
Encoding: 270 270 246
Width: 644
Flags: W
LayerCount: 2
Fore
SplineSet
122 848 m 1,0,-1
 122 902 l 1,1,-1
 322 856 l 1,2,-1
 522 902 l 1,3,-1
 522 848 l 1,4,-1
 322 760 l 1,5,-1
 122 848 l 1,0,-1
30 700 m 1,6,-1
 544 700 l 2,7,8
 571 700 571 700 592.5 679 c 128,-1,9
 614 658 614 658 614 630 c 2,10,-1
 614 70 l 2,11,12
 614 41 614 41 592.5 20.5 c 128,-1,13
 571 0 571 0 544 0 c 2,14,-1
 30 0 l 1,15,-1
 30 700 l 1,6,-1
404 152 m 1,16,-1
 404 548 l 1,17,-1
 240 548 l 1,18,-1
 240 152 l 1,19,-1
 404 152 l 1,16,-1
EndSplineSet
EndChar

StartChar: Dcroat
Encoding: 272 272 247
Width: 742
Flags: W
LayerCount: 2
Fore
SplineSet
122 300 m 1,0,-1
 22 300 l 1,1,-1
 22 400 l 1,2,-1
 122 400 l 1,3,-1
 122 700 l 1,4,-1
 636 700 l 2,5,6
 663 700 663 700 684.5 679 c 128,-1,7
 706 658 706 658 706 630 c 2,8,-1
 706 70 l 2,9,10
 706 41 706 41 684.5 20.5 c 128,-1,11
 663 0 663 0 636 0 c 2,12,-1
 122 0 l 1,13,-1
 122 300 l 1,0,-1
496 152 m 1,14,-1
 496 548 l 1,15,-1
 332 548 l 1,16,-1
 332 400 l 1,17,-1
 432 400 l 1,18,-1
 432 300 l 1,19,-1
 332 300 l 1,20,-1
 332 152 l 1,21,-1
 496 152 l 1,14,-1
EndSplineSet
EndChar

StartChar: Ecaron
Encoding: 282 282 248
Width: 635
Flags: W
LayerCount: 2
Fore
SplineSet
118 848 m 1,0,-1
 118 902 l 1,1,-1
 318 856 l 1,2,-1
 518 902 l 1,3,-1
 518 848 l 1,4,-1
 318 760 l 1,5,-1
 118 848 l 1,0,-1
30 700 m 1,6,-1
 614 700 l 1,7,-1
 544 548 l 1,8,-1
 240 548 l 1,9,-1
 240 408 l 1,10,-1
 544 408 l 1,11,-1
 544 292 l 1,12,-1
 240 292 l 1,13,-1
 240 152 l 1,14,-1
 614 152 l 1,15,-1
 544 0 l 1,16,-1
 30 0 l 1,17,-1
 30 700 l 1,6,-1
EndSplineSet
EndChar

StartChar: Edotaccent
Encoding: 278 278 249
Width: 628
Flags: W
LayerCount: 2
Fore
SplineSet
259 773 m 256,0,1
 241 796 241 796 241 824 c 0,2,3
 241 851 241 851 259 874 c 128,-1,4
 277 897 277 897 314 897 c 0,5,6
 352 897 352 897 370.5 874 c 128,-1,7
 389 851 389 851 389 823 c 0,8,9
 389 796 389 796 370.5 773 c 128,-1,10
 352 750 352 750 314 750 c 0,11,12
 277 750 277 750 259 773 c 256,0,1
27 700 m 1,13,-1
 611 700 l 1,14,-1
 541 548 l 1,15,-1
 237 548 l 1,16,-1
 237 408 l 1,17,-1
 541 408 l 1,18,-1
 541 292 l 1,19,-1
 237 292 l 1,20,-1
 237 152 l 1,21,-1
 611 152 l 1,22,-1
 541 0 l 1,23,-1
 27 0 l 1,24,-1
 27 700 l 1,13,-1
EndSplineSet
EndChar

StartChar: Emacron
Encoding: 274 274 250
Width: 649
Flags: W
LayerCount: 2
Fore
SplineSet
137 832 m 1,0,-1
 511 832 l 1,1,-1
 511 760 l 1,2,-1
 137 760 l 1,3,-1
 137 832 l 1,0,-1
36 700 m 1,4,-1
 620 700 l 1,5,-1
 550 548 l 1,6,-1
 246 548 l 1,7,-1
 246 408 l 1,8,-1
 550 408 l 1,9,-1
 550 292 l 1,10,-1
 246 292 l 1,11,-1
 246 152 l 1,12,-1
 620 152 l 1,13,-1
 550 0 l 1,14,-1
 36 0 l 1,15,-1
 36 700 l 1,4,-1
EndSplineSet
EndChar

StartChar: Eogonek
Encoding: 280 280 251
Width: 633
Flags: W
LayerCount: 2
Fore
SplineSet
22 700 m 1,0,-1
 606 700 l 1,1,-1
 536 548 l 1,2,-1
 232 548 l 1,3,-1
 232 408 l 1,4,-1
 536 408 l 1,5,-1
 536 292 l 1,6,-1
 232 292 l 1,7,-1
 232 152 l 1,8,-1
 606 152 l 1,9,-1
 536 0 l 1,10,-1
 512 0 l 1,11,12
 503 -8 503 -8 493.5 -20.5 c 128,-1,13
 484 -33 484 -33 476.5 -47.5 c 128,-1,14
 469 -62 469 -62 464.5 -77.5 c 128,-1,15
 460 -93 460 -93 460 -106 c 0,16,17
 460 -133 460 -133 475 -143 c 128,-1,18
 490 -153 490 -153 511 -153 c 0,19,20
 536 -153 536 -153 562.5 -144 c 128,-1,21
 589 -135 589 -135 606 -126 c 1,22,-1
 584 -198 l 1,23,24
 564 -208 564 -208 538.5 -213 c 128,-1,25
 513 -218 513 -218 486 -218 c 0,26,27
 460 -218 460 -218 435 -212 c 128,-1,28
 410 -206 410 -206 390.5 -193.5 c 128,-1,29
 371 -181 371 -181 359 -160 c 128,-1,30
 347 -139 347 -139 347 -109 c 0,31,32
 347 -83 347 -83 358 -55.5 c 128,-1,33
 369 -28 369 -28 393 0 c 1,34,-1
 22 0 l 1,35,-1
 22 700 l 1,0,-1
EndSplineSet
EndChar

StartChar: Gbreve
Encoding: 286 286 252
Width: 636
Flags: W
LayerCount: 2
Fore
SplineSet
268 761 m 256,0,1
 244 772 244 772 225 791 c 128,-1,2
 206 810 206 810 195 834 c 128,-1,3
 184 858 184 858 184 885 c 1,4,-1
 234 885 l 1,5,6
 234 868 234 868 241 853 c 128,-1,7
 248 838 248 838 260 826 c 128,-1,8
 272 814 272 814 287 807 c 128,-1,9
 302 800 302 800 319 800 c 0,10,11
 335 800 335 800 350.5 807 c 128,-1,12
 366 814 366 814 378 826 c 128,-1,13
 390 838 390 838 397 853 c 128,-1,14
 404 868 404 868 404 885 c 1,15,-1
 454 885 l 1,16,17
 454 858 454 858 443 834 c 128,-1,18
 432 810 432 810 413 791 c 128,-1,19
 394 772 394 772 370 761 c 128,-1,20
 346 750 346 750 319 750 c 256,21,22
 292 750 292 750 268 761 c 256,0,1
28 630 m 2,23,24
 28 658 28 658 49.5 679 c 128,-1,25
 71 700 71 700 98 700 c 2,26,-1
 612 700 l 1,27,-1
 542 548 l 1,28,-1
 238 548 l 1,29,-1
 238 152 l 1,30,-1
 402 152 l 1,31,-1
 402 292 l 1,32,-1
 320 292 l 1,33,-1
 320 408 l 1,34,-1
 612 408 l 1,35,-1
 612 0 l 1,36,-1
 98 0 l 2,37,38
 71 0 71 0 49.5 20.5 c 128,-1,39
 28 41 28 41 28 70 c 2,40,-1
 28 630 l 2,23,24
EndSplineSet
EndChar

StartChar: Gcircumflex
Encoding: 284 284 253
Width: 640
Flags: W
LayerCount: 2
Fore
SplineSet
121 814 m 1,0,-1
 321 902 l 1,1,-1
 521 814 l 1,2,-1
 521 760 l 1,3,-1
 321 806 l 1,4,-1
 121 760 l 1,5,-1
 121 814 l 1,0,-1
30 630 m 2,6,7
 30 658 30 658 51.5 679 c 128,-1,8
 73 700 73 700 100 700 c 2,9,-1
 614 700 l 1,10,-1
 544 548 l 1,11,-1
 240 548 l 1,12,-1
 240 152 l 1,13,-1
 404 152 l 1,14,-1
 404 292 l 1,15,-1
 322 292 l 1,16,-1
 322 408 l 1,17,-1
 614 408 l 1,18,-1
 614 0 l 1,19,-1
 100 0 l 2,20,21
 73 0 73 0 51.5 20.5 c 128,-1,22
 30 41 30 41 30 70 c 2,23,-1
 30 630 l 2,6,7
EndSplineSet
EndChar

StartChar: Gdotaccent
Encoding: 288 288 254
Width: 632
Flags: W
LayerCount: 2
Fore
SplineSet
261 773 m 256,0,1
 243 796 243 796 243 824 c 0,2,3
 243 851 243 851 261 874 c 128,-1,4
 279 897 279 897 316 897 c 0,5,6
 354 897 354 897 372.5 874 c 128,-1,7
 391 851 391 851 391 823 c 0,8,9
 391 796 391 796 372.5 773 c 128,-1,10
 354 750 354 750 316 750 c 0,11,12
 279 750 279 750 261 773 c 256,0,1
26 630 m 2,13,14
 26 658 26 658 47.5 679 c 128,-1,15
 69 700 69 700 96 700 c 2,16,-1
 610 700 l 1,17,-1
 540 548 l 1,18,-1
 236 548 l 1,19,-1
 236 152 l 1,20,-1
 400 152 l 1,21,-1
 400 292 l 1,22,-1
 318 292 l 1,23,-1
 318 408 l 1,24,-1
 610 408 l 1,25,-1
 610 0 l 1,26,-1
 96 0 l 2,27,28
 69 0 69 0 47.5 20.5 c 128,-1,29
 26 41 26 41 26 70 c 2,30,-1
 26 630 l 2,13,14
EndSplineSet
EndChar

StartChar: Hbar
Encoding: 294 294 255
Width: 832
Flags: W
LayerCount: 2
Fore
SplineSet
124 510 m 1,0,-1
 24 510 l 1,1,-1
 24 610 l 1,2,-1
 124 610 l 1,3,-1
 124 700 l 1,4,-1
 334 700 l 1,5,-1
 334 610 l 1,6,-1
 498 610 l 1,7,-1
 498 700 l 1,8,-1
 708 700 l 1,9,-1
 708 610 l 1,10,-1
 808 610 l 1,11,-1
 808 510 l 1,12,-1
 708 510 l 1,13,-1
 708 0 l 1,14,-1
 498 0 l 1,15,-1
 498 292 l 1,16,-1
 334 292 l 1,17,-1
 334 0 l 1,18,-1
 124 0 l 1,19,-1
 124 510 l 1,0,-1
498 408 m 1,20,-1
 498 510 l 1,21,-1
 334 510 l 1,22,-1
 334 408 l 1,23,-1
 498 408 l 1,20,-1
EndSplineSet
EndChar

StartChar: Hcircumflex
Encoding: 292 292 256
Width: 644
Flags: W
LayerCount: 2
Fore
SplineSet
122 814 m 1,0,-1
 322 902 l 1,1,-1
 522 814 l 1,2,-1
 522 760 l 1,3,-1
 322 806 l 1,4,-1
 122 760 l 1,5,-1
 122 814 l 1,0,-1
30 700 m 1,6,-1
 240 700 l 1,7,-1
 240 408 l 1,8,-1
 404 408 l 1,9,-1
 404 700 l 1,10,-1
 614 700 l 1,11,-1
 614 0 l 1,12,-1
 404 0 l 1,13,-1
 404 292 l 1,14,-1
 240 292 l 1,15,-1
 240 0 l 1,16,-1
 30 0 l 1,17,-1
 30 700 l 1,6,-1
EndSplineSet
EndChar

StartChar: Idotaccent
Encoding: 304 304 257
Width: 273
Flags: W
LayerCount: 2
Fore
SplineSet
80 773 m 256,0,1
 62 796 62 796 62 824 c 0,2,3
 62 851 62 851 80 874 c 128,-1,4
 98 897 98 897 135 897 c 0,5,6
 173 897 173 897 191.5 874 c 128,-1,7
 210 851 210 851 210 823 c 0,8,9
 210 796 210 796 191.5 773 c 128,-1,10
 173 750 173 750 135 750 c 0,11,12
 98 750 98 750 80 773 c 256,0,1
31 700 m 1,13,-1
 241 700 l 1,14,-1
 241 0 l 1,15,-1
 31 0 l 1,16,-1
 31 700 l 1,13,-1
EndSplineSet
EndChar

StartChar: Imacron
Encoding: 298 298 258
Width: 283
Flags: W
LayerCount: 2
Fore
SplineSet
-45 832 m 1,0,-1
 329 832 l 1,1,-1
 329 760 l 1,2,-1
 -45 760 l 1,3,-1
 -45 832 l 1,0,-1
36 700 m 1,4,-1
 246 700 l 1,5,-1
 246 0 l 1,6,-1
 36 0 l 1,7,-1
 36 700 l 1,4,-1
EndSplineSet
EndChar

StartChar: Iogonek
Encoding: 302 302 259
Width: 283
Flags: W
LayerCount: 2
Fore
SplineSet
36 700 m 1,0,-1
 246 700 l 1,1,-1
 246 0 l 1,2,-1
 152 0 l 1,3,4
 143 -8 143 -8 133.5 -20.5 c 128,-1,5
 124 -33 124 -33 116.5 -47.5 c 128,-1,6
 109 -62 109 -62 104.5 -77.5 c 128,-1,7
 100 -93 100 -93 100 -106 c 0,8,9
 100 -133 100 -133 115 -143 c 128,-1,10
 130 -153 130 -153 151 -153 c 0,11,12
 176 -153 176 -153 202.5 -144 c 128,-1,13
 229 -135 229 -135 246 -126 c 1,14,-1
 224 -198 l 1,15,16
 204 -208 204 -208 178.5 -213 c 128,-1,17
 153 -218 153 -218 126 -218 c 0,18,19
 100 -218 100 -218 75 -212 c 128,-1,20
 50 -206 50 -206 30.5 -193.5 c 128,-1,21
 11 -181 11 -181 -1 -160 c 128,-1,22
 -13 -139 -13 -139 -13 -109 c 0,23,24
 -13 -83 -13 -83 -1.5 -54.5 c 128,-1,25
 10 -26 10 -26 36 2 c 1,26,-1
 36 700 l 1,0,-1
EndSplineSet
EndChar

StartChar: Itilde
Encoding: 296 296 260
Width: 283
Flags: W
LayerCount: 2
Fore
SplineSet
-53 844 m 1,0,1
 -30 871 -30 871 -6 882 c 128,-1,2
 18 893 18 893 42 893 c 0,3,4
 69 893 69 893 96 883 c 128,-1,5
 123 873 123 873 149.5 861 c 128,-1,6
 176 849 176 849 202 839 c 128,-1,7
 228 829 228 829 252 829 c 0,8,9
 275 829 275 829 295.5 840.5 c 128,-1,10
 316 852 316 852 336 881 c 1,11,-1
 336 792 l 1,12,13
 316 763 316 763 295.5 751.5 c 128,-1,14
 275 740 275 740 252 740 c 0,15,16
 228 740 228 740 202 750 c 128,-1,17
 176 760 176 760 149.5 772 c 128,-1,18
 123 784 123 784 96 794 c 128,-1,19
 69 804 69 804 42 804 c 0,20,21
 18 804 18 804 -6 793 c 128,-1,22
 -30 782 -30 782 -53 755 c 1,23,-1
 -53 844 l 1,0,1
36 700 m 1,24,-1
 246 700 l 1,25,-1
 246 0 l 1,26,-1
 36 0 l 1,27,-1
 36 700 l 1,24,-1
EndSplineSet
EndChar

StartChar: Jcircumflex
Encoding: 308 308 261
Width: 445
Flags: W
LayerCount: 2
Fore
SplineSet
21 814 m 1,0,-1
 221 902 l 1,1,-1
 421 814 l 1,2,-1
 421 760 l 1,3,-1
 221 806 l 1,4,-1
 21 760 l 1,5,-1
 21 814 l 1,0,-1
33 152 m 1,6,-1
 173 152 l 1,7,-1
 173 700 l 1,8,-1
 383 700 l 1,9,-1
 383 70 l 2,10,11
 383 42 383 42 362 21 c 128,-1,12
 341 0 341 0 313 0 c 2,13,-1
 103 0 l 1,14,-1
 33 152 l 1,6,-1
EndSplineSet
EndChar

StartChar: Lacute
Encoding: 313 313 262
Width: 625
Flags: W
LayerCount: 2
Fore
SplineSet
164 814 m 1,0,-1
 444 902 l 1,1,-1
 444 806 l 1,2,-1
 164 760 l 1,3,-1
 164 814 l 1,0,-1
27 700 m 1,4,-1
 237 700 l 1,5,-1
 237 152 l 1,6,-1
 541 152 l 1,7,-1
 611 0 l 1,8,-1
 27 0 l 1,9,-1
 27 700 l 1,4,-1
EndSplineSet
EndChar

StartChar: Lslash
Encoding: 321 321 263
Width: 675
Flags: W
LayerCount: 2
Fore
SplineSet
83 206 m 1,0,-1
 27 174 l 1,1,-1
 27 289 l 1,2,-1
 83 321 l 1,3,-1
 83 700 l 1,4,-1
 293 700 l 1,5,-1
 293 443 l 1,6,-1
 447 532 l 1,7,-1
 447 417 l 1,8,-1
 293 328 l 1,9,-1
 293 152 l 1,10,-1
 597 152 l 1,11,-1
 667 0 l 1,12,-1
 83 0 l 1,13,-1
 83 206 l 1,0,-1
EndSplineSet
EndChar

StartChar: Nacute
Encoding: 323 323 264
Width: 639
Flags: W
LayerCount: 2
Fore
SplineSet
179 814 m 1,0,-1
 459 902 l 1,1,-1
 459 806 l 1,2,-1
 179 760 l 1,3,-1
 179 814 l 1,0,-1
27 700 m 1,4,-1
 541 700 l 2,5,6
 568 700 568 700 589.5 679 c 128,-1,7
 611 658 611 658 611 630 c 2,8,-1
 611 0 l 1,9,-1
 401 0 l 1,10,-1
 401 548 l 1,11,-1
 237 548 l 1,12,-1
 237 0 l 1,13,-1
 27 0 l 1,14,-1
 27 700 l 1,4,-1
EndSplineSet
EndChar

StartChar: Ncaron
Encoding: 327 327 265
Width: 644
Flags: W
LayerCount: 2
Fore
SplineSet
122 848 m 1,0,-1
 122 902 l 1,1,-1
 322 856 l 1,2,-1
 522 902 l 1,3,-1
 522 848 l 1,4,-1
 322 760 l 1,5,-1
 122 848 l 1,0,-1
30 700 m 1,6,-1
 544 700 l 2,7,8
 571 700 571 700 592.5 679 c 128,-1,9
 614 658 614 658 614 630 c 2,10,-1
 614 0 l 1,11,-1
 404 0 l 1,12,-1
 404 548 l 1,13,-1
 240 548 l 1,14,-1
 240 0 l 1,15,-1
 30 0 l 1,16,-1
 30 700 l 1,6,-1
EndSplineSet
EndChar

StartChar: Ohungarumlaut
Encoding: 336 336 266
Width: 638
Flags: W
LayerCount: 2
Fore
SplineSet
362 924 m 1,0,-1
 434 924 l 1,1,-1
 376 760 l 1,2,-1
 324 760 l 1,3,-1
 362 924 l 1,0,-1
242 924 m 1,4,-1
 314 924 l 1,5,-1
 256 760 l 1,6,-1
 204 760 l 1,7,-1
 242 924 l 1,4,-1
27 630 m 2,8,9
 27 658 27 658 48.5 679 c 128,-1,10
 70 700 70 700 97 700 c 2,11,-1
 541 700 l 2,12,13
 568 700 568 700 589.5 679 c 128,-1,14
 611 658 611 658 611 630 c 2,15,-1
 611 70 l 2,16,17
 611 41 611 41 589.5 20.5 c 128,-1,18
 568 0 568 0 541 0 c 2,19,-1
 97 0 l 2,20,21
 70 0 70 0 48.5 20.5 c 128,-1,22
 27 41 27 41 27 70 c 2,23,-1
 27 630 l 2,8,9
401 152 m 1,24,-1
 401 548 l 1,25,-1
 237 548 l 1,26,-1
 237 152 l 1,27,-1
 401 152 l 1,24,-1
EndSplineSet
EndChar

StartChar: Omacron
Encoding: 332 332 267
Width: 656
Flags: W
LayerCount: 2
Fore
SplineSet
141 832 m 1,0,-1
 515 832 l 1,1,-1
 515 760 l 1,2,-1
 141 760 l 1,3,-1
 141 832 l 1,0,-1
36 630 m 2,4,5
 36 658 36 658 57.5 679 c 128,-1,6
 79 700 79 700 106 700 c 2,7,-1
 550 700 l 2,8,9
 577 700 577 700 598.5 679 c 128,-1,10
 620 658 620 658 620 630 c 2,11,-1
 620 70 l 2,12,13
 620 41 620 41 598.5 20.5 c 128,-1,14
 577 0 577 0 550 0 c 2,15,-1
 106 0 l 2,16,17
 79 0 79 0 57.5 20.5 c 128,-1,18
 36 41 36 41 36 70 c 2,19,-1
 36 630 l 2,4,5
410 152 m 1,20,-1
 410 548 l 1,21,-1
 246 548 l 1,22,-1
 246 152 l 1,23,-1
 410 152 l 1,20,-1
EndSplineSet
EndChar

StartChar: Racute
Encoding: 340 340 268
Width: 655
Flags: W
LayerCount: 2
Fore
SplineSet
187 814 m 1,0,-1
 467 902 l 1,1,-1
 467 806 l 1,2,-1
 187 760 l 1,3,-1
 187 814 l 1,0,-1
27 700 m 1,4,-1
 540 700 l 2,5,6
 568 700 568 700 589 679 c 128,-1,7
 610 658 610 658 610 630 c 2,8,-1
 610 362 l 2,9,10
 610 334 610 334 589 313 c 128,-1,11
 568 292 568 292 540 292 c 2,12,-1
 499 292 l 1,13,-1
 633 0 l 1,14,-1
 447 0 l 1,15,-1
 260 408 l 1,16,-1
 400 408 l 1,17,-1
 400 548 l 1,18,-1
 237 548 l 1,19,-1
 237 0 l 1,20,-1
 27 0 l 1,21,-1
 27 700 l 1,4,-1
EndSplineSet
EndChar

StartChar: Rcaron
Encoding: 344 344 269
Width: 660
Flags: W
LayerCount: 2
Fore
SplineSet
130 848 m 1,0,-1
 130 902 l 1,1,-1
 330 856 l 1,2,-1
 530 902 l 1,3,-1
 530 848 l 1,4,-1
 330 760 l 1,5,-1
 130 848 l 1,0,-1
30 700 m 1,6,-1
 543 700 l 2,7,8
 571 700 571 700 592 679 c 128,-1,9
 613 658 613 658 613 630 c 2,10,-1
 613 362 l 2,11,12
 613 334 613 334 592 313 c 128,-1,13
 571 292 571 292 543 292 c 2,14,-1
 502 292 l 1,15,-1
 636 0 l 1,16,-1
 450 0 l 1,17,-1
 263 408 l 1,18,-1
 403 408 l 1,19,-1
 403 548 l 1,20,-1
 240 548 l 1,21,-1
 240 0 l 1,22,-1
 30 0 l 1,23,-1
 30 700 l 1,6,-1
EndSplineSet
EndChar

StartChar: Sacute
Encoding: 346 346 270
Width: 632
Flags: W
LayerCount: 2
Fore
SplineSet
176 814 m 1,0,-1
 456 902 l 1,1,-1
 456 806 l 1,2,-1
 176 760 l 1,3,-1
 176 814 l 1,0,-1
23 152 m 1,4,-1
 397 152 l 1,5,-1
 397 292 l 1,6,-1
 93 292 l 2,7,8
 66 292 66 292 44.5 312.5 c 128,-1,9
 23 333 23 333 23 362 c 2,10,-1
 23 630 l 2,11,12
 23 658 23 658 44.5 679 c 128,-1,13
 66 700 66 700 93 700 c 2,14,-1
 607 700 l 1,15,-1
 607 548 l 1,16,-1
 233 548 l 1,17,-1
 233 408 l 1,18,-1
 537 408 l 2,19,20
 564 408 564 408 585.5 387 c 128,-1,21
 607 366 607 366 607 338 c 2,22,-1
 607 70 l 2,23,24
 607 41 607 41 585.5 20.5 c 128,-1,25
 564 0 564 0 537 0 c 2,26,-1
 93 0 l 1,27,-1
 23 152 l 1,4,-1
EndSplineSet
EndChar

StartChar: Scaron
Encoding: 352 352 271
Width: 637
Flags: W
LayerCount: 2
Fore
SplineSet
119 848 m 1,0,-1
 119 902 l 1,1,-1
 319 856 l 1,2,-1
 519 902 l 1,3,-1
 519 848 l 1,4,-1
 319 760 l 1,5,-1
 119 848 l 1,0,-1
26 152 m 1,6,-1
 400 152 l 1,7,-1
 400 292 l 1,8,-1
 96 292 l 2,9,10
 69 292 69 292 47.5 312.5 c 128,-1,11
 26 333 26 333 26 362 c 2,12,-1
 26 630 l 2,13,14
 26 658 26 658 47.5 679 c 128,-1,15
 69 700 69 700 96 700 c 2,16,-1
 610 700 l 1,17,-1
 610 548 l 1,18,-1
 236 548 l 1,19,-1
 236 408 l 1,20,-1
 540 408 l 2,21,22
 567 408 567 408 588.5 387 c 128,-1,23
 610 366 610 366 610 338 c 2,24,-1
 610 70 l 2,25,26
 610 41 610 41 588.5 20.5 c 128,-1,27
 567 0 567 0 540 0 c 2,28,-1
 96 0 l 1,29,-1
 26 152 l 1,6,-1
EndSplineSet
EndChar

StartChar: Scedilla
Encoding: 350 350 272
Width: 633
Flags: W
LayerCount: 2
Fore
SplineSet
22 152 m 1,0,-1
 396 152 l 1,1,-1
 396 292 l 1,2,-1
 92 292 l 2,3,4
 65 292 65 292 43.5 312.5 c 128,-1,5
 22 333 22 333 22 362 c 2,6,-1
 22 630 l 2,7,8
 22 658 22 658 43.5 679 c 128,-1,9
 65 700 65 700 92 700 c 2,10,-1
 606 700 l 1,11,-1
 606 548 l 1,12,-1
 232 548 l 1,13,-1
 232 408 l 1,14,-1
 536 408 l 2,15,16
 563 408 563 408 584.5 387 c 128,-1,17
 606 366 606 366 606 338 c 2,18,-1
 606 70 l 2,19,20
 606 41 606 41 584.5 20.5 c 128,-1,21
 563 0 563 0 536 0 c 2,22,-1
 353 0 l 1,23,24
 375 -4 375 -4 394.5 -12 c 128,-1,25
 414 -20 414 -20 428.5 -32.5 c 128,-1,26
 443 -45 443 -45 451.5 -62.5 c 128,-1,27
 460 -80 460 -80 460 -104 c 0,28,29
 460 -136 460 -136 445 -157.5 c 128,-1,30
 430 -179 430 -179 406 -191.5 c 128,-1,31
 382 -204 382 -204 352 -209 c 128,-1,32
 322 -214 322 -214 291 -214 c 0,33,34
 265 -214 265 -214 241 -211 c 128,-1,35
 217 -208 217 -208 197 -204 c 1,36,-1
 170 -136 l 1,37,38
 181 -141 181 -141 204.5 -145 c 128,-1,39
 228 -149 228 -149 255 -149 c 0,40,41
 274 -149 274 -149 293 -146.5 c 128,-1,42
 312 -144 312 -144 327 -138 c 128,-1,43
 342 -132 342 -132 351.5 -122.5 c 128,-1,44
 361 -113 361 -113 361 -98 c 0,45,46
 361 -75 361 -75 341 -67 c 128,-1,47
 321 -59 321 -59 297 -59 c 0,48,49
 278 -59 278 -59 260.5 -62.5 c 128,-1,50
 243 -66 243 -66 233 -69 c 1,51,-1
 200 -11 l 1,52,53
 208 -7 208 -7 218.5 -4.5 c 128,-1,54
 229 -2 229 -2 240 0 c 1,55,-1
 92 0 l 1,56,-1
 22 152 l 1,0,-1
EndSplineSet
EndChar

StartChar: Scircumflex
Encoding: 348 348 273
Width: 637
Flags: W
LayerCount: 2
Fore
SplineSet
119 814 m 1,0,-1
 319 902 l 1,1,-1
 519 814 l 1,2,-1
 519 760 l 1,3,-1
 319 806 l 1,4,-1
 119 760 l 1,5,-1
 119 814 l 1,0,-1
26 152 m 1,6,-1
 400 152 l 1,7,-1
 400 292 l 1,8,-1
 96 292 l 2,9,10
 69 292 69 292 47.5 312.5 c 128,-1,11
 26 333 26 333 26 362 c 2,12,-1
 26 630 l 2,13,14
 26 658 26 658 47.5 679 c 128,-1,15
 69 700 69 700 96 700 c 2,16,-1
 610 700 l 1,17,-1
 610 548 l 1,18,-1
 236 548 l 1,19,-1
 236 408 l 1,20,-1
 540 408 l 2,21,22
 567 408 567 408 588.5 387 c 128,-1,23
 610 366 610 366 610 338 c 2,24,-1
 610 70 l 2,25,26
 610 41 610 41 588.5 20.5 c 128,-1,27
 567 0 567 0 540 0 c 2,28,-1
 96 0 l 1,29,-1
 26 152 l 1,6,-1
EndSplineSet
EndChar

StartChar: Tbar
Encoding: 358 358 274
Width: 622
Flags: W
LayerCount: 2
Fore
SplineSet
206 360 m 1,0,-1
 124 360 l 1,1,-1
 124 432 l 1,2,-1
 206 432 l 1,3,-1
 206 548 l 1,4,-1
 19 548 l 1,5,-1
 19 700 l 1,6,-1
 603 700 l 1,7,-1
 603 548 l 1,8,-1
 416 548 l 1,9,-1
 416 432 l 1,10,-1
 498 432 l 1,11,-1
 498 360 l 1,12,-1
 416 360 l 1,13,-1
 416 0 l 1,14,-1
 206 0 l 1,15,-1
 206 360 l 1,0,-1
EndSplineSet
EndChar

StartChar: Tcaron
Encoding: 356 356 275
Width: 606
Flags: W
LayerCount: 2
Fore
SplineSet
103 848 m 1,0,-1
 103 902 l 1,1,-1
 303 856 l 1,2,-1
 503 902 l 1,3,-1
 503 848 l 1,4,-1
 303 760 l 1,5,-1
 103 848 l 1,0,-1
198 548 m 1,6,-1
 11 548 l 1,7,-1
 11 700 l 1,8,-1
 595 700 l 1,9,-1
 595 548 l 1,10,-1
 408 548 l 1,11,-1
 408 0 l 1,12,-1
 198 0 l 1,13,-1
 198 548 l 1,6,-1
EndSplineSet
EndChar

StartChar: Ubreve
Encoding: 364 364 276
Width: 641
Flags: W
LayerCount: 2
Fore
SplineSet
269 761 m 256,0,1
 245 772 245 772 226 791 c 128,-1,2
 207 810 207 810 196 834 c 128,-1,3
 185 858 185 858 185 885 c 1,4,-1
 235 885 l 1,5,6
 235 868 235 868 242 853 c 128,-1,7
 249 838 249 838 261 826 c 128,-1,8
 273 814 273 814 288 807 c 128,-1,9
 303 800 303 800 320 800 c 0,10,11
 336 800 336 800 351.5 807 c 128,-1,12
 367 814 367 814 379 826 c 128,-1,13
 391 838 391 838 398 853 c 128,-1,14
 405 868 405 868 405 885 c 1,15,-1
 455 885 l 1,16,17
 455 858 455 858 444 834 c 128,-1,18
 433 810 433 810 414 791 c 128,-1,19
 395 772 395 772 371 761 c 128,-1,20
 347 750 347 750 320 750 c 256,21,22
 293 750 293 750 269 761 c 256,0,1
28 700 m 1,23,-1
 238 700 l 1,24,-1
 238 152 l 1,25,-1
 402 152 l 1,26,-1
 402 700 l 1,27,-1
 612 700 l 1,28,-1
 612 0 l 1,29,-1
 98 0 l 2,30,31
 71 0 71 0 49.5 20.5 c 128,-1,32
 28 41 28 41 28 70 c 2,33,-1
 28 700 l 1,23,-1
EndSplineSet
EndChar

StartChar: Uhungarumlaut
Encoding: 368 368 277
Width: 639
Flags: W
LayerCount: 2
Fore
SplineSet
362 924 m 1,0,-1
 434 924 l 1,1,-1
 376 760 l 1,2,-1
 324 760 l 1,3,-1
 362 924 l 1,0,-1
242 924 m 1,4,-1
 314 924 l 1,5,-1
 256 760 l 1,6,-1
 204 760 l 1,7,-1
 242 924 l 1,4,-1
27 700 m 1,8,-1
 237 700 l 1,9,-1
 237 152 l 1,10,-1
 401 152 l 1,11,-1
 401 700 l 1,12,-1
 611 700 l 1,13,-1
 611 0 l 1,14,-1
 97 0 l 2,15,16
 70 0 70 0 48.5 20.5 c 128,-1,17
 27 41 27 41 27 70 c 2,18,-1
 27 700 l 1,8,-1
EndSplineSet
EndChar

StartChar: Umacron
Encoding: 362 362 278
Width: 656
Flags: W
LayerCount: 2
Fore
SplineSet
141 832 m 1,0,-1
 515 832 l 1,1,-1
 515 760 l 1,2,-1
 141 760 l 1,3,-1
 141 832 l 1,0,-1
36 700 m 1,4,-1
 246 700 l 1,5,-1
 246 152 l 1,6,-1
 410 152 l 1,7,-1
 410 700 l 1,8,-1
 620 700 l 1,9,-1
 620 0 l 1,10,-1
 106 0 l 2,11,12
 79 0 79 0 57.5 20.5 c 128,-1,13
 36 41 36 41 36 70 c 2,14,-1
 36 700 l 1,4,-1
EndSplineSet
EndChar

StartChar: Uogonek
Encoding: 370 370 279
Width: 656
Flags: W
LayerCount: 2
Fore
SplineSet
36 700 m 1,0,-1
 246 700 l 1,1,-1
 246 152 l 1,2,-1
 410 152 l 1,3,-1
 410 700 l 1,4,-1
 620 700 l 1,5,-1
 620 0 l 1,6,-1
 526 0 l 1,7,8
 517 -8 517 -8 507.5 -20.5 c 128,-1,9
 498 -33 498 -33 490.5 -47.5 c 128,-1,10
 483 -62 483 -62 478.5 -77.5 c 128,-1,11
 474 -93 474 -93 474 -106 c 0,12,13
 474 -133 474 -133 489 -143 c 128,-1,14
 504 -153 504 -153 525 -153 c 0,15,16
 550 -153 550 -153 576.5 -144 c 128,-1,17
 603 -135 603 -135 620 -126 c 1,18,-1
 598 -198 l 1,19,20
 578 -208 578 -208 552.5 -213 c 128,-1,21
 527 -218 527 -218 500 -218 c 0,22,23
 474 -218 474 -218 449 -212 c 128,-1,24
 424 -206 424 -206 404.5 -193.5 c 128,-1,25
 385 -181 385 -181 373 -160 c 128,-1,26
 361 -139 361 -139 361 -109 c 0,27,28
 361 -83 361 -83 372 -55.5 c 128,-1,29
 383 -28 383 -28 407 0 c 1,30,-1
 106 0 l 2,31,32
 79 0 79 0 57.5 20.5 c 128,-1,33
 36 41 36 41 36 70 c 2,34,-1
 36 700 l 1,0,-1
EndSplineSet
EndChar

StartChar: Uring
Encoding: 366 366 280
Width: 637
Flags: W
LayerCount: 2
Fore
SplineSet
281 757 m 1,0,1
 264 765 264 765 251 778 c 128,-1,2
 238 791 238 791 230.5 808.5 c 128,-1,3
 223 826 223 826 223 845 c 256,4,5
 223 864 223 864 230.5 881.5 c 128,-1,6
 238 899 238 899 251 912 c 128,-1,7
 264 925 264 925 281.5 932.5 c 128,-1,8
 299 940 299 940 318 940 c 256,9,10
 337 940 337 940 354.5 932.5 c 128,-1,11
 372 925 372 925 385 912 c 128,-1,12
 398 899 398 899 405.5 881.5 c 128,-1,13
 413 864 413 864 413 845 c 256,14,15
 413 826 413 826 405.5 808.5 c 128,-1,16
 398 791 398 791 385 778 c 128,-1,17
 372 765 372 765 354.5 757.5 c 128,-1,18
 337 750 337 750 318 750 c 256,19,20
 299 750 299 750 281 757 c 1,0,1
318 800 m 256,21,22
 336 800 336 800 349.5 813.5 c 128,-1,23
 363 827 363 827 363 845 c 256,24,25
 363 863 363 863 349.5 876.5 c 128,-1,26
 336 890 336 890 318 890 c 256,27,28
 300 890 300 890 286.5 876.5 c 128,-1,29
 273 863 273 863 273 845 c 256,30,31
 273 827 273 827 286.5 813.5 c 128,-1,32
 300 800 300 800 318 800 c 256,21,22
26 700 m 1,33,-1
 236 700 l 1,34,-1
 236 152 l 1,35,-1
 400 152 l 1,36,-1
 400 700 l 1,37,-1
 610 700 l 1,38,-1
 610 0 l 1,39,-1
 96 0 l 2,40,41
 69 0 69 0 47.5 20.5 c 128,-1,42
 26 41 26 41 26 70 c 2,43,-1
 26 700 l 1,33,-1
EndSplineSet
EndChar

StartChar: Utilde
Encoding: 360 360 281
Width: 647
Flags: W
LayerCount: 2
Fore
SplineSet
128 844 m 1,0,1
 151 871 151 871 175 882 c 128,-1,2
 199 893 199 893 223 893 c 0,3,4
 250 893 250 893 277 883 c 128,-1,5
 304 873 304 873 330.5 861 c 128,-1,6
 357 849 357 849 383 839 c 128,-1,7
 409 829 409 829 433 829 c 0,8,9
 456 829 456 829 476.5 840.5 c 128,-1,10
 497 852 497 852 517 881 c 1,11,-1
 517 792 l 1,12,13
 497 763 497 763 476.5 751.5 c 128,-1,14
 456 740 456 740 433 740 c 0,15,16
 409 740 409 740 383 750 c 128,-1,17
 357 760 357 760 330.5 772 c 128,-1,18
 304 784 304 784 277 794 c 128,-1,19
 250 804 250 804 223 804 c 0,20,21
 199 804 199 804 175 793 c 128,-1,22
 151 782 151 782 128 755 c 1,23,-1
 128 844 l 1,0,1
31 700 m 1,24,-1
 241 700 l 1,25,-1
 241 152 l 1,26,-1
 405 152 l 1,27,-1
 405 700 l 1,28,-1
 615 700 l 1,29,-1
 615 0 l 1,30,-1
 101 0 l 2,31,32
 74 0 74 0 52.5 20.5 c 128,-1,33
 31 41 31 41 31 70 c 2,34,-1
 31 700 l 1,24,-1
EndSplineSet
EndChar

StartChar: Wacute
Encoding: 7810 7810 282
Width: 1008
Flags: W
LayerCount: 2
Fore
SplineSet
363 814 m 1,0,-1
 643 902 l 1,1,-1
 643 806 l 1,2,-1
 363 760 l 1,3,-1
 363 814 l 1,0,-1
25 700 m 1,4,-1
 235 700 l 1,5,-1
 235 152 l 1,6,-1
 398 152 l 1,7,-1
 398 700 l 1,8,-1
 608 700 l 1,9,-1
 608 152 l 1,10,-1
 771 152 l 1,11,-1
 771 700 l 1,12,-1
 981 700 l 1,13,-1
 981 70 l 2,14,15
 981 42 981 42 960 21 c 128,-1,16
 939 0 939 0 911 0 c 2,17,-1
 95 0 l 2,18,19
 67 0 67 0 46 21 c 128,-1,20
 25 42 25 42 25 70 c 2,21,-1
 25 700 l 1,4,-1
EndSplineSet
EndChar

StartChar: Wcircumflex
Encoding: 372 372 283
Width: 1010
Flags: W
LayerCount: 2
Fore
SplineSet
305 814 m 1,0,-1
 505 902 l 1,1,-1
 705 814 l 1,2,-1
 705 760 l 1,3,-1
 505 806 l 1,4,-1
 305 760 l 1,5,-1
 305 814 l 1,0,-1
27 700 m 1,6,-1
 237 700 l 1,7,-1
 237 152 l 1,8,-1
 400 152 l 1,9,-1
 400 700 l 1,10,-1
 610 700 l 1,11,-1
 610 152 l 1,12,-1
 773 152 l 1,13,-1
 773 700 l 1,14,-1
 983 700 l 1,15,-1
 983 70 l 2,16,17
 983 42 983 42 962 21 c 128,-1,18
 941 0 941 0 913 0 c 2,19,-1
 97 0 l 2,20,21
 69 0 69 0 48 21 c 128,-1,22
 27 42 27 42 27 70 c 2,23,-1
 27 700 l 1,6,-1
EndSplineSet
EndChar

StartChar: Wdieresis
Encoding: 7812 7812 284
Width: 1013
Flags: W
LayerCount: 2
Fore
SplineSet
565 773 m 256,0,1
 547 796 547 796 547 824 c 0,2,3
 547 851 547 851 565 874 c 128,-1,4
 583 897 583 897 620 897 c 0,5,6
 658 897 658 897 676.5 874 c 128,-1,7
 695 851 695 851 695 823 c 0,8,9
 695 796 695 796 676.5 773 c 128,-1,10
 658 750 658 750 620 750 c 0,11,12
 583 750 583 750 565 773 c 256,0,1
335 773 m 256,13,14
 317 796 317 796 317 824 c 0,15,16
 317 851 317 851 335 874 c 128,-1,17
 353 897 353 897 390 897 c 0,18,19
 428 897 428 897 446.5 874 c 128,-1,20
 465 851 465 851 465 823 c 0,21,22
 465 796 465 796 446.5 773 c 128,-1,23
 428 750 428 750 390 750 c 0,24,25
 353 750 353 750 335 773 c 256,13,14
28 700 m 1,26,-1
 238 700 l 1,27,-1
 238 152 l 1,28,-1
 401 152 l 1,29,-1
 401 700 l 1,30,-1
 611 700 l 1,31,-1
 611 152 l 1,32,-1
 774 152 l 1,33,-1
 774 700 l 1,34,-1
 984 700 l 1,35,-1
 984 70 l 2,36,37
 984 42 984 42 963 21 c 128,-1,38
 942 0 942 0 914 0 c 2,39,-1
 98 0 l 2,40,41
 70 0 70 0 49 21 c 128,-1,42
 28 42 28 42 28 70 c 2,43,-1
 28 700 l 1,26,-1
EndSplineSet
EndChar

StartChar: Wgrave
Encoding: 7808 7808 285
Width: 1008
Flags: W
LayerCount: 2
Fore
SplineSet
364 902 m 1,0,-1
 644 814 l 1,1,-1
 644 760 l 1,2,-1
 364 806 l 1,3,-1
 364 902 l 1,0,-1
26 700 m 1,4,-1
 236 700 l 1,5,-1
 236 152 l 1,6,-1
 399 152 l 1,7,-1
 399 700 l 1,8,-1
 609 700 l 1,9,-1
 609 152 l 1,10,-1
 772 152 l 1,11,-1
 772 700 l 1,12,-1
 982 700 l 1,13,-1
 982 70 l 2,14,15
 982 42 982 42 961 21 c 128,-1,16
 940 0 940 0 912 0 c 2,17,-1
 96 0 l 2,18,19
 68 0 68 0 47 21 c 128,-1,20
 26 42 26 42 26 70 c 2,21,-1
 26 700 l 1,4,-1
EndSplineSet
EndChar

StartChar: Ycircumflex
Encoding: 374 374 286
Width: 719
Flags: W
LayerCount: 2
Fore
SplineSet
159 814 m 1,0,-1
 359 902 l 1,1,-1
 559 814 l 1,2,-1
 559 760 l 1,3,-1
 359 806 l 1,4,-1
 159 760 l 1,5,-1
 159 814 l 1,0,-1
254 315 m 1,6,-1
 10 700 l 1,7,-1
 266 700 l 1,8,-1
 359 553 l 1,9,-1
 452 700 l 1,10,-1
 709 700 l 1,11,-1
 464 315 l 1,12,-1
 464 0 l 1,13,-1
 254 0 l 1,14,-1
 254 315 l 1,6,-1
EndSplineSet
EndChar

StartChar: Ygrave
Encoding: 7922 7922 287
Width: 716
Flags: W
LayerCount: 2
Fore
SplineSet
218 902 m 1,0,-1
 498 814 l 1,1,-1
 498 760 l 1,2,-1
 218 806 l 1,3,-1
 218 902 l 1,0,-1
253 315 m 1,4,-1
 9 700 l 1,5,-1
 265 700 l 1,6,-1
 358 553 l 1,7,-1
 451 700 l 1,8,-1
 708 700 l 1,9,-1
 463 315 l 1,10,-1
 463 0 l 1,11,-1
 253 0 l 1,12,-1
 253 315 l 1,4,-1
EndSplineSet
EndChar

StartChar: Zacute
Encoding: 377 377 288
Width: 627
Flags: W
LayerCount: 2
Fore
SplineSet
165 814 m 1,0,-1
 445 902 l 1,1,-1
 445 806 l 1,2,-1
 165 760 l 1,3,-1
 165 814 l 1,0,-1
20 152 m 1,4,-1
 335 548 l 1,5,-1
 20 548 l 1,6,-1
 20 700 l 1,7,-1
 604 700 l 1,8,-1
 604 548 l 1,9,-1
 289 152 l 1,10,-1
 604 152 l 1,11,-1
 604 0 l 1,12,-1
 20 0 l 1,13,-1
 20 152 l 1,4,-1
EndSplineSet
EndChar

StartChar: Zcaron
Encoding: 381 381 289
Width: 634
Flags: W
LayerCount: 2
Fore
SplineSet
110 848 m 1,0,-1
 110 902 l 1,1,-1
 310 856 l 1,2,-1
 510 902 l 1,3,-1
 510 848 l 1,4,-1
 310 760 l 1,5,-1
 110 848 l 1,0,-1
25 152 m 1,6,-1
 340 548 l 1,7,-1
 25 548 l 1,8,-1
 25 700 l 1,9,-1
 609 700 l 1,10,-1
 609 548 l 1,11,-1
 294 152 l 1,12,-1
 609 152 l 1,13,-1
 609 0 l 1,14,-1
 25 0 l 1,15,-1
 25 152 l 1,6,-1
EndSplineSet
EndChar

StartChar: Zdotaccent
Encoding: 379 379 290
Width: 625
Flags: W
LayerCount: 2
Fore
SplineSet
249 773 m 256,0,1
 231 796 231 796 231 824 c 0,2,3
 231 851 231 851 249 874 c 128,-1,4
 267 897 267 897 304 897 c 0,5,6
 342 897 342 897 360.5 874 c 128,-1,7
 379 851 379 851 379 823 c 0,8,9
 379 796 379 796 360.5 773 c 128,-1,10
 342 750 342 750 304 750 c 0,11,12
 267 750 267 750 249 773 c 256,0,1
20 152 m 1,13,-1
 335 548 l 1,14,-1
 20 548 l 1,15,-1
 20 700 l 1,16,-1
 604 700 l 1,17,-1
 604 548 l 1,18,-1
 289 152 l 1,19,-1
 604 152 l 1,20,-1
 604 0 l 1,21,-1
 20 0 l 1,22,-1
 20 152 l 1,13,-1
EndSplineSet
EndChar

StartChar: abreve
Encoding: 259 259 291
Width: 590
Flags: W
LayerCount: 2
Fore
SplineSet
243 586 m 256,0,1
 219 597 219 597 200 616 c 128,-1,2
 181 635 181 635 170 659 c 128,-1,3
 159 683 159 683 159 710 c 1,4,-1
 209 710 l 1,5,6
 209 693 209 693 216 678 c 128,-1,7
 223 663 223 663 235 651 c 128,-1,8
 247 639 247 639 262 632 c 128,-1,9
 277 625 277 625 294 625 c 0,10,11
 310 625 310 625 325.5 632 c 128,-1,12
 341 639 341 639 353 651 c 128,-1,13
 365 663 365 663 372 678 c 128,-1,14
 379 693 379 693 379 710 c 1,15,-1
 429 710 l 1,16,17
 429 683 429 683 418 659 c 128,-1,18
 407 635 407 635 388 616 c 128,-1,19
 369 597 369 597 345 586 c 128,-1,20
 321 575 321 575 294 575 c 256,21,22
 267 575 267 575 243 586 c 256,0,1
26 245 m 2,23,24
 26 272 26 272 47 293 c 128,-1,25
 68 314 68 314 96 314 c 2,26,-1
 352 314 l 1,27,-1
 352 373 l 1,28,-1
 26 373 l 1,29,-1
 26 525 l 1,30,-1
 492 525 l 2,31,32
 520 525 520 525 541 504 c 128,-1,33
 562 483 562 483 562 455 c 2,34,-1
 562 0 l 1,35,-1
 96 0 l 2,36,37
 68 0 68 0 47 21 c 128,-1,38
 26 42 26 42 26 70 c 2,39,-1
 26 245 l 2,23,24
352 151 m 1,40,-1
 352 198 l 1,41,-1
 236 198 l 1,42,-1
 236 151 l 1,43,-1
 352 151 l 1,40,-1
EndSplineSet
EndChar

StartChar: amacron
Encoding: 257 257 292
Width: 608
Flags: W
LayerCount: 2
Fore
SplineSet
117 657 m 1,0,-1
 491 657 l 1,1,-1
 491 585 l 1,2,-1
 117 585 l 1,3,-1
 117 657 l 1,0,-1
36 245 m 2,4,5
 36 272 36 272 57 293 c 128,-1,6
 78 314 78 314 106 314 c 2,7,-1
 362 314 l 1,8,-1
 362 373 l 1,9,-1
 36 373 l 1,10,-1
 36 525 l 1,11,-1
 502 525 l 2,12,13
 530 525 530 525 551 504 c 128,-1,14
 572 483 572 483 572 455 c 2,15,-1
 572 0 l 1,16,-1
 106 0 l 2,17,18
 78 0 78 0 57 21 c 128,-1,19
 36 42 36 42 36 70 c 2,20,-1
 36 245 l 2,4,5
362 151 m 1,21,-1
 362 198 l 1,22,-1
 246 198 l 1,23,-1
 246 151 l 1,24,-1
 362 151 l 1,21,-1
EndSplineSet
EndChar

StartChar: aogonek
Encoding: 261 261 293
Width: 588
Flags: W
LayerCount: 2
Fore
SplineSet
18 245 m 2,0,1
 18 272 18 272 39 293 c 128,-1,2
 60 314 60 314 88 314 c 2,3,-1
 344 314 l 1,4,-1
 344 373 l 1,5,-1
 18 373 l 1,6,-1
 18 525 l 1,7,-1
 484 525 l 2,8,9
 512 525 512 525 533 504 c 128,-1,10
 554 483 554 483 554 455 c 2,11,-1
 554 0 l 1,12,-1
 460 0 l 1,13,14
 451 -8 451 -8 441.5 -20.5 c 128,-1,15
 432 -33 432 -33 424.5 -47.5 c 128,-1,16
 417 -62 417 -62 412.5 -77.5 c 128,-1,17
 408 -93 408 -93 408 -106 c 0,18,19
 408 -133 408 -133 423 -143 c 128,-1,20
 438 -153 438 -153 459 -153 c 0,21,22
 484 -153 484 -153 510.5 -144 c 128,-1,23
 537 -135 537 -135 554 -126 c 1,24,-1
 532 -198 l 1,25,26
 512 -208 512 -208 486.5 -213 c 128,-1,27
 461 -218 461 -218 434 -218 c 0,28,29
 408 -218 408 -218 383 -212 c 128,-1,30
 358 -206 358 -206 338.5 -193.5 c 128,-1,31
 319 -181 319 -181 307 -160 c 128,-1,32
 295 -139 295 -139 295 -109 c 0,33,34
 295 -83 295 -83 306 -55.5 c 128,-1,35
 317 -28 317 -28 341 0 c 1,36,-1
 88 0 l 2,37,38
 60 0 60 0 39 21 c 128,-1,39
 18 42 18 42 18 70 c 2,40,-1
 18 245 l 2,0,1
344 151 m 1,41,-1
 344 198 l 1,42,-1
 228 198 l 1,43,-1
 228 151 l 1,44,-1
 344 151 l 1,41,-1
EndSplineSet
EndChar

StartChar: cacute
Encoding: 263 263 294
Width: 581
Flags: W
LayerCount: 2
Fore
SplineSet
149 639 m 1,0,-1
 429 727 l 1,1,-1
 429 631 l 1,2,-1
 149 585 l 1,3,-1
 149 639 l 1,0,-1
25 455 m 2,4,5
 25 483 25 483 46 504 c 128,-1,6
 67 525 67 525 95 525 c 2,7,-1
 561 525 l 1,8,-1
 491 373 l 1,9,-1
 235 373 l 1,10,-1
 235 151 l 1,11,-1
 561 151 l 1,12,-1
 491 0 l 1,13,-1
 95 0 l 2,14,15
 67 0 67 0 46 21 c 128,-1,16
 25 42 25 42 25 70 c 2,17,-1
 25 455 l 2,4,5
EndSplineSet
EndChar

StartChar: ccaron
Encoding: 269 269 295
Width: 589
Flags: W
LayerCount: 2
Fore
SplineSet
94 673 m 1,0,-1
 94 727 l 1,1,-1
 294 681 l 1,2,-1
 496 727 l 1,3,-1
 494 673 l 1,4,-1
 294 585 l 1,5,-1
 94 673 l 1,0,-1
30 455 m 2,6,7
 30 483 30 483 51 504 c 128,-1,8
 72 525 72 525 100 525 c 2,9,-1
 566 525 l 1,10,-1
 496 373 l 1,11,-1
 240 373 l 1,12,-1
 240 151 l 1,13,-1
 566 151 l 1,14,-1
 496 0 l 1,15,-1
 100 0 l 2,16,17
 72 0 72 0 51 21 c 128,-1,18
 30 42 30 42 30 70 c 2,19,-1
 30 455 l 2,6,7
EndSplineSet
EndChar

StartChar: ccircumflex
Encoding: 265 265 296
Width: 586
Flags: W
LayerCount: 2
Fore
SplineSet
93 639 m 1,0,-1
 293 727 l 1,1,-1
 493 639 l 1,2,-1
 493 585 l 1,3,-1
 293 631 l 1,4,-1
 93 585 l 1,5,-1
 93 639 l 1,0,-1
29 455 m 2,6,7
 29 483 29 483 50 504 c 128,-1,8
 71 525 71 525 99 525 c 2,9,-1
 565 525 l 1,10,-1
 495 373 l 1,11,-1
 239 373 l 1,12,-1
 239 151 l 1,13,-1
 565 151 l 1,14,-1
 495 0 l 1,15,-1
 99 0 l 2,16,17
 71 0 71 0 50 21 c 128,-1,18
 29 42 29 42 29 70 c 2,19,-1
 29 455 l 2,6,7
EndSplineSet
EndChar

StartChar: cdotaccent
Encoding: 267 267 297
Width: 578
Flags: W
LayerCount: 2
Fore
SplineSet
233 598 m 256,0,1
 215 621 215 621 215 649 c 0,2,3
 215 676 215 676 233 699 c 128,-1,4
 251 722 251 722 288 722 c 0,5,6
 326 722 326 722 344.5 699 c 128,-1,7
 363 676 363 676 363 648 c 0,8,9
 363 621 363 621 344.5 598 c 128,-1,10
 326 575 326 575 288 575 c 0,11,12
 251 575 251 575 233 598 c 256,0,1
25 455 m 2,13,14
 25 483 25 483 46 504 c 128,-1,15
 67 525 67 525 95 525 c 2,16,-1
 561 525 l 1,17,-1
 491 373 l 1,18,-1
 235 373 l 1,19,-1
 235 151 l 1,20,-1
 561 151 l 1,21,-1
 491 0 l 1,22,-1
 95 0 l 2,23,24
 67 0 67 0 46 21 c 128,-1,25
 25 42 25 42 25 70 c 2,26,-1
 25 455 l 2,13,14
EndSplineSet
EndChar

StartChar: dcroat
Encoding: 273 273 298
Width: 685
Flags: W
LayerCount: 2
Fore
SplineSet
25 455 m 2,0,1
 25 483 25 483 46 504 c 128,-1,2
 67 525 67 525 95 525 c 2,3,-1
 351 525 l 1,4,-1
 351 578 l 1,5,-1
 251 578 l 1,6,-1
 251 650 l 1,7,-1
 351 650 l 1,8,-1
 351 700 l 1,9,-1
 561 700 l 1,10,-1
 561 650 l 1,11,-1
 661 650 l 1,12,-1
 661 578 l 1,13,-1
 561 578 l 1,14,-1
 561 0 l 1,15,-1
 95 0 l 2,16,17
 67 0 67 0 46 21 c 128,-1,18
 25 42 25 42 25 70 c 2,19,-1
 25 455 l 2,0,1
351 152 m 1,20,-1
 351 373 l 1,21,-1
 235 373 l 1,22,-1
 235 152 l 1,23,-1
 351 152 l 1,20,-1
EndSplineSet
EndChar

StartChar: ecaron
Encoding: 283 283 299
Width: 594
Flags: W
LayerCount: 2
Fore
SplineSet
96 673 m 1,0,-1
 96 727 l 1,1,-1
 296 681 l 1,2,-1
 496 727 l 1,3,-1
 496 673 l 1,4,-1
 296 585 l 1,5,-1
 96 673 l 1,0,-1
30 455 m 2,6,7
 30 483 30 483 51 504 c 128,-1,8
 72 525 72 525 100 525 c 2,9,-1
 496 525 l 2,10,11
 524 525 524 525 545 504 c 128,-1,12
 566 483 566 483 566 455 c 2,13,-1
 566 268 l 2,14,15
 566 240 566 240 545 219 c 128,-1,16
 524 198 524 198 496 198 c 2,17,-1
 240 198 l 1,18,-1
 240 151 l 1,19,-1
 566 151 l 1,20,-1
 496 0 l 1,21,-1
 100 0 l 2,22,23
 72 0 72 0 51 21 c 128,-1,24
 30 42 30 42 30 70 c 2,25,-1
 30 455 l 2,6,7
356 314 m 1,26,-1
 356 373 l 1,27,-1
 240 373 l 1,28,-1
 240 314 l 1,29,-1
 356 314 l 1,26,-1
EndSplineSet
EndChar

StartChar: edotaccent
Encoding: 279 279 300
Width: 583
Flags: W
LayerCount: 2
Fore
SplineSet
235 598 m 256,0,1
 217 621 217 621 217 649 c 0,2,3
 217 676 217 676 235 699 c 128,-1,4
 253 722 253 722 290 722 c 0,5,6
 328 722 328 722 346.5 699 c 128,-1,7
 365 676 365 676 365 648 c 0,8,9
 365 621 365 621 346.5 598 c 128,-1,10
 328 575 328 575 290 575 c 0,11,12
 253 575 253 575 235 598 c 256,0,1
25 455 m 2,13,14
 25 483 25 483 46 504 c 128,-1,15
 67 525 67 525 95 525 c 2,16,-1
 491 525 l 2,17,18
 519 525 519 525 540 504 c 128,-1,19
 561 483 561 483 561 455 c 2,20,-1
 561 268 l 2,21,22
 561 240 561 240 540 219 c 128,-1,23
 519 198 519 198 491 198 c 2,24,-1
 235 198 l 1,25,-1
 235 151 l 1,26,-1
 561 151 l 1,27,-1
 491 0 l 1,28,-1
 95 0 l 2,29,30
 67 0 67 0 46 21 c 128,-1,31
 25 42 25 42 25 70 c 2,32,-1
 25 455 l 2,13,14
351 314 m 1,33,-1
 351 373 l 1,34,-1
 235 373 l 1,35,-1
 235 314 l 1,36,-1
 351 314 l 1,33,-1
EndSplineSet
EndChar

StartChar: emacron
Encoding: 275 275 301
Width: 605
Flags: W
LayerCount: 2
Fore
SplineSet
115 657 m 1,0,-1
 489 657 l 1,1,-1
 489 585 l 1,2,-1
 115 585 l 1,3,-1
 115 657 l 1,0,-1
36 455 m 2,4,5
 36 483 36 483 57 504 c 128,-1,6
 78 525 78 525 106 525 c 2,7,-1
 502 525 l 2,8,9
 530 525 530 525 551 504 c 128,-1,10
 572 483 572 483 572 455 c 2,11,-1
 572 268 l 2,12,13
 572 240 572 240 551 219 c 128,-1,14
 530 198 530 198 502 198 c 2,15,-1
 246 198 l 1,16,-1
 246 151 l 1,17,-1
 572 151 l 1,18,-1
 502 0 l 1,19,-1
 106 0 l 2,20,21
 78 0 78 0 57 21 c 128,-1,22
 36 42 36 42 36 70 c 2,23,-1
 36 455 l 2,4,5
362 314 m 1,24,-1
 362 373 l 1,25,-1
 246 373 l 1,26,-1
 246 314 l 1,27,-1
 362 314 l 1,24,-1
EndSplineSet
EndChar

StartChar: eogonek
Encoding: 281 281 302
Width: 588
Flags: W
LayerCount: 2
Fore
SplineSet
20 455 m 2,0,1
 20 483 20 483 41 504 c 128,-1,2
 62 525 62 525 90 525 c 2,3,-1
 486 525 l 2,4,5
 514 525 514 525 535 504 c 128,-1,6
 556 483 556 483 556 455 c 2,7,-1
 556 268 l 2,8,9
 556 240 556 240 535 219 c 128,-1,10
 514 198 514 198 486 198 c 2,11,-1
 230 198 l 1,12,-1
 230 151 l 1,13,-1
 556 151 l 1,14,-1
 486 0 l 1,15,-1
 462 0 l 1,16,17
 453 -8 453 -8 443.5 -20.5 c 128,-1,18
 434 -33 434 -33 426.5 -47.5 c 128,-1,19
 419 -62 419 -62 414.5 -77.5 c 128,-1,20
 410 -93 410 -93 410 -106 c 0,21,22
 410 -133 410 -133 425 -143 c 128,-1,23
 440 -153 440 -153 461 -153 c 0,24,25
 486 -153 486 -153 512.5 -144 c 128,-1,26
 539 -135 539 -135 556 -126 c 1,27,-1
 534 -198 l 1,28,29
 514 -208 514 -208 488.5 -213 c 128,-1,30
 463 -218 463 -218 436 -218 c 0,31,32
 410 -218 410 -218 385 -212 c 128,-1,33
 360 -206 360 -206 340.5 -193.5 c 128,-1,34
 321 -181 321 -181 309 -160 c 128,-1,35
 297 -139 297 -139 297 -109 c 0,36,37
 297 -83 297 -83 308 -55.5 c 128,-1,38
 319 -28 319 -28 343 0 c 1,39,-1
 90 0 l 2,40,41
 62 0 62 0 41 21 c 128,-1,42
 20 42 20 42 20 70 c 2,43,-1
 20 455 l 2,0,1
346 314 m 1,44,-1
 346 373 l 1,45,-1
 230 373 l 1,46,-1
 230 314 l 1,47,-1
 346 314 l 1,44,-1
EndSplineSet
EndChar

StartChar: gbreve
Encoding: 287 287 303
Width: 591
Flags: W
LayerCount: 2
Fore
SplineSet
244 586 m 256,0,1
 220 597 220 597 201 616 c 128,-1,2
 182 635 182 635 171 659 c 128,-1,3
 160 683 160 683 160 710 c 1,4,-1
 210 710 l 1,5,6
 210 693 210 693 217 678 c 128,-1,7
 224 663 224 663 236 651 c 128,-1,8
 248 639 248 639 263 632 c 128,-1,9
 278 625 278 625 295 625 c 0,10,11
 311 625 311 625 326.5 632 c 128,-1,12
 342 639 342 639 354 651 c 128,-1,13
 366 663 366 663 373 678 c 128,-1,14
 380 693 380 693 380 710 c 1,15,-1
 430 710 l 1,16,17
 430 683 430 683 419 659 c 128,-1,18
 408 635 408 635 389 616 c 128,-1,19
 370 597 370 597 346 586 c 128,-1,20
 322 575 322 575 295 575 c 256,21,22
 268 575 268 575 244 586 c 256,0,1
26 455 m 2,23,24
 26 483 26 483 47 504 c 128,-1,25
 68 525 68 525 96 525 c 2,26,-1
 562 525 l 1,27,-1
 562 -162 l 2,28,29
 562 -190 562 -190 541 -211 c 128,-1,30
 520 -232 520 -232 492 -232 c 2,31,-1
 96 -232 l 1,32,-1
 26 -80 l 1,33,-1
 352 -80 l 1,34,-1
 352 0 l 1,35,-1
 96 0 l 2,36,37
 68 0 68 0 47 21 c 128,-1,38
 26 42 26 42 26 70 c 2,39,-1
 26 455 l 2,23,24
352 152 m 1,40,-1
 352 373 l 1,41,-1
 236 373 l 1,42,-1
 236 152 l 1,43,-1
 352 152 l 1,40,-1
EndSplineSet
EndChar

StartChar: gcircumflex
Encoding: 285 285 304
Width: 594
Flags: W
LayerCount: 2
Fore
SplineSet
96 639 m 1,0,-1
 296 727 l 1,1,-1
 496 639 l 1,2,-1
 496 585 l 1,3,-1
 296 631 l 1,4,-1
 96 585 l 1,5,-1
 96 639 l 1,0,-1
27 455 m 2,6,7
 27 483 27 483 48 504 c 128,-1,8
 69 525 69 525 97 525 c 2,9,-1
 563 525 l 1,10,-1
 563 -162 l 2,11,12
 563 -190 563 -190 542 -211 c 128,-1,13
 521 -232 521 -232 493 -232 c 2,14,-1
 97 -232 l 1,15,-1
 27 -80 l 1,16,-1
 353 -80 l 1,17,-1
 353 0 l 1,18,-1
 97 0 l 2,19,20
 69 0 69 0 48 21 c 128,-1,21
 27 42 27 42 27 70 c 2,22,-1
 27 455 l 2,6,7
353 152 m 1,23,-1
 353 373 l 1,24,-1
 237 373 l 1,25,-1
 237 152 l 1,26,-1
 353 152 l 1,23,-1
EndSplineSet
EndChar

StartChar: gdotaccent
Encoding: 289 289 305
Width: 587
Flags: W
LayerCount: 2
Fore
SplineSet
237 598 m 256,0,1
 219 621 219 621 219 649 c 0,2,3
 219 676 219 676 237 699 c 128,-1,4
 255 722 255 722 292 722 c 0,5,6
 330 722 330 722 348.5 699 c 128,-1,7
 367 676 367 676 367 648 c 0,8,9
 367 621 367 621 348.5 598 c 128,-1,10
 330 575 330 575 292 575 c 0,11,12
 255 575 255 575 237 598 c 256,0,1
24 455 m 2,13,14
 24 483 24 483 45 504 c 128,-1,15
 66 525 66 525 94 525 c 2,16,-1
 560 525 l 1,17,-1
 560 -162 l 2,18,19
 560 -190 560 -190 539 -211 c 128,-1,20
 518 -232 518 -232 490 -232 c 2,21,-1
 94 -232 l 1,22,-1
 24 -80 l 1,23,-1
 350 -80 l 1,24,-1
 350 0 l 1,25,-1
 94 0 l 2,26,27
 66 0 66 0 45 21 c 128,-1,28
 24 42 24 42 24 70 c 2,29,-1
 24 455 l 2,13,14
350 152 m 1,30,-1
 350 373 l 1,31,-1
 234 373 l 1,32,-1
 234 152 l 1,33,-1
 350 152 l 1,30,-1
EndSplineSet
EndChar

StartChar: hbar
Encoding: 295 295 306
Width: 685
Flags: W
LayerCount: 2
Fore
SplineSet
124 578 m 1,0,-1
 24 578 l 1,1,-1
 24 650 l 1,2,-1
 124 650 l 1,3,-1
 124 700 l 1,4,-1
 334 700 l 1,5,-1
 334 650 l 1,6,-1
 434 650 l 1,7,-1
 434 578 l 1,8,-1
 334 578 l 1,9,-1
 334 525 l 1,10,-1
 590 525 l 2,11,12
 618 525 618 525 639 504 c 128,-1,13
 660 483 660 483 660 455 c 2,14,-1
 660 0 l 1,15,-1
 450 0 l 1,16,-1
 450 408 l 1,17,-1
 334 408 l 1,18,-1
 334 0 l 1,19,-1
 124 0 l 1,20,-1
 124 578 l 1,0,-1
EndSplineSet
EndChar

StartChar: hcircumflex
Encoding: 293 293 307
Width: 593
Flags: W
LayerCount: 2
Fore
SplineSet
91 814 m 1,0,-1
 291 902 l 1,1,-1
 491 814 l 1,2,-1
 491 760 l 1,3,-1
 291 806 l 1,4,-1
 91 760 l 1,5,-1
 91 814 l 1,0,-1
31 700 m 1,6,-1
 241 700 l 1,7,-1
 241 525 l 1,8,-1
 497 525 l 2,9,10
 525 525 525 525 546 504 c 128,-1,11
 567 483 567 483 567 455 c 2,12,-1
 567 0 l 1,13,-1
 357 0 l 1,14,-1
 357 408 l 1,15,-1
 241 408 l 1,16,-1
 241 0 l 1,17,-1
 31 0 l 1,18,-1
 31 700 l 1,6,-1
EndSplineSet
EndChar

StartChar: imacron
Encoding: 299 299 308
Width: 283
Flags: W
LayerCount: 2
Fore
SplineSet
-45 657 m 1,0,-1
 329 657 l 1,1,-1
 329 585 l 1,2,-1
 -45 585 l 1,3,-1
 -45 657 l 1,0,-1
36 525 m 1,4,-1
 246 525 l 1,5,-1
 246 0 l 1,6,-1
 36 0 l 1,7,-1
 36 525 l 1,4,-1
EndSplineSet
EndChar

StartChar: iogonek
Encoding: 303 303 309
Width: 283
Flags: W
LayerCount: 2
Fore
SplineSet
36 700 m 1,0,-1
 246 700 l 1,1,-1
 246 583 l 1,2,-1
 36 583 l 1,3,-1
 36 700 l 1,0,-1
36 525 m 1,4,-1
 246 525 l 1,5,-1
 246 0 l 1,6,-1
 177 0 l 1,7,8
 168 -8 168 -8 158.5 -20.5 c 128,-1,9
 149 -33 149 -33 141.5 -47.5 c 128,-1,10
 134 -62 134 -62 129.5 -77.5 c 128,-1,11
 125 -93 125 -93 125 -106 c 0,12,13
 125 -133 125 -133 140 -143 c 128,-1,14
 155 -153 155 -153 176 -153 c 0,15,16
 201 -153 201 -153 227.5 -144 c 128,-1,17
 254 -135 254 -135 271 -126 c 1,18,-1
 249 -198 l 1,19,20
 229 -208 229 -208 203.5 -213 c 128,-1,21
 178 -218 178 -218 151 -218 c 0,22,23
 125 -218 125 -218 100 -212 c 128,-1,24
 75 -206 75 -206 55.5 -193.5 c 128,-1,25
 36 -181 36 -181 24 -160 c 128,-1,26
 12 -139 12 -139 12 -109 c 0,27,28
 12 -83 12 -83 23 -55.5 c 128,-1,29
 34 -28 34 -28 58 0 c 1,30,-1
 36 0 l 1,31,-1
 36 525 l 1,4,-1
EndSplineSet
EndChar

StartChar: itilde
Encoding: 297 297 310
Width: 283
Flags: W
LayerCount: 2
Fore
SplineSet
-53 669 m 1,0,1
 -30 696 -30 696 -6 707 c 128,-1,2
 18 718 18 718 42 718 c 0,3,4
 69 718 69 718 96 708 c 128,-1,5
 123 698 123 698 149.5 686 c 128,-1,6
 176 674 176 674 202 664 c 128,-1,7
 228 654 228 654 252 654 c 0,8,9
 275 654 275 654 295.5 665.5 c 128,-1,10
 316 677 316 677 336 706 c 1,11,-1
 336 617 l 1,12,13
 316 588 316 588 295.5 576.5 c 128,-1,14
 275 565 275 565 252 565 c 0,15,16
 228 565 228 565 202 575 c 128,-1,17
 176 585 176 585 149.5 597 c 128,-1,18
 123 609 123 609 96 619 c 128,-1,19
 69 629 69 629 42 629 c 0,20,21
 18 629 18 629 -6 618 c 128,-1,22
 -30 607 -30 607 -53 580 c 1,23,-1
 -53 669 l 1,0,1
36 525 m 1,24,-1
 246 525 l 1,25,-1
 246 0 l 1,26,-1
 36 0 l 1,27,-1
 36 525 l 1,24,-1
EndSplineSet
EndChar

StartChar: jcircumflex
Encoding: 309 309 311
Width: 443
Flags: W
LayerCount: 2
Fore
SplineSet
19 639 m 1,0,-1
 219 727 l 1,1,-1
 419 639 l 1,2,-1
 419 585 l 1,3,-1
 219 631 l 1,4,-1
 19 585 l 1,5,-1
 19 639 l 1,0,-1
170 -80 m 1,6,-1
 170 525 l 1,7,-1
 380 525 l 1,8,-1
 380 -162 l 2,9,10
 380 -189 380 -189 359 -210.5 c 128,-1,11
 338 -232 338 -232 310 -232 c 2,12,-1
 101 -232 l 1,13,-1
 31 -80 l 1,14,-1
 170 -80 l 1,6,-1
EndSplineSet
EndChar

StartChar: kgreenlandic
Encoding: 312 312 312
Width: 632
Flags: W
LayerCount: 2
Fore
SplineSet
36 525 m 1,0,-1
 236 525 l 1,1,-1
 236 331 l 1,2,-1
 327 474 l 2,3,4
 344 500 344 500 365.5 512.5 c 128,-1,5
 387 525 387 525 419 525 c 2,6,-1
 601 525 l 1,7,-1
 531 373 l 1,8,-1
 492 373 l 1,9,-1
 404 263 l 1,10,-1
 600 0 l 1,11,-1
 359 0 l 1,12,-1
 236 194 l 1,13,-1
 236 0 l 1,14,-1
 36 0 l 1,15,-1
 36 525 l 1,0,-1
EndSplineSet
EndChar

StartChar: lslash
Encoding: 322 322 313
Width: 362
Flags: W
LayerCount: 2
Fore
SplineSet
76 206 m 1,0,-1
 20 174 l 1,1,-1
 20 289 l 1,2,-1
 76 321 l 1,3,-1
 76 700 l 1,4,-1
 286 700 l 1,5,-1
 286 443 l 1,6,-1
 342 476 l 1,7,-1
 342 361 l 1,8,-1
 286 328 l 1,9,-1
 286 0 l 1,10,-1
 76 0 l 1,11,-1
 76 206 l 1,0,-1
EndSplineSet
EndChar

StartChar: nacute
Encoding: 324 324 314
Width: 589
Flags: W
LayerCount: 2
Fore
SplineSet
153 639 m 1,0,-1
 433 727 l 1,1,-1
 433 631 l 1,2,-1
 153 585 l 1,3,-1
 153 639 l 1,0,-1
25 525 m 1,4,-1
 491 525 l 2,5,6
 519 525 519 525 540 504 c 128,-1,7
 561 483 561 483 561 455 c 2,8,-1
 561 0 l 1,9,-1
 351 0 l 1,10,-1
 351 373 l 1,11,-1
 235 373 l 1,12,-1
 235 0 l 1,13,-1
 25 0 l 1,14,-1
 25 525 l 1,4,-1
EndSplineSet
EndChar

StartChar: ncaron
Encoding: 328 328 315
Width: 598
Flags: W
LayerCount: 2
Fore
SplineSet
99 673 m 1,0,-1
 99 727 l 1,1,-1
 299 681 l 1,2,-1
 499 727 l 1,3,-1
 499 673 l 1,4,-1
 299 585 l 1,5,-1
 99 673 l 1,0,-1
31 525 m 1,6,-1
 497 525 l 2,7,8
 525 525 525 525 546 504 c 128,-1,9
 567 483 567 483 567 455 c 2,10,-1
 567 0 l 1,11,-1
 357 0 l 1,12,-1
 357 373 l 1,13,-1
 241 373 l 1,14,-1
 241 0 l 1,15,-1
 31 0 l 1,16,-1
 31 525 l 1,6,-1
EndSplineSet
EndChar

StartChar: ohungarumlaut
Encoding: 337 337 316
Width: 588
Flags: W
LayerCount: 2
Fore
SplineSet
337 749 m 1,0,-1
 409 749 l 1,1,-1
 351 585 l 1,2,-1
 299 585 l 1,3,-1
 337 749 l 1,0,-1
217 749 m 1,4,-1
 289 749 l 1,5,-1
 231 585 l 1,6,-1
 179 585 l 1,7,-1
 217 749 l 1,4,-1
26 455 m 2,8,9
 26 483 26 483 47 504 c 128,-1,10
 68 525 68 525 96 525 c 2,11,-1
 492 525 l 2,12,13
 520 525 520 525 541 504 c 128,-1,14
 562 483 562 483 562 455 c 2,15,-1
 562 70 l 2,16,17
 562 42 562 42 541 21 c 128,-1,18
 520 0 520 0 492 0 c 2,19,-1
 96 0 l 2,20,21
 68 0 68 0 47 21 c 128,-1,22
 26 42 26 42 26 70 c 2,23,-1
 26 455 l 2,8,9
352 151 m 1,24,-1
 352 373 l 1,25,-1
 236 373 l 1,26,-1
 236 151 l 1,27,-1
 352 151 l 1,24,-1
EndSplineSet
EndChar

StartChar: omacron
Encoding: 333 333 317
Width: 608
Flags: W
LayerCount: 2
Fore
SplineSet
117 657 m 1,0,-1
 491 657 l 1,1,-1
 491 585 l 1,2,-1
 117 585 l 1,3,-1
 117 657 l 1,0,-1
36 455 m 2,4,5
 36 483 36 483 57 504 c 128,-1,6
 78 525 78 525 106 525 c 2,7,-1
 502 525 l 2,8,9
 530 525 530 525 551 504 c 128,-1,10
 572 483 572 483 572 455 c 2,11,-1
 572 70 l 2,12,13
 572 42 572 42 551 21 c 128,-1,14
 530 0 530 0 502 0 c 2,15,-1
 106 0 l 2,16,17
 78 0 78 0 57 21 c 128,-1,18
 36 42 36 42 36 70 c 2,19,-1
 36 455 l 2,4,5
362 151 m 1,20,-1
 362 373 l 1,21,-1
 246 373 l 1,22,-1
 246 151 l 1,23,-1
 362 151 l 1,20,-1
EndSplineSet
EndChar

StartChar: racute
Encoding: 341 341 318
Width: 509
Flags: W
LayerCount: 2
Fore
SplineSet
111 639 m 1,0,-1
 391 727 l 1,1,-1
 391 631 l 1,2,-1
 111 585 l 1,3,-1
 111 639 l 1,0,-1
26 455 m 2,4,5
 26 483 26 483 47 504 c 128,-1,6
 68 525 68 525 96 525 c 2,7,-1
 504 525 l 1,8,-1
 434 373 l 1,9,-1
 236 373 l 1,10,-1
 236 0 l 1,11,-1
 26 0 l 1,12,-1
 26 455 l 2,4,5
EndSplineSet
EndChar

StartChar: rcaron
Encoding: 345 345 319
Width: 517
Flags: W
LayerCount: 2
Fore
SplineSet
57 673 m 1,0,-1
 57 727 l 1,1,-1
 257 681 l 1,2,-1
 457 727 l 1,3,-1
 457 673 l 1,4,-1
 257 585 l 1,5,-1
 57 673 l 1,0,-1
32 455 m 2,6,7
 32 483 32 483 53 504 c 128,-1,8
 74 525 74 525 102 525 c 2,9,-1
 510 525 l 1,10,-1
 440 373 l 1,11,-1
 242 373 l 1,12,-1
 242 0 l 1,13,-1
 32 0 l 1,14,-1
 32 455 l 2,6,7
EndSplineSet
EndChar

StartChar: sacute
Encoding: 347 347 320
Width: 585
Flags: W
LayerCount: 2
Fore
SplineSet
152 639 m 1,0,-1
 432 727 l 1,1,-1
 432 631 l 1,2,-1
 152 585 l 1,3,-1
 152 639 l 1,0,-1
22 151 m 1,4,-1
 348 151 l 1,5,-1
 348 198 l 1,6,-1
 92 198 l 2,7,8
 64 198 64 198 43 219 c 128,-1,9
 22 240 22 240 22 268 c 2,10,-1
 22 455 l 2,11,12
 22 483 22 483 43 504 c 128,-1,13
 64 525 64 525 92 525 c 2,14,-1
 558 525 l 1,15,-1
 558 373 l 1,16,-1
 232 373 l 1,17,-1
 232 314 l 1,18,-1
 488 314 l 2,19,20
 516 314 516 314 537 293 c 128,-1,21
 558 272 558 272 558 245 c 2,22,-1
 558 70 l 2,23,24
 558 42 558 42 537 21 c 128,-1,25
 516 0 516 0 488 0 c 2,26,-1
 92 0 l 1,27,-1
 22 151 l 1,4,-1
EndSplineSet
EndChar

StartChar: scaron
Encoding: 353 353 321
Width: 593
Flags: W
LayerCount: 2
Fore
SplineSet
97 673 m 1,0,-1
 97 727 l 1,1,-1
 297 681 l 1,2,-1
 497 727 l 1,3,-1
 497 673 l 1,4,-1
 297 585 l 1,5,-1
 97 673 l 1,0,-1
27 151 m 1,6,-1
 353 151 l 1,7,-1
 353 198 l 1,8,-1
 97 198 l 2,9,10
 69 198 69 198 48 219 c 128,-1,11
 27 240 27 240 27 268 c 2,12,-1
 27 455 l 2,13,14
 27 483 27 483 48 504 c 128,-1,15
 69 525 69 525 97 525 c 2,16,-1
 563 525 l 1,17,-1
 563 373 l 1,18,-1
 237 373 l 1,19,-1
 237 314 l 1,20,-1
 493 314 l 2,21,22
 521 314 521 314 542 293 c 128,-1,23
 563 272 563 272 563 245 c 2,24,-1
 563 70 l 2,25,26
 563 42 563 42 542 21 c 128,-1,27
 521 0 521 0 493 0 c 2,28,-1
 97 0 l 1,29,-1
 27 151 l 1,6,-1
EndSplineSet
EndChar

StartChar: scedilla
Encoding: 351 351 322
Width: 586
Flags: W
LayerCount: 2
Fore
SplineSet
23 151 m 1,0,-1
 349 151 l 1,1,-1
 349 198 l 1,2,-1
 93 198 l 2,3,4
 65 198 65 198 44 219 c 128,-1,5
 23 240 23 240 23 268 c 2,6,-1
 23 455 l 2,7,8
 23 483 23 483 44 504 c 128,-1,9
 65 525 65 525 93 525 c 2,10,-1
 559 525 l 1,11,-1
 559 373 l 1,12,-1
 233 373 l 1,13,-1
 233 314 l 1,14,-1
 489 314 l 2,15,16
 517 314 517 314 538 293 c 128,-1,17
 559 272 559 272 559 245 c 2,18,-1
 559 70 l 2,19,20
 559 42 559 42 538 21 c 128,-1,21
 517 0 517 0 489 0 c 2,22,-1
 331 0 l 1,23,24
 353 -4 353 -4 372.5 -12 c 128,-1,25
 392 -20 392 -20 406.5 -32.5 c 128,-1,26
 421 -45 421 -45 429.5 -62.5 c 128,-1,27
 438 -80 438 -80 438 -104 c 0,28,29
 438 -136 438 -136 423 -157.5 c 128,-1,30
 408 -179 408 -179 384 -191.5 c 128,-1,31
 360 -204 360 -204 330 -209 c 128,-1,32
 300 -214 300 -214 269 -214 c 0,33,34
 243 -214 243 -214 219 -211 c 128,-1,35
 195 -208 195 -208 175 -204 c 1,36,-1
 148 -136 l 1,37,38
 159 -141 159 -141 182.5 -145 c 128,-1,39
 206 -149 206 -149 233 -149 c 0,40,41
 252 -149 252 -149 271 -146.5 c 128,-1,42
 290 -144 290 -144 305 -138 c 128,-1,43
 320 -132 320 -132 329.5 -122.5 c 128,-1,44
 339 -113 339 -113 339 -98 c 0,45,46
 339 -75 339 -75 319 -67 c 128,-1,47
 299 -59 299 -59 275 -59 c 0,48,49
 256 -59 256 -59 238.5 -62.5 c 128,-1,50
 221 -66 221 -66 211 -69 c 1,51,-1
 178 -11 l 1,52,53
 186 -7 186 -7 196.5 -4.5 c 128,-1,54
 207 -2 207 -2 218 0 c 1,55,-1
 93 0 l 1,56,-1
 23 151 l 1,0,-1
EndSplineSet
EndChar

StartChar: scircumflex
Encoding: 349 349 323
Width: 590
Flags: W
LayerCount: 2
Fore
SplineSet
96 639 m 1,0,-1
 296 727 l 1,1,-1
 496 639 l 1,2,-1
 496 585 l 1,3,-1
 296 631 l 1,4,-1
 96 585 l 1,5,-1
 96 639 l 1,0,-1
26 151 m 1,6,-1
 352 151 l 1,7,-1
 352 198 l 1,8,-1
 96 198 l 2,9,10
 68 198 68 198 47 219 c 128,-1,11
 26 240 26 240 26 268 c 2,12,-1
 26 455 l 2,13,14
 26 483 26 483 47 504 c 128,-1,15
 68 525 68 525 96 525 c 2,16,-1
 562 525 l 1,17,-1
 562 373 l 1,18,-1
 236 373 l 1,19,-1
 236 314 l 1,20,-1
 492 314 l 2,21,22
 520 314 520 314 541 293 c 128,-1,23
 562 272 562 272 562 245 c 2,24,-1
 562 70 l 2,25,26
 562 42 562 42 541 21 c 128,-1,27
 520 0 520 0 492 0 c 2,28,-1
 96 0 l 1,29,-1
 26 151 l 1,6,-1
EndSplineSet
EndChar

StartChar: tbar
Encoding: 359 359 324
Width: 495
Flags: W
LayerCount: 2
Fore
SplineSet
84 218 m 1,0,-1
 26 218 l 1,1,-1
 26 335 l 1,2,-1
 84 335 l 1,3,-1
 84 408 l 1,4,-1
 26 408 l 1,5,-1
 26 525 l 1,6,-1
 84 525 l 1,7,-1
 84 700 l 1,8,-1
 294 700 l 1,9,-1
 294 525 l 1,10,-1
 410 525 l 1,11,-1
 410 408 l 1,12,-1
 294 408 l 1,13,-1
 294 335 l 1,14,-1
 410 335 l 1,15,-1
 410 218 l 1,16,-1
 294 218 l 1,17,-1
 294 152 l 1,18,-1
 410 152 l 1,19,-1
 480 0 l 1,20,-1
 154 0 l 2,21,22
 126 0 126 0 105 21 c 128,-1,23
 84 42 84 42 84 70 c 2,24,-1
 84 218 l 1,0,-1
EndSplineSet
EndChar

StartChar: ubreve
Encoding: 365 365 325
Width: 593
Flags: W
LayerCount: 2
Fore
SplineSet
245 586 m 256,0,1
 221 597 221 597 202 616 c 128,-1,2
 183 635 183 635 172 659 c 128,-1,3
 161 683 161 683 161 710 c 1,4,-1
 211 710 l 1,5,6
 211 693 211 693 218 678 c 128,-1,7
 225 663 225 663 237 651 c 128,-1,8
 249 639 249 639 264 632 c 128,-1,9
 279 625 279 625 296 625 c 0,10,11
 312 625 312 625 327.5 632 c 128,-1,12
 343 639 343 639 355 651 c 128,-1,13
 367 663 367 663 374 678 c 128,-1,14
 381 693 381 693 381 710 c 1,15,-1
 431 710 l 1,16,17
 431 683 431 683 420 659 c 128,-1,18
 409 635 409 635 390 616 c 128,-1,19
 371 597 371 597 347 586 c 128,-1,20
 323 575 323 575 296 575 c 256,21,22
 269 575 269 575 245 586 c 256,0,1
28 525 m 1,23,-1
 238 525 l 1,24,-1
 238 151 l 1,25,-1
 354 151 l 1,26,-1
 354 525 l 1,27,-1
 564 525 l 1,28,-1
 564 0 l 1,29,-1
 98 0 l 2,30,31
 70 0 70 0 49 21 c 128,-1,32
 28 42 28 42 28 70 c 2,33,-1
 28 525 l 1,23,-1
EndSplineSet
EndChar

StartChar: uhungarumlaut
Encoding: 369 369 326
Width: 588
Flags: W
LayerCount: 2
Fore
SplineSet
337 749 m 1,0,-1
 409 749 l 1,1,-1
 351 585 l 1,2,-1
 299 585 l 1,3,-1
 337 749 l 1,0,-1
217 749 m 1,4,-1
 289 749 l 1,5,-1
 231 585 l 1,6,-1
 179 585 l 1,7,-1
 217 749 l 1,4,-1
26 525 m 1,8,-1
 236 525 l 1,9,-1
 236 151 l 1,10,-1
 352 151 l 1,11,-1
 352 525 l 1,12,-1
 562 525 l 1,13,-1
 562 0 l 1,14,-1
 96 0 l 2,15,16
 68 0 68 0 47 21 c 128,-1,17
 26 42 26 42 26 70 c 2,18,-1
 26 525 l 1,8,-1
EndSplineSet
EndChar

StartChar: umacron
Encoding: 363 363 327
Width: 608
Flags: W
LayerCount: 2
Fore
SplineSet
117 657 m 1,0,-1
 491 657 l 1,1,-1
 491 585 l 1,2,-1
 117 585 l 1,3,-1
 117 657 l 1,0,-1
36 525 m 1,4,-1
 246 525 l 1,5,-1
 246 151 l 1,6,-1
 362 151 l 1,7,-1
 362 525 l 1,8,-1
 572 525 l 1,9,-1
 572 0 l 1,10,-1
 106 0 l 2,11,12
 78 0 78 0 57 21 c 128,-1,13
 36 42 36 42 36 70 c 2,14,-1
 36 525 l 1,4,-1
EndSplineSet
EndChar

StartChar: uogonek
Encoding: 371 371 328
Width: 590
Flags: W
LayerCount: 2
Fore
SplineSet
20 525 m 1,0,-1
 230 525 l 1,1,-1
 230 151 l 1,2,-1
 346 151 l 1,3,-1
 346 525 l 1,4,-1
 556 525 l 1,5,-1
 556 0 l 1,6,-1
 462 0 l 1,7,8
 453 -8 453 -8 443.5 -20.5 c 128,-1,9
 434 -33 434 -33 426.5 -47.5 c 128,-1,10
 419 -62 419 -62 414.5 -77.5 c 128,-1,11
 410 -93 410 -93 410 -106 c 0,12,13
 410 -133 410 -133 425 -143 c 128,-1,14
 440 -153 440 -153 461 -153 c 0,15,16
 486 -153 486 -153 512.5 -144 c 128,-1,17
 539 -135 539 -135 556 -126 c 1,18,-1
 534 -198 l 1,19,20
 514 -208 514 -208 488.5 -213 c 128,-1,21
 463 -218 463 -218 436 -218 c 0,22,23
 410 -218 410 -218 385 -212 c 128,-1,24
 360 -206 360 -206 340.5 -193.5 c 128,-1,25
 321 -181 321 -181 309 -160 c 128,-1,26
 297 -139 297 -139 297 -109 c 0,27,28
 297 -83 297 -83 308 -55.5 c 128,-1,29
 319 -28 319 -28 343 0 c 1,30,-1
 90 0 l 2,31,32
 62 0 62 0 41 21 c 128,-1,33
 20 42 20 42 20 70 c 2,34,-1
 20 525 l 1,0,-1
EndSplineSet
EndChar

StartChar: uring
Encoding: 367 367 329
Width: 586
Flags: W
LayerCount: 2
Fore
SplineSet
226 603 m 256,0,1
 213 616 213 616 205.5 633.5 c 128,-1,2
 198 651 198 651 198 670 c 256,3,4
 198 689 198 689 205.5 706.5 c 128,-1,5
 213 724 213 724 226 737 c 128,-1,6
 239 750 239 750 256.5 757.5 c 128,-1,7
 274 765 274 765 293 765 c 256,8,9
 312 765 312 765 329.5 757.5 c 128,-1,10
 347 750 347 750 360 737 c 128,-1,11
 373 724 373 724 380.5 706.5 c 128,-1,12
 388 689 388 689 388 670 c 256,13,14
 388 651 388 651 380.5 633.5 c 128,-1,15
 373 616 373 616 360 603 c 128,-1,16
 347 590 347 590 329.5 582.5 c 128,-1,17
 312 575 312 575 293 575 c 256,18,19
 274 575 274 575 256.5 582.5 c 128,-1,20
 239 590 239 590 226 603 c 256,0,1
293 625 m 256,21,22
 311 625 311 625 324.5 638.5 c 128,-1,23
 338 652 338 652 338 670 c 256,24,25
 338 688 338 688 324.5 701.5 c 128,-1,26
 311 715 311 715 293 715 c 256,27,28
 275 715 275 715 261.5 701.5 c 128,-1,29
 248 688 248 688 248 670 c 256,30,31
 248 652 248 652 261.5 638.5 c 128,-1,32
 275 625 275 625 293 625 c 256,21,22
25 525 m 1,33,-1
 235 525 l 1,34,-1
 235 151 l 1,35,-1
 351 151 l 1,36,-1
 351 525 l 1,37,-1
 561 525 l 1,38,-1
 561 0 l 1,39,-1
 95 0 l 2,40,41
 67 0 67 0 46 21 c 128,-1,42
 25 42 25 42 25 70 c 2,43,-1
 25 525 l 1,33,-1
EndSplineSet
EndChar

StartChar: utilde
Encoding: 361 361 330
Width: 599
Flags: W
LayerCount: 2
Fore
SplineSet
104 669 m 1,0,1
 127 696 127 696 151 707 c 128,-1,2
 175 718 175 718 199 718 c 0,3,4
 226 718 226 718 253 708 c 128,-1,5
 280 698 280 698 306.5 686 c 128,-1,6
 333 674 333 674 359 664 c 128,-1,7
 385 654 385 654 409 654 c 0,8,9
 432 654 432 654 452.5 665.5 c 128,-1,10
 473 677 473 677 493 706 c 1,11,-1
 493 617 l 1,12,13
 473 588 473 588 452.5 576.5 c 128,-1,14
 432 565 432 565 409 565 c 0,15,16
 385 565 385 565 359 575 c 128,-1,17
 333 585 333 585 306.5 597 c 128,-1,18
 280 609 280 609 253 619 c 128,-1,19
 226 629 226 629 199 629 c 0,20,21
 175 629 175 629 151 618 c 128,-1,22
 127 607 127 607 104 580 c 1,23,-1
 104 669 l 1,0,1
31 525 m 1,24,-1
 241 525 l 1,25,-1
 241 151 l 1,26,-1
 357 151 l 1,27,-1
 357 525 l 1,28,-1
 567 525 l 1,29,-1
 567 0 l 1,30,-1
 101 0 l 2,31,32
 73 0 73 0 52 21 c 128,-1,33
 31 42 31 42 31 70 c 2,34,-1
 31 525 l 1,24,-1
EndSplineSet
EndChar

StartChar: wacute
Encoding: 7811 7811 331
Width: 914
Flags: W
LayerCount: 2
Fore
SplineSet
316 639 m 1,0,-1
 596 727 l 1,1,-1
 596 631 l 1,2,-1
 316 585 l 1,3,-1
 316 639 l 1,0,-1
24 525 m 1,4,-1
 234 525 l 1,5,-1
 234 151 l 1,6,-1
 351 151 l 1,7,-1
 351 525 l 1,8,-1
 561 525 l 1,9,-1
 561 151 l 1,10,-1
 678 151 l 1,11,-1
 678 525 l 1,12,-1
 888 525 l 1,13,-1
 888 70 l 2,14,15
 888 41 888 41 866.5 20.5 c 128,-1,16
 845 0 845 0 818 0 c 2,17,-1
 94 0 l 2,18,19
 67 0 67 0 45.5 20.5 c 128,-1,20
 24 41 24 41 24 70 c 2,21,-1
 24 525 l 1,4,-1
EndSplineSet
EndChar

StartChar: wcircumflex
Encoding: 373 373 332
Width: 916
Flags: W
LayerCount: 2
Fore
SplineSet
258 639 m 1,0,-1
 458 727 l 1,1,-1
 658 639 l 1,2,-1
 658 585 l 1,3,-1
 458 631 l 1,4,-1
 258 585 l 1,5,-1
 258 639 l 1,0,-1
26 525 m 1,6,-1
 236 525 l 1,7,-1
 236 151 l 1,8,-1
 353 151 l 1,9,-1
 353 525 l 1,10,-1
 563 525 l 1,11,-1
 563 151 l 1,12,-1
 680 151 l 1,13,-1
 680 525 l 1,14,-1
 890 525 l 1,15,-1
 890 70 l 2,16,17
 890 41 890 41 868.5 20.5 c 128,-1,18
 847 0 847 0 820 0 c 2,19,-1
 96 0 l 2,20,21
 69 0 69 0 47.5 20.5 c 128,-1,22
 26 41 26 41 26 70 c 2,23,-1
 26 525 l 1,6,-1
EndSplineSet
EndChar

StartChar: wdieresis
Encoding: 7813 7813 333
Width: 920
Flags: W
LayerCount: 2
Fore
SplineSet
519 598 m 256,0,1
 501 621 501 621 501 649 c 0,2,3
 501 676 501 676 519 699 c 128,-1,4
 537 722 537 722 574 722 c 0,5,6
 612 722 612 722 630.5 699 c 128,-1,7
 649 676 649 676 649 648 c 0,8,9
 649 621 649 621 630.5 598 c 128,-1,10
 612 575 612 575 574 575 c 0,11,12
 537 575 537 575 519 598 c 256,0,1
289 598 m 256,13,14
 271 621 271 621 271 649 c 0,15,16
 271 676 271 676 289 699 c 128,-1,17
 307 722 307 722 344 722 c 0,18,19
 382 722 382 722 400.5 699 c 128,-1,20
 419 676 419 676 419 648 c 0,21,22
 419 621 419 621 400.5 598 c 128,-1,23
 382 575 382 575 344 575 c 0,24,25
 307 575 307 575 289 598 c 256,13,14
28 525 m 1,26,-1
 238 525 l 1,27,-1
 238 151 l 1,28,-1
 355 151 l 1,29,-1
 355 525 l 1,30,-1
 565 525 l 1,31,-1
 565 151 l 1,32,-1
 682 151 l 1,33,-1
 682 525 l 1,34,-1
 892 525 l 1,35,-1
 892 70 l 2,36,37
 892 41 892 41 870.5 20.5 c 128,-1,38
 849 0 849 0 822 0 c 2,39,-1
 98 0 l 2,40,41
 71 0 71 0 49.5 20.5 c 128,-1,42
 28 41 28 41 28 70 c 2,43,-1
 28 525 l 1,26,-1
EndSplineSet
EndChar

StartChar: wgrave
Encoding: 7809 7809 334
Width: 914
Flags: W
LayerCount: 2
Fore
SplineSet
318 727 m 1,0,-1
 598 639 l 1,1,-1
 598 585 l 1,2,-1
 318 631 l 1,3,-1
 318 727 l 1,0,-1
26 525 m 1,4,-1
 236 525 l 1,5,-1
 236 151 l 1,6,-1
 353 151 l 1,7,-1
 353 525 l 1,8,-1
 563 525 l 1,9,-1
 563 151 l 1,10,-1
 680 151 l 1,11,-1
 680 525 l 1,12,-1
 890 525 l 1,13,-1
 890 70 l 2,14,15
 890 41 890 41 868.5 20.5 c 128,-1,16
 847 0 847 0 820 0 c 2,17,-1
 96 0 l 2,18,19
 69 0 69 0 47.5 20.5 c 128,-1,20
 26 41 26 41 26 70 c 2,21,-1
 26 525 l 1,4,-1
EndSplineSet
EndChar

StartChar: ycircumflex
Encoding: 375 375 335
Width: 594
Flags: W
LayerCount: 2
Fore
SplineSet
96 639 m 1,0,-1
 296 727 l 1,1,-1
 496 639 l 1,2,-1
 496 585 l 1,3,-1
 296 631 l 1,4,-1
 96 585 l 1,5,-1
 96 639 l 1,0,-1
27 525 m 1,6,-1
 237 525 l 1,7,-1
 237 152 l 1,8,-1
 353 152 l 1,9,-1
 353 525 l 1,10,-1
 563 525 l 1,11,-1
 563 -163 l 2,12,13
 563 -191 563 -191 542 -212 c 128,-1,14
 521 -233 521 -233 493 -233 c 2,15,-1
 97 -233 l 1,16,-1
 27 -81 l 1,17,-1
 353 -81 l 1,18,-1
 353 0 l 1,19,-1
 97 0 l 2,20,21
 69 0 69 0 48 21 c 128,-1,22
 27 42 27 42 27 70 c 2,23,-1
 27 525 l 1,6,-1
EndSplineSet
EndChar

StartChar: ygrave
Encoding: 7923 7923 336
Width: 589
Flags: W
LayerCount: 2
Fore
SplineSet
155 727 m 1,0,-1
 435 639 l 1,1,-1
 435 585 l 1,2,-1
 155 631 l 1,3,-1
 155 727 l 1,0,-1
26 525 m 1,4,-1
 236 525 l 1,5,-1
 236 152 l 1,6,-1
 352 152 l 1,7,-1
 352 525 l 1,8,-1
 562 525 l 1,9,-1
 562 -163 l 2,10,11
 562 -191 562 -191 541 -212 c 128,-1,12
 520 -233 520 -233 492 -233 c 2,13,-1
 96 -233 l 1,14,-1
 26 -81 l 1,15,-1
 352 -81 l 1,16,-1
 352 0 l 1,17,-1
 96 0 l 2,18,19
 68 0 68 0 47 21 c 128,-1,20
 26 42 26 42 26 70 c 2,21,-1
 26 525 l 1,4,-1
EndSplineSet
EndChar

StartChar: zacute
Encoding: 378 378 337
Width: 583
Flags: W
LayerCount: 2
Fore
SplineSet
144 639 m 1,0,-1
 424 727 l 1,1,-1
 424 631 l 1,2,-1
 144 585 l 1,3,-1
 144 639 l 1,0,-1
21 151 m 1,4,-1
 266 373 l 1,5,-1
 21 373 l 1,6,-1
 21 525 l 1,7,-1
 557 525 l 1,8,-1
 557 373 l 1,9,-1
 312 151 l 1,10,-1
 557 151 l 1,11,-1
 557 0 l 1,12,-1
 21 0 l 1,13,-1
 21 151 l 1,4,-1
EndSplineSet
EndChar

StartChar: zcaron
Encoding: 382 382 338
Width: 593
Flags: W
LayerCount: 2
Fore
SplineSet
92 673 m 1,0,-1
 92 727 l 1,1,-1
 292 681 l 1,2,-1
 492 727 l 1,3,-1
 492 673 l 1,4,-1
 292 585 l 1,5,-1
 92 673 l 1,0,-1
29 151 m 1,6,-1
 274 373 l 1,7,-1
 29 373 l 1,8,-1
 29 525 l 1,9,-1
 565 525 l 1,10,-1
 565 373 l 1,11,-1
 320 151 l 1,12,-1
 565 151 l 1,13,-1
 565 0 l 1,14,-1
 29 0 l 1,15,-1
 29 151 l 1,6,-1
EndSplineSet
EndChar

